<svg width="32" height="32" viewBox="0 0 32 32" fill="none" xmlns="http://www.w3.org/2000/svg">
<path d="M16.0364 0H15.9636C7.14712 0 0 7.14713 0 15.9636V16.0364C0 24.8529 7.14712 32 15.9636 32H16.0364C24.8529 32 32 24.8529 32 16.0364V15.9636C32 7.14713 24.8529 0 16.0364 0Z" fill="#C4C4C4"/>
<path d="M15.9999 17.6276C14.4024 17.6276 13.0974 16.3301 13.0974 14.7251C13.0974 13.1201 14.4024 11.8301 15.9999 11.8301C17.5974 11.8301 18.9024 13.1276 18.9024 14.7326C18.9024 16.3376 17.5974 17.6276 15.9999 17.6276ZM15.9999 12.9551C15.0249 12.9551 14.2224 13.7501 14.2224 14.7326C14.2224 15.7151 15.0174 16.5101 15.9999 16.5101C16.9824 16.5101 17.7774 15.7151 17.7774 14.7326C17.7774 13.7501 16.9749 12.9551 15.9999 12.9551Z" fill="#191919"/>
<path d="M15.9998 24.07C14.8898 24.07 13.7723 23.65 12.9023 22.8175C10.6898 20.6875 8.24477 17.29 9.16727 13.2475C9.99977 9.58 13.2023 7.9375 15.9998 7.9375C15.9998 7.9375 15.9998 7.9375 16.0073 7.9375C18.8048 7.9375 22.0073 9.58 22.8398 13.255C23.7548 17.2975 21.3098 20.6875 19.0973 22.8175C18.2273 23.65 17.1098 24.07 15.9998 24.07ZM15.9998 9.0625C13.8173 9.0625 11.0123 10.225 10.2698 13.495C9.45977 17.0275 11.6798 20.0725 13.6898 22C14.9873 23.2525 17.0198 23.2525 18.3173 22C20.3198 20.0725 22.5398 17.0275 21.7448 13.495C20.9948 10.225 18.1823 9.0625 15.9998 9.0625Z" fill="#191919"/>
</svg>
