<svg width="32" height="33" viewBox="0 0 32 33" fill="none" xmlns="http://www.w3.org/2000/svg">
<path d="M16.0364 0.5H15.9636C7.14712 0.5 0 7.64713 0 16.4636V16.5364C0 25.3529 7.14712 32.5 15.9636 32.5H16.0364C24.8529 32.5 32 25.3529 32 16.5364V16.4636C32 7.64713 24.8529 0.5 16.0364 0.5Z" fill="#191919"/>
<path d="M19.75 23.4375H12.25C9.5125 23.4375 7.9375 21.8625 7.9375 19.125V13.875C7.9375 11.1375 9.5125 9.5625 12.25 9.5625H19.75C22.4875 9.5625 24.0625 11.1375 24.0625 13.875V19.125C24.0625 21.8625 22.4875 23.4375 19.75 23.4375ZM12.25 10.6875C10.105 10.6875 9.0625 11.73 9.0625 13.875V19.125C9.0625 21.27 10.105 22.3125 12.25 22.3125H19.75C21.895 22.3125 22.9375 21.27 22.9375 19.125V13.875C22.9375 11.73 21.895 10.6875 19.75 10.6875H12.25Z" fill="#F8F7FC"/>
<path d="M16.0001 17.1525C15.3701 17.1525 14.7326 16.9575 14.2451 16.56L11.8976 14.685C11.6576 14.49 11.6126 14.1375 11.8076 13.8975C12.0026 13.6575 12.3551 13.6125 12.5951 13.8075L14.9426 15.6825C15.5126 16.14 16.4801 16.14 17.0501 15.6825L19.3976 13.8075C19.6376 13.6125 19.9976 13.65 20.1851 13.8975C20.3801 14.1375 20.3426 14.4975 20.0951 14.685L17.7476 16.56C17.2676 16.9575 16.6301 17.1525 16.0001 17.1525Z" fill="#F8F7FC"/>
</svg>
