<svg width="18" height="18" viewBox="0 0 18 18" fill="none" xmlns="http://www.w3.org/2000/svg">
<path d="M2.48595 9.5C2.65526 10.2694 2.95881 11.9325 3.3827 12.5967L2.20205 14.2261L3 15L4.74761 14.0758C5.41125 14.5004 6.80172 15.3442 7.57162 15.5116L7.89101 17.5L9 17.5L9.5 15.5116C10.2694 15.344 11.934 15.0409 12.5972 14.6164L14.2242 15.7969L15 15L14.2242 13.25C14.6479 12.5856 15.3423 11.1988 15.5127 10.4295L17.5 10.1115V9L15.5127 8.5C15.3426 7.73061 15.0399 6.06893 14.6159 5.40471L15.7993 3.77527L15 3C15 3 14.0315 4.08876 13.5 4.25C12.8366 3.82564 11.2004 2.65705 10.4311 2.48836L10.1117 0.500001L9 0.5C9 0.5 9.01175 1.99849 8.75 2.48836C7.98069 2.65705 6.06895 2.96061 5.4055 3.38497L3.77579 2.2045L3 3C3 3 3.72318 3.96861 3.88362 4.5C3.45958 5.16419 2.65603 6.80244 2.48595 7.57185L0.5 7.88846V9.04845L2.48595 9.5ZM9.01024 3.92266C10.0242 3.92266 11.0154 4.22328 11.8584 4.78651C12.7015 5.34974 13.3586 6.15028 13.7466 7.08689C14.1346 8.02351 14.2362 9.05413 14.0383 10.0484C13.8405 11.0427 13.3523 11.9561 12.6353 12.6729C11.9183 13.3898 11.0049 13.878 10.0104 14.0758C9.01593 14.2735 7.98513 14.172 7.04837 13.7841C6.1116 13.3961 5.31093 12.7391 4.74761 11.8962C4.18429 11.0533 3.88362 10.0622 3.88362 9.04845C3.88435 7.68899 4.42489 6.38544 5.38645 5.42428C6.34802 4.46313 7.65193 3.92302 9.0116 3.92266H9.01024Z" fill="#455C7A"/>
<path d="M2.48595 9.5C2.65526 10.2694 2.95881 11.9325 3.3827 12.5967L2.20205 14.2261L3 15L4.74761 14.0758C5.41125 14.5004 6.80172 15.3442 7.57162 15.5116L7.89101 17.5L9 17.5L9.5 15.5116C10.2694 15.344 11.934 15.0409 12.5972 14.6164L14.2242 15.7969L15 15L14.2242 13.25C14.6479 12.5856 15.3423 11.1988 15.5127 10.4295L17.5 10.1115V9L15.5127 8.5C15.3426 7.73061 15.0399 6.06893 14.6159 5.40471L15.7993 3.77527L15 3C15 3 14.0315 4.08876 13.5 4.25C12.8366 3.82564 11.2004 2.65705 10.4311 2.48836L10.1117 0.500001L9 0.5C9 0.5 9.01175 1.99849 8.75 2.48836C7.98069 2.65705 6.06895 2.96061 5.4055 3.38497L3.77579 2.2045L3 3C3 3 3.72318 3.96861 3.88362 4.5C3.45958 5.16419 2.65603 6.80244 2.48595 7.57185L0.5 7.88846V9.04845L2.48595 9.5ZM9.01024 3.92266C10.0242 3.92266 11.0154 4.22328 11.8584 4.78651C12.7015 5.34974 13.3586 6.15028 13.7466 7.08689C14.1346 8.02351 14.2362 9.05413 14.0383 10.0484C13.8405 11.0427 13.3523 11.9561 12.6353 12.6729C11.9183 13.3898 11.0049 13.878 10.0104 14.0758C9.01593 14.2735 7.98513 14.172 7.04837 13.7841C6.1116 13.3961 5.31093 12.7391 4.74761 11.8962C4.18429 11.0533 3.88362 10.0622 3.88362 9.04845C3.88435 7.68899 4.42489 6.38544 5.38645 5.42428C6.34802 4.46313 7.65193 3.92302 9.0116 3.92266H9.01024Z" fill="#455C7A"/>
<path d="M2.74999 6.7501C2.60925 7.52526 2.29508 9.37406 2.42984 10.1503L0.711814 11.1979L1.14929 12.2198L2.99999 12.0001C3.44834 12.648 4.52367 14.0045 5.16931 14.4561L4.69661 16.4137L5.71969 16.8416L6.99999 15.2501C7.7745 15.3924 9.37542 15.7053 10.1511 15.5697L11.1965 17.2866L12.2197 16.8508L12 15.0001C12.6473 14.5507 14.0024 13.4762 14.4565 12.8323L16.4126 13.3059L16.8415 12.2804L15.25 11.2501C15.39 10.4747 15.7032 8.62702 15.5684 7.85063L17.2889 6.8041L16.8507 5.78042C16.8507 5.78042 15.5526 6.05648 15 6.0001C14.5517 5.35257 13.4778 3.99771 12.8332 3.5452L13.3059 1.58761L12.2803 1.15858C12.2803 1.15858 11.627 2.39919 11.1965 2.7501C10.4216 2.60883 8.62672 2.29742 7.8509 2.43287L6.803 0.714923L5.78031 1.1494C5.78031 1.1494 6.05705 2.44795 5.99999 3.0001C5.35248 3.44919 3.99555 4.52453 3.54172 5.1687L1.58743 4.69437L1.13977 5.7645L2.74999 6.7501ZM10.9689 4.32004C11.9043 4.71134 12.7027 5.37119 13.2631 6.21615C13.8235 7.0611 14.1207 8.05321 14.1172 9.06701C14.1137 10.0808 13.8096 11.0708 13.2434 11.9117C12.6772 12.7527 11.8743 13.4068 10.9362 13.7914C9.99816 14.1761 8.96705 14.2739 7.97329 14.0726C6.97954 13.8713 6.06777 13.3798 5.35329 12.6604C4.63881 11.941 4.15372 11.0259 3.95934 10.0309C3.76496 9.03583 3.87003 8.00555 4.26127 7.0703C4.78658 5.81643 5.78832 4.82247 7.04632 4.30686C8.30432 3.79125 9.71565 3.79618 10.9701 4.32057L10.9689 4.32004Z" fill="#455C7A"/>
<path d="M10.5 9.00011C10.5 9.82854 9.82842 10.5001 9 10.5001C8.17157 10.5001 7.5 9.82854 7.5 9.00011C7.5 8.17168 8.17157 7.50011 9 7.50011C9.82842 7.50011 10.5 8.17168 10.5 9.00011Z" fill="#455C7A"/>
</svg>
