<svg width="32" height="33" viewBox="0 0 32 33" fill="none" xmlns="http://www.w3.org/2000/svg">
<path d="M16.0364 0.5H15.9636C7.14712 0.5 0 7.64713 0 16.4636V16.5364C0 25.3529 7.14712 32.5 15.9636 32.5H16.0364C24.8529 32.5 32 25.3529 32 16.5364V16.4636C32 7.64713 24.8529 0.5 16.0364 0.5Z" fill="#191919"/>
<path d="M20.0875 24.5625C19.24 24.5625 18.3475 24.36 17.425 23.97C16.525 23.5875 15.6175 23.0625 14.7325 22.425C13.855 21.78 13.0075 21.06 12.205 20.2725C11.41 19.47 10.69 18.6225 10.0525 17.7525C9.4075 16.8525 8.89 15.9525 8.5225 15.0825C8.1325 14.1525 7.9375 13.2525 7.9375 12.405C7.9375 11.82 8.0425 11.265 8.245 10.7475C8.455 10.215 8.7925 9.72 9.25 9.2925C9.8275 8.7225 10.4875 8.4375 11.1925 8.4375C11.485 8.4375 11.785 8.505 12.04 8.625C12.3325 8.76 12.58 8.9625 12.76 9.2325L14.5 11.685C14.6575 11.9025 14.7775 12.1125 14.86 12.3225C14.9575 12.5475 15.01 12.7725 15.01 12.99C15.01 13.275 14.9275 13.5525 14.77 13.815C14.6575 14.0175 14.485 14.235 14.2675 14.4525L13.7575 14.985C13.765 15.0075 13.7725 15.0225 13.78 15.0375C13.87 15.195 14.05 15.465 14.395 15.87C14.7625 16.29 15.1075 16.6725 15.4525 17.025C15.895 17.46 16.2625 17.805 16.6075 18.09C17.035 18.45 17.3125 18.63 17.4775 18.7125L17.4625 18.75L18.01 18.21C18.2425 17.9775 18.4675 17.805 18.685 17.6925C19.0975 17.4375 19.6225 17.3925 20.1475 17.61C20.3425 17.6925 20.5525 17.805 20.7775 17.9625L23.2675 19.7325C23.545 19.92 23.7475 20.16 23.8675 20.445C23.98 20.73 24.0325 20.9925 24.0325 21.255C24.0325 21.615 23.95 21.975 23.7925 22.3125C23.635 22.65 23.44 22.9425 23.1925 23.2125C22.765 23.685 22.3 24.0225 21.76 24.24C21.2425 24.45 20.68 24.5625 20.0875 24.5625ZM11.1925 9.5625C10.78 9.5625 10.3975 9.7425 10.03 10.1025C9.685 10.425 9.445 10.7775 9.295 11.16C9.1375 11.55 9.0625 11.9625 9.0625 12.405C9.0625 13.1025 9.2275 13.86 9.5575 14.64C9.895 15.435 10.3675 16.26 10.9675 17.085C11.5675 17.91 12.25 18.7125 13 19.47C13.75 20.2125 14.56 20.9025 15.3925 21.51C16.2025 22.1025 17.035 22.5825 17.86 22.9275C19.1425 23.475 20.3425 23.6025 21.3325 23.19C21.715 23.0325 22.0525 22.7925 22.36 22.4475C22.5325 22.26 22.6675 22.0575 22.78 21.8175C22.87 21.63 22.915 21.435 22.915 21.24C22.915 21.12 22.8925 21 22.8325 20.865C22.81 20.82 22.765 20.7375 22.6225 20.64L20.1325 18.87C19.9825 18.765 19.8475 18.69 19.72 18.6375C19.555 18.57 19.4875 18.5025 19.2325 18.66C19.0825 18.735 18.9475 18.8475 18.7975 18.9975L18.2275 19.56C17.935 19.845 17.485 19.9125 17.14 19.785L16.9375 19.695C16.63 19.53 16.27 19.275 15.8725 18.9375C15.5125 18.63 15.1225 18.27 14.65 17.805C14.2825 17.43 13.915 17.0325 13.5325 16.59C13.18 16.1775 12.925 15.825 12.7675 15.5325L12.6775 15.3075C12.6325 15.135 12.6175 15.0375 12.6175 14.9325C12.6175 14.6625 12.715 14.4225 12.9025 14.235L13.465 13.65C13.615 13.5 13.7275 13.3575 13.8025 13.23C13.8625 13.1325 13.885 13.05 13.885 12.975C13.885 12.915 13.8625 12.825 13.825 12.735C13.7725 12.615 13.69 12.48 13.585 12.3375L11.845 9.8775C11.77 9.7725 11.68 9.6975 11.5675 9.645C11.4475 9.5925 11.32 9.5625 11.1925 9.5625ZM17.4625 18.7575L17.3425 19.2675L17.545 18.7425C17.5075 18.735 17.4775 18.7425 17.4625 18.7575Z" fill="#F8F7FC"/>
</svg>
