<svg width="25" height="24" viewBox="0 0 25 24" fill="none" xmlns="http://www.w3.org/2000/svg">
<path d="M10.0894 15.23C8.49073 15.23 7.13573 14.6747 6.0244 13.564C4.91373 12.454 4.3584 11.0994 4.3584 9.50002C4.3584 7.90069 4.91373 6.54569 6.0244 5.43502C7.13507 4.32435 8.49006 3.76935 10.0894 3.77002C11.6887 3.77069 13.0434 4.32602 14.1534 5.43602C15.2634 6.54602 15.8187 7.90069 15.8194 9.50002C15.8194 10.1947 15.6964 10.867 15.4504 11.517C15.2044 12.167 14.8811 12.723 14.4804 13.185L20.3894 19.092C20.4827 19.1854 20.5327 19.3004 20.5394 19.437C20.5454 19.5724 20.4954 19.6934 20.3894 19.8C20.2827 19.9067 20.1647 19.96 20.0354 19.96C19.9061 19.96 19.7881 19.9067 19.6814 19.8L13.7734 13.892C13.2734 14.318 12.6984 14.6477 12.0484 14.881C11.3984 15.1144 10.7451 15.231 10.0884 15.231M10.0884 14.231C11.4151 14.231 12.5354 13.7744 13.4494 12.861C14.3627 11.9477 14.8194 10.8274 14.8194 9.50002C14.8194 8.17269 14.3631 7.05269 13.4504 6.14002C12.5377 5.22735 11.4177 4.77069 10.0904 4.77002C8.76306 4.77002 7.64273 5.22669 6.7294 6.14002C5.81606 7.05335 5.35907 8.17335 5.3584 9.50002C5.35773 10.8267 5.8144 11.9467 6.7284 12.86C7.6424 13.7734 8.7624 14.23 10.0884 14.23" fill="#F8F7FC"/>
</svg>
