<svg width="18" height="18" viewBox="0 0 18 18" fill="none" xmlns="http://www.w3.org/2000/svg">
<path d="M11.3623 7.04297C11.3623 7.04297 10.1511 10.4562 9.57581 11.0521C9.29811 11.3321 8.92129 11.4915 8.52693 11.4958C8.13257 11.5 7.7524 11.3488 7.46871 11.0748C7.18503 10.8009 7.02066 10.4262 7.01118 10.0319C7.0017 9.63765 7.14787 9.25551 7.41806 8.96822C7.99331 8.37197 11.3623 7.04297 11.3623 7.04297Z" stroke="#455C7A" stroke-width="1.5" stroke-linejoin="round"/>
<path d="M14.5687 14.5687C15.301 13.8382 15.8817 12.9701 16.2775 12.0145C16.6732 11.0588 16.8763 10.0344 16.875 9C16.875 4.65075 13.3492 1.125 9 1.125C4.65075 1.125 1.125 4.65075 1.125 9C1.125 11.1746 2.00625 13.1434 3.43125 14.5687M9 1.5V3M14.5669 4.17825L13.4014 5.12213M15.9457 10.2124L14.4844 9.87488M2.05388 10.2124L3.51562 9.87488M3.43312 4.17825L4.59862 5.12213" stroke="#455C7A" stroke-width="1.5" stroke-linecap="round" stroke-linejoin="round"/>
</svg>
