<svg width="12" height="13" viewBox="0 0 12 13" fill="none" xmlns="http://www.w3.org/2000/svg">
<path fill-rule="evenodd" clip-rule="evenodd" d="M6.63187 0.644681C6.23196 0.451773 5.76802 0.451773 5.36811 0.64468C5.09126 0.778223 4.89487 1.03101 4.72085 1.31671C4.5459 1.60397 4.35394 1.99443 4.1149 2.48066L4.10554 2.49972L3.91288 2.89161C3.74896 3.22502 3.70129 3.3124 3.64145 3.37611C3.57972 3.44181 3.50571 3.49431 3.42375 3.5305C3.34428 3.56558 3.24719 3.58087 2.88291 3.62204L2.70802 3.6418L2.68703 3.64417C2.11277 3.70906 1.65402 3.7609 1.30672 3.83274C0.96419 3.9036 0.644967 4.00849 0.421513 4.24036C0.101802 4.5721 -0.0487114 5.03581 0.0139615 5.49594C0.0577648 5.81753 0.25284 6.09512 0.486567 6.35946C0.723555 6.62745 1.06179 6.94692 1.4852 7.34678L1.50067 7.3614L1.68532 7.53575C2.00604 7.83864 2.08828 7.92432 2.13435 8.01556C2.18192 8.1098 2.20726 8.21396 2.20835 8.31987C2.20941 8.42229 2.17525 8.53916 2.02837 8.96492L2.02143 8.98505C1.80468 9.61331 1.633 10.1109 1.53554 10.498C1.44086 10.8741 1.38781 11.2433 1.51124 11.5631C1.68493 12.0131 2.06123 12.3503 2.522 12.4689C2.84851 12.553 3.19891 12.455 3.55063 12.3139C3.91169 12.1691 4.3689 11.9366 4.94535 11.6435L4.96423 11.6339L5.41245 11.4059C5.71467 11.2522 5.79719 11.2144 5.87639 11.1993C5.95806 11.1837 6.04192 11.1837 6.12359 11.1993C6.20279 11.2144 6.28532 11.2522 6.58753 11.4059L7.03576 11.6339L7.05468 11.6435C7.63112 11.9366 8.0883 12.1691 8.44934 12.3139C8.80105 12.455 9.15147 12.553 9.47797 12.4689C9.93875 12.3503 10.3151 12.0131 10.4887 11.5631C10.6122 11.2433 10.5591 10.8741 10.4645 10.498C10.367 10.1109 10.1953 9.61336 9.97853 8.98505L9.97162 8.96492C9.82475 8.53916 9.79059 8.42229 9.79161 8.31987C9.79273 8.21396 9.81804 8.1098 9.86566 8.01556C9.91172 7.92432 9.99392 7.83864 10.3147 7.53575L10.4993 7.3614L10.5148 7.34673C10.9382 6.94687 11.2765 6.62745 11.5134 6.35946C11.7471 6.09512 11.9422 5.81753 11.986 5.49594C12.0487 5.03581 11.8982 4.5721 11.5785 4.24036C11.355 4.00849 11.0358 3.9036 10.6933 3.83274C10.346 3.7609 9.88722 3.70906 9.31298 3.64417L9.29196 3.6418L9.11709 3.62204C8.75279 3.58087 8.65568 3.56558 8.57626 3.5305C8.49428 3.49431 8.42028 3.44181 8.35856 3.37611C8.29872 3.3124 8.25105 3.22502 8.08712 2.89161L7.89446 2.49973L7.88507 2.48067C7.64603 1.99443 7.45411 1.60397 7.27915 1.31671C7.10514 1.03101 6.90878 0.778229 6.63187 0.644681Z" fill="#0454FD"/>
</svg>
