<svg width="18" height="18" viewBox="0 0 18 18" fill="none" xmlns="http://www.w3.org/2000/svg">
<path d="M15.8045 1.19544C15.6795 1.07045 15.51 1.00024 15.3332 1.00024C15.1564 1.00024 14.9869 1.07045 14.8619 1.19544L7.99986 8.05744L1.13786 1.19544C1.01284 1.07045 0.8433 1.00024 0.666524 1.00024C0.489748 1.00024 0.320209 1.07045 0.195191 1.19544C0.0702103 1.32045 0 1.48999 0 1.66677C0 1.84354 0.0702103 2.01308 0.195191 2.1381L7.05719 9.0001L0.195191 15.8621C0.0702103 15.9871 0 16.1567 0 16.3334C0 16.5102 0.0702103 16.6798 0.195191 16.8048C0.320209 16.9298 0.489748 17 0.666524 17C0.8433 17 1.01284 16.9298 1.13786 16.8048L7.99986 9.94277L14.8619 16.8048C14.9869 16.9298 15.1564 17 15.3332 17C15.51 17 15.6795 16.9298 15.8045 16.8048C15.9295 16.6798 15.9997 16.5102 15.9997 16.3334C15.9997 16.1567 15.9295 15.9871 15.8045 15.8621L8.94252 9.0001L15.8045 2.1381C15.9295 2.01308 15.9997 1.84354 15.9997 1.66677C15.9997 1.48999 15.9295 1.32045 15.8045 1.19544Z" fill="#2A0EFF"/>
</svg>
