<svg width="40" height="40" viewBox="0 0 40 40" fill="none" xmlns="http://www.w3.org/2000/svg">
<path d="M39.9972 20.0006C39.9972 30.1019 32.5098 38.4528 22.7831 39.8079C21.8736 39.934 20.9431 39.9999 19.9986 39.9999C18.9084 39.9999 17.8377 39.913 16.7951 39.7448C7.27298 38.2117 0 29.9547 0 20.0006C0 8.95488 8.9546 0 20 0C31.0454 0 40 8.95488 40 20.0006H39.9972Z" fill="#C4C4C4"/>
<path d="M22.7827 16.0599V20.4169H28.1723L27.3189 26.2859H22.7827V39.8079C21.8733 39.934 20.9428 39.9999 19.9983 39.9999C18.908 39.9999 17.8374 39.913 16.7948 39.7449V26.2859H11.8242V20.4169H16.7948V15.086C16.7948 11.7787 19.4756 9.09644 22.7841 9.09644V9.09924C22.794 9.09924 22.8024 9.09644 22.8122 9.09644H28.1737V14.1723H24.6704C23.6292 14.1723 22.7841 15.0173 22.7841 16.0586L22.7827 16.0599Z" fill="#0454FD"/>
</svg>
