<svg width="40" height="40" viewBox="0 0 40 40" fill="none" xmlns="http://www.w3.org/2000/svg">
<path d="M20.0456 0H19.9544C8.9339 0 0 8.93392 0 19.9545V20.0455C0 31.0661 8.9339 40 19.9544 40H20.0456C31.0661 40 40 31.0661 40 20.0455V19.9545C40 8.93392 31.0661 0 20.0456 0Z" fill="#C4C4C4"/>
<path d="M7.57488 19.3183C7.63094 19.2903 7.68702 19.2637 7.74168 19.2384C8.69182 18.7984 9.65458 18.3864 10.6159 17.9744C10.6678 17.9744 10.7547 17.9141 10.8037 17.8945C10.878 17.8623 10.9523 17.8314 11.0265 17.7992C11.1695 17.7375 11.3124 17.6773 11.454 17.6156C11.7399 17.4937 12.0243 17.3718 12.3102 17.2498L14.0213 16.5169C15.162 16.0292 16.3042 15.5401 17.4449 15.0525C18.5857 14.5648 19.7278 14.0757 20.8685 13.588C22.0093 13.1003 23.1514 12.6112 24.2921 12.1236C25.4329 11.6359 26.575 11.1468 27.7158 10.6591C27.9694 10.5498 28.2441 10.3872 28.5159 10.3396C28.7444 10.2989 28.9672 10.2205 29.197 10.177C29.6328 10.0943 30.1135 10.0607 30.5311 10.2415C30.6755 10.3045 30.8086 10.3928 30.9193 10.5035C31.4491 11.0277 31.3748 11.8881 31.2627 12.6252C30.4821 17.7628 29.7015 22.9017 28.9195 28.0392C28.813 28.7441 28.6673 29.5177 28.1109 29.9633C27.6401 30.3403 26.9702 30.3823 26.3886 30.2226C25.807 30.0614 25.2941 29.7237 24.791 29.3915C22.7044 28.0098 20.6163 26.628 18.5296 25.2462C18.0335 24.9183 17.4814 24.4895 17.487 23.8939C17.4898 23.5351 17.7042 23.2156 17.9228 22.9311C19.7362 20.5656 22.3526 18.9399 24.2991 16.6837C24.5738 16.3656 24.7896 15.791 24.4127 15.6074C24.1884 15.4981 23.9306 15.6467 23.726 15.7882C21.153 17.575 18.5815 19.3632 16.0085 21.1499C15.1691 21.7329 14.289 22.3327 13.2772 22.4757C12.3719 22.6046 11.461 22.3523 10.5851 22.0945C9.85078 21.8787 9.11783 21.6572 8.3877 21.4288C7.99951 21.3083 7.59871 21.178 7.29881 20.9047C6.99891 20.6314 6.82657 20.1718 7.00735 19.8074C7.12086 19.579 7.34088 19.4346 7.57211 19.3169L7.57488 19.3183Z" fill="#0454FD"/>
</svg>
