<svg width="40" height="40" viewBox="0 0 40 40" fill="none" xmlns="http://www.w3.org/2000/svg">
<path d="M20.0456 0H19.9544C8.9339 0 0 8.93392 0 19.9545V20.0455C0 31.0661 8.9339 40 19.9544 40H20.0456C31.0661 40 40 31.0661 40 20.0455V19.9545C40 8.93392 31.0661 0 20.0456 0Z" fill="#C4C4C4"/>
<path d="M7.57488 19.3186C7.63094 19.2905 7.68702 19.2639 7.74168 19.2387C8.69182 18.7986 9.65458 18.3866 10.6159 17.9746C10.6678 17.9746 10.7547 17.9144 10.8037 17.8947C10.878 17.8625 10.9523 17.8317 11.0265 17.7994C11.1695 17.7378 11.3124 17.6775 11.454 17.6159C11.7399 17.4939 12.0243 17.372 12.3102 17.2501L14.0213 16.5172C15.162 16.0295 16.3042 15.5404 17.4449 15.0527C18.5857 14.565 19.7278 14.0759 20.8685 13.5882C22.0093 13.1006 23.1514 12.6115 24.2921 12.1238C25.4329 11.6361 26.575 11.147 27.7158 10.6593C27.9694 10.55 28.2441 10.3875 28.5159 10.3398C28.7444 10.2992 28.9672 10.2207 29.197 10.1773C29.6328 10.0946 30.1135 10.0609 30.5311 10.2417C30.6755 10.3048 30.8086 10.3931 30.9193 10.5038C31.4491 11.0279 31.3748 11.8884 31.2627 12.6255C30.4821 17.763 29.7015 22.9019 28.9195 28.0394C28.813 28.7443 28.6673 29.5179 28.1109 29.9635C27.6401 30.3405 26.9702 30.3826 26.3886 30.2228C25.807 30.0616 25.2941 29.7239 24.791 29.3918C22.7044 28.01 20.6163 26.6282 18.5296 25.2464C18.0335 24.9185 17.4814 24.4897 17.487 23.8941C17.4898 23.5353 17.7042 23.2158 17.9228 22.9313C19.7362 20.5658 22.3526 18.9402 24.2991 16.6839C24.5738 16.3658 24.7896 15.7912 24.4127 15.6077C24.1884 15.4984 23.9306 15.6469 23.726 15.7884C21.153 17.5752 18.5815 19.3634 16.0085 21.1502C15.1691 21.7332 14.289 22.333 13.2772 22.4759C12.3719 22.6048 11.461 22.3526 10.5851 22.0947C9.85078 21.8789 9.11783 21.6575 8.3877 21.4291C7.99951 21.3085 7.59871 21.1782 7.29881 20.9049C6.99891 20.6317 6.82657 20.172 7.00735 19.8076C7.12086 19.5792 7.34088 19.4349 7.57211 19.3171L7.57488 19.3186Z" fill="#191919"/>
</svg>
