<svg width="40" height="40" viewBox="0 0 40 40" fill="none" xmlns="http://www.w3.org/2000/svg">
<path d="M39.9972 20.0006C39.9972 30.1019 32.5098 38.4528 22.7831 39.8079C21.8736 39.934 20.9431 39.9999 19.9986 39.9999C18.9084 39.9999 17.8377 39.913 16.7951 39.7448C7.27298 38.2117 0 29.9547 0 20.0006C0 8.95488 8.9546 0 20 0C31.0454 0 40 8.95488 40 20.0006H39.9972Z" fill="#C4C4C4"/>
<path d="M22.7827 16.0602V20.4171H28.1723L27.3189 26.2861H22.7827V39.8082C21.8733 39.9343 20.9428 40.0001 19.9983 40.0001C18.908 40.0001 17.8374 39.9133 16.7948 39.7451V26.2861H11.8242V20.4171H16.7948V15.0862C16.7948 11.7789 19.4756 9.09668 22.7841 9.09668V9.09949C22.794 9.09949 22.8024 9.09668 22.8122 9.09668H28.1737V14.1725H24.6704C23.6292 14.1725 22.7841 15.0176 22.7841 16.0588L22.7827 16.0602Z" fill="#191919"/>
</svg>
