<svg width="40" height="40" viewBox="0 0 40 40" fill="none" xmlns="http://www.w3.org/2000/svg">
<path d="M20.0455 0H19.9545C8.93392 0 0 8.93392 0 19.9545V20.0455C0 31.0661 8.93392 40 19.9545 40H20.0455C31.0661 40 40 31.0661 40 20.0455V19.9545C40 8.93392 31.0661 0 20.0455 0Z" fill="#C4C4C4"/>
<path d="M26.1916 8.13745H13.8145C10.395 8.13745 7.61328 10.9192 7.61328 14.3386V25.6619C7.61328 29.0813 10.395 31.8631 13.8145 31.8631H26.1916C29.611 31.8631 32.3927 29.0813 32.3927 25.6619V14.3386C32.3927 10.9192 29.611 8.13745 26.1916 8.13745ZM9.80086 14.3386C9.80086 12.1258 11.6016 10.325 13.8145 10.325H26.1916C28.4044 10.325 30.2052 12.1258 30.2052 14.3386V25.6619C30.2052 27.8747 28.4044 29.6755 26.1916 29.6755H13.8145C11.6016 29.6755 9.80086 27.8747 9.80086 25.6619V14.3386Z" fill="#0454FD"/>
<path d="M20.0025 25.767C23.1823 25.767 25.7707 23.18 25.7707 19.9988C25.7707 16.8177 23.1837 14.2307 20.0025 14.2307C16.8214 14.2307 14.2344 16.8177 14.2344 19.9988C14.2344 23.18 16.8214 25.767 20.0025 25.767ZM20.0025 16.4197C21.9771 16.4197 23.5831 18.0257 23.5831 20.0003C23.5831 21.9748 21.9771 23.5808 20.0025 23.5808C18.028 23.5808 16.422 21.9748 16.422 20.0003C16.422 18.0257 18.028 16.4197 20.0025 16.4197Z" fill="#0454FD"/>
<path d="M26.3041 15.1625C27.1604 15.1625 27.8583 14.466 27.8583 13.6083C27.8583 12.7507 27.1618 12.0542 26.3041 12.0542C25.4465 12.0542 24.75 12.7507 24.75 13.6083C24.75 14.466 25.4465 15.1625 26.3041 15.1625Z" fill="#0454FD"/>
</svg>
