<svg width="40" height="40" viewBox="0 0 40 40" fill="none" xmlns="http://www.w3.org/2000/svg">
<path d="M20.0455 0H19.9545C8.93392 0 0 8.93392 0 19.9545V20.0455C0 31.0661 8.93392 40 19.9545 40H20.0455C31.0661 40 40 31.0661 40 20.0455V19.9545C40 8.93392 31.0661 0 20.0455 0Z" fill="#C4C4C4"/>
<path d="M26.1916 8.1377H13.8145C10.395 8.1377 7.61328 10.9195 7.61328 14.3389V25.6621C7.61328 29.0815 10.395 31.8633 13.8145 31.8633H26.1916C29.611 31.8633 32.3927 29.0815 32.3927 25.6621V14.3389C32.3927 10.9195 29.611 8.1377 26.1916 8.1377ZM9.80086 14.3389C9.80086 12.1261 11.6016 10.3253 13.8145 10.3253H26.1916C28.4044 10.3253 30.2052 12.1261 30.2052 14.3389V25.6621C30.2052 27.8749 28.4044 29.6757 26.1916 29.6757H13.8145C11.6016 29.6757 9.80086 27.8749 9.80086 25.6621V14.3389Z" fill="#191919"/>
<path d="M20.0025 25.7667C23.1823 25.7667 25.7707 23.1798 25.7707 19.9986C25.7707 16.8174 23.1837 14.2305 20.0025 14.2305C16.8214 14.2305 14.2344 16.8174 14.2344 19.9986C14.2344 23.1798 16.8214 25.7667 20.0025 25.7667ZM20.0025 16.4194C21.9771 16.4194 23.5831 18.0254 23.5831 20C23.5831 21.9746 21.9771 23.5806 20.0025 23.5806C18.028 23.5806 16.422 21.9746 16.422 20C16.422 18.0254 18.028 16.4194 20.0025 16.4194Z" fill="#191919"/>
<path d="M26.3041 15.163C27.1604 15.163 27.8583 14.4665 27.8583 13.6088C27.8583 12.7512 27.1618 12.0547 26.3041 12.0547C25.4465 12.0547 24.75 12.7512 24.75 13.6088C24.75 14.4665 25.4465 15.163 26.3041 15.163Z" fill="#191919"/>
</svg>
