<svg width="19" height="14" viewBox="0 0 19 14" fill="none" xmlns="http://www.w3.org/2000/svg">
<path d="M18.1429 1.84265L6.94289 13.0427C6.84534 13.1405 6.72942 13.2182 6.6018 13.2712C6.47417 13.3242 6.33733 13.3515 6.19914 13.3515C6.06094 13.3515 5.92411 13.3242 5.79648 13.2712C5.66885 13.2182 5.55293 13.1405 5.45539 13.0427L0.555386 8.14265C0.457715 8.04498 0.380239 7.92903 0.32738 7.80141C0.274521 7.6738 0.247314 7.53703 0.247314 7.3989C0.247314 7.26077 0.274521 7.124 0.32738 6.99639C0.380239 6.86877 0.457715 6.75282 0.555386 6.65515C0.653056 6.55748 0.769008 6.48 0.896621 6.42714C1.02423 6.37429 1.16101 6.34708 1.29914 6.34708C1.43726 6.34708 1.57404 6.37429 1.70165 6.42714C1.82926 6.48 1.94522 6.55748 2.04289 6.65515L6.20001 10.8123L16.6571 0.356899C16.8544 0.159645 17.1219 0.0488281 17.4009 0.0488281C17.6798 0.0488281 17.9474 0.159645 18.1446 0.356899C18.3419 0.554154 18.4527 0.821689 18.4527 1.10065C18.4527 1.37961 18.3419 1.64714 18.1446 1.8444L18.1429 1.84265Z" fill="#CCDDFF"/>
</svg>
