<svg width="32" height="33" viewBox="0 0 32 33" fill="none" xmlns="http://www.w3.org/2000/svg">
<path d="M16.0364 0.5H15.9636C7.14712 0.5 0 7.64713 0 16.4636V16.5364C0 25.3529 7.14712 32.5 15.9636 32.5H16.0364C24.8529 32.5 32 25.3529 32 16.5364V16.4636C32 7.64713 24.8529 0.5 16.0364 0.5Z" fill="#191919"/>
<path d="M16.0002 18.1271C14.4027 18.1271 13.0977 16.8296 13.0977 15.2246C13.0977 13.6196 14.4027 12.3296 16.0002 12.3296C17.5977 12.3296 18.9027 13.6271 18.9027 15.2321C18.9027 16.8371 17.5977 18.1271 16.0002 18.1271ZM16.0002 13.4546C15.0252 13.4546 14.2227 14.2496 14.2227 15.2321C14.2227 16.2146 15.0177 17.0096 16.0002 17.0096C16.9827 17.0096 17.7777 16.2146 17.7777 15.2321C17.7777 14.2496 16.9752 13.4546 16.0002 13.4546Z" fill="#F8F7FC"/>
<path d="M15.9998 24.57C14.8898 24.57 13.7723 24.15 12.9023 23.3175C10.6898 21.1875 8.24477 17.79 9.16727 13.7475C9.99977 10.08 13.2023 8.4375 15.9998 8.4375C15.9998 8.4375 15.9998 8.4375 16.0073 8.4375C18.8048 8.4375 22.0073 10.08 22.8398 13.755C23.7548 17.7975 21.3098 21.1875 19.0973 23.3175C18.2273 24.15 17.1098 24.57 15.9998 24.57ZM15.9998 9.5625C13.8173 9.5625 11.0123 10.725 10.2698 13.995C9.45977 17.5275 11.6798 20.5725 13.6898 22.5C14.9873 23.7525 17.0198 23.7525 18.3173 22.5C20.3198 20.5725 22.5398 17.5275 21.7448 13.995C20.9948 10.725 18.1823 9.5625 15.9998 9.5625Z" fill="#F8F7FC"/>
</svg>
