<svg width="44" height="44" viewBox="0 0 44 44" fill="none" xmlns="http://www.w3.org/2000/svg">
<path d="M38.5 14.208H5.5C4.74833 14.208 4.125 13.5847 4.125 12.833C4.125 12.0813 4.74833 11.458 5.5 11.458H38.5C39.2517 11.458 39.875 12.0813 39.875 12.833C39.875 13.5847 39.2517 14.208 38.5 14.208Z" fill="#191919"/>
<path d="M38.5 23.375H5.5C4.74833 23.375 4.125 22.7517 4.125 22C4.125 21.2483 4.74833 20.625 5.5 20.625H38.5C39.2517 20.625 39.875 21.2483 39.875 22C39.875 22.7517 39.2517 23.375 38.5 23.375Z" fill="#191919"/>
<path d="M38.5 32.542H5.5C4.74833 32.542 4.125 31.9187 4.125 31.167C4.125 30.4153 4.74833 29.792 5.5 29.792H38.5C39.2517 29.792 39.875 30.4153 39.875 31.167C39.875 31.9187 39.2517 32.542 38.5 32.542Z" fill="#191919"/>
</svg>
