<svg width="32" height="32" viewBox="0 0 32 32" fill="none" xmlns="http://www.w3.org/2000/svg">
<path d="M16.0364 0H15.9636C7.14712 0 0 7.14713 0 15.9636V16.0364C0 24.8529 7.14712 32 15.9636 32H16.0364C24.8529 32 32 24.8529 32 16.0364V15.9636C32 7.14713 24.8529 0 16.0364 0Z" fill="#C4C4C4"/>
<path d="M20.0875 24.0625C19.24 24.0625 18.3475 23.86 17.425 23.47C16.525 23.0875 15.6175 22.5625 14.7325 21.925C13.855 21.28 13.0075 20.56 12.205 19.7725C11.41 18.97 10.69 18.1225 10.0525 17.2525C9.4075 16.3525 8.89 15.4525 8.5225 14.5825C8.1325 13.6525 7.9375 12.7525 7.9375 11.905C7.9375 11.32 8.0425 10.765 8.245 10.2475C8.455 9.715 8.7925 9.22 9.25 8.7925C9.8275 8.2225 10.4875 7.9375 11.1925 7.9375C11.485 7.9375 11.785 8.005 12.04 8.125C12.3325 8.26 12.58 8.4625 12.76 8.7325L14.5 11.185C14.6575 11.4025 14.7775 11.6125 14.86 11.8225C14.9575 12.0475 15.01 12.2725 15.01 12.49C15.01 12.775 14.9275 13.0525 14.77 13.315C14.6575 13.5175 14.485 13.735 14.2675 13.9525L13.7575 14.485C13.765 14.5075 13.7725 14.5225 13.78 14.5375C13.87 14.695 14.05 14.965 14.395 15.37C14.7625 15.79 15.1075 16.1725 15.4525 16.525C15.895 16.96 16.2625 17.305 16.6075 17.59C17.035 17.95 17.3125 18.13 17.4775 18.2125L17.4625 18.25L18.01 17.71C18.2425 17.4775 18.4675 17.305 18.685 17.1925C19.0975 16.9375 19.6225 16.8925 20.1475 17.11C20.3425 17.1925 20.5525 17.305 20.7775 17.4625L23.2675 19.2325C23.545 19.42 23.7475 19.66 23.8675 19.945C23.98 20.23 24.0325 20.4925 24.0325 20.755C24.0325 21.115 23.95 21.475 23.7925 21.8125C23.635 22.15 23.44 22.4425 23.1925 22.7125C22.765 23.185 22.3 23.5225 21.76 23.74C21.2425 23.95 20.68 24.0625 20.0875 24.0625ZM11.1925 9.0625C10.78 9.0625 10.3975 9.2425 10.03 9.6025C9.685 9.925 9.445 10.2775 9.295 10.66C9.1375 11.05 9.0625 11.4625 9.0625 11.905C9.0625 12.6025 9.2275 13.36 9.5575 14.14C9.895 14.935 10.3675 15.76 10.9675 16.585C11.5675 17.41 12.25 18.2125 13 18.97C13.75 19.7125 14.56 20.4025 15.3925 21.01C16.2025 21.6025 17.035 22.0825 17.86 22.4275C19.1425 22.975 20.3425 23.1025 21.3325 22.69C21.715 22.5325 22.0525 22.2925 22.36 21.9475C22.5325 21.76 22.6675 21.5575 22.78 21.3175C22.87 21.13 22.915 20.935 22.915 20.74C22.915 20.62 22.8925 20.5 22.8325 20.365C22.81 20.32 22.765 20.2375 22.6225 20.14L20.1325 18.37C19.9825 18.265 19.8475 18.19 19.72 18.1375C19.555 18.07 19.4875 18.0025 19.2325 18.16C19.0825 18.235 18.9475 18.3475 18.7975 18.4975L18.2275 19.06C17.935 19.345 17.485 19.4125 17.14 19.285L16.9375 19.195C16.63 19.03 16.27 18.775 15.8725 18.4375C15.5125 18.13 15.1225 17.77 14.65 17.305C14.2825 16.93 13.915 16.5325 13.5325 16.09C13.18 15.6775 12.925 15.325 12.7675 15.0325L12.6775 14.8075C12.6325 14.635 12.6175 14.5375 12.6175 14.4325C12.6175 14.1625 12.715 13.9225 12.9025 13.735L13.465 13.15C13.615 13 13.7275 12.8575 13.8025 12.73C13.8625 12.6325 13.885 12.55 13.885 12.475C13.885 12.415 13.8625 12.325 13.825 12.235C13.7725 12.115 13.69 11.98 13.585 11.8375L11.845 9.3775C11.77 9.2725 11.68 9.1975 11.5675 9.145C11.4475 9.0925 11.32 9.0625 11.1925 9.0625ZM17.4625 18.2575L17.3425 18.7675L17.545 18.2425C17.5075 18.235 17.4775 18.2425 17.4625 18.2575Z" fill="#191919"/>
</svg>
