<svg width="19" height="18" viewBox="0 0 19 18" fill="none" xmlns="http://www.w3.org/2000/svg">
<g clip-path="url(#clip0_482_5642)">
<path d="M17.75 8.25001H10.25V0.749988C10.25 0.335777 9.91421 0 9.5 0C9.08579 0 8.75001 0.335777 8.75001 0.749988V8.24998H1.24999C0.835777 8.25001 0.5 8.58579 0.5 9C0.5 9.41421 0.835777 9.74999 1.24999 9.74999H8.74998V17.25C8.74998 17.6642 9.08575 18 9.49996 18C9.91417 18 10.25 17.6642 10.25 17.25V9.74999H17.7499C18.1642 9.74999 18.4999 9.41421 18.4999 9C18.5 8.58579 18.1642 8.25001 17.75 8.25001Z" fill="#111017"/>
</g>
<defs>
<clipPath id="clip0_482_5642">
<rect width="18" height="18" fill="white" transform="translate(0.5)"/>
</clipPath>
</defs>
</svg>
