<svg width="24" height="24" viewBox="0 0 24 24" fill="none" xmlns="http://www.w3.org/2000/svg">
<path d="M19.8045 4.19531C19.6795 4.07033 19.51 4.00012 19.3332 4.00012C19.1564 4.00012 18.9869 4.07033 18.8619 4.19531L11.9999 11.0573L5.13786 4.19531C5.01284 4.07033 4.8433 4.00012 4.66652 4.00012C4.48975 4.00012 4.32021 4.07033 4.19519 4.19531C4.07021 4.32033 4 4.48987 4 4.66665C4 4.84342 4.07021 5.01296 4.19519 5.13798L11.0572 12L4.19519 18.862C4.07021 18.987 4 19.1565 4 19.3333C4 19.5101 4.07021 19.6796 4.19519 19.8046C4.32021 19.9296 4.48975 19.9998 4.66652 19.9998C4.8433 19.9998 5.01284 19.9296 5.13786 19.8046L11.9999 12.9426L18.8619 19.8046C18.9869 19.9296 19.1564 19.9998 19.3332 19.9998C19.51 19.9998 19.6795 19.9296 19.8045 19.8046C19.9295 19.6796 19.9997 19.5101 19.9997 19.3333C19.9997 19.1565 19.9295 18.987 19.8045 18.862L12.9425 12L19.8045 5.13798C19.9295 5.01296 19.9997 4.84342 19.9997 4.66665C19.9997 4.48987 19.9295 4.32033 19.8045 4.19531Z" fill="#111017"/>
</svg>
