<svg width="16" height="16" viewBox="0 0 16 16" fill="none" xmlns="http://www.w3.org/2000/svg">
<path d="M15.8046 0.195191C15.6796 0.0702103 15.5101 0 15.3333 0C15.1565 0 14.987 0.0702103 14.862 0.195191L7.99998 7.05719L1.13798 0.195191C1.01296 0.0702103 0.843422 0 0.666646 0C0.48987 0 0.320332 0.0702103 0.195313 0.195191C0.0703323 0.320209 0.00012207 0.489748 0.00012207 0.666524C0.00012207 0.8433 0.0703323 1.01284 0.195313 1.13786L7.05731 7.99986L0.195313 14.8619C0.0703323 14.9869 0.00012207 15.1564 0.00012207 15.3332C0.00012207 15.51 0.0703323 15.6795 0.195313 15.8045C0.320332 15.9295 0.48987 15.9997 0.666646 15.9997C0.843422 15.9997 1.01296 15.9295 1.13798 15.8045L7.99998 8.94252L14.862 15.8045C14.987 15.9295 15.1565 15.9997 15.3333 15.9997C15.5101 15.9997 15.6796 15.9295 15.8046 15.8045C15.9296 15.6795 15.9998 15.51 15.9998 15.3332C15.9998 15.1564 15.9296 14.9869 15.8046 14.8619L8.94265 7.99986L15.8046 1.13786C15.9296 1.01284 15.9998 0.8433 15.9998 0.666524C15.9998 0.489748 15.9296 0.320209 15.8046 0.195191Z" fill="#F8F7FC"/>
</svg>
