<svg width="153" height="117" viewBox="0 0 153 117" fill="none" xmlns="http://www.w3.org/2000/svg">
<path d="M47.6894 5.22879C48.9405 2.26684 51.8435 0.341797 55.0588 0.341797H144.367C148.785 0.341797 152.367 3.92352 152.367 8.3418V108.608C152.367 113.026 148.785 116.608 144.367 116.608H12.7044C6.97902 116.608 3.10706 110.769 5.33496 105.495L47.6894 5.22879Z" fill="#E6E5EC"/>
<path d="M124.352 76.3488C124.352 76.3488 124.351 76.3488 124.351 76.3488C120.416 76.3488 116.671 75.0158 113.641 72.5653C110.767 74.8869 107.221 76.2145 103.493 76.3394C103.298 76.3462 103.106 76.3488 102.914 76.3488C102.914 76.3488 102.913 76.3488 102.913 76.3488C98.9778 76.3488 95.2328 75.0158 92.2028 72.5653C89.3287 74.8869 85.7821 76.2145 82.0539 76.3394C81.8598 76.3462 81.6678 76.3488 81.475 76.3488C81.475 76.3488 81.4743 76.3488 81.4739 76.3488C77.5387 76.3488 73.7941 75.0158 70.7644 72.5653C67.8899 74.8869 64.3438 76.2145 60.6152 76.3394C60.4214 76.3462 60.229 76.3488 60.0367 76.3488C60.0363 76.3488 60.036 76.3488 60.0356 76.3488C50.7666 76.3484 43.2644 69.072 42.9552 59.7837C42.6407 50.3404 50.0519 42.4012 59.4753 42.0864L59.5351 42.0853L60.6156 42.0864C64.3427 42.211 67.8889 43.5389 70.7644 45.8605C73.6393 43.5389 77.1851 42.211 80.9137 42.0864L80.9735 42.0853L82.0539 42.0864C85.781 42.211 89.3276 43.5389 92.2028 45.8601C95.0773 43.5385 98.6242 42.2106 102.353 42.0864L102.412 42.0853L103.492 42.0864C107.219 42.211 110.766 43.5389 113.641 45.8605C116.516 43.5389 120.063 42.2106 123.791 42.0864L123.851 42.0853L124.931 42.0864C133.896 42.3858 141.152 49.6579 141.451 58.6414C141.765 68.0847 134.354 76.0239 124.931 76.3391C124.736 76.3459 124.545 76.3488 124.352 76.3488ZM116.192 70.0193C118.532 71.8021 121.373 72.7682 124.351 72.7682C124.352 72.7682 124.352 72.7682 124.352 72.7682C124.505 72.7682 124.658 72.7656 124.811 72.7606C132.266 72.5115 138.128 66.2312 137.88 58.7609C137.644 51.664 131.918 45.9176 124.84 45.6659H123.881C121.076 45.7654 118.402 46.7264 116.194 48.4051C118.545 51.2967 119.887 54.8669 120.012 58.6414C120.15 62.7795 118.774 66.83 116.192 70.0193ZM94.7534 70.0193C97.0931 71.8021 99.9339 72.7682 102.913 72.7682C102.913 72.7682 102.913 72.7682 102.914 72.7682C103.067 72.7682 103.22 72.7656 103.373 72.7606C106.189 72.6662 108.873 71.7052 111.089 70.0208C108.738 67.1294 107.396 63.5593 107.271 59.7837C107.133 55.6463 108.51 51.5961 111.091 48.4072C108.881 46.7271 106.207 45.7657 103.402 45.6659H102.443C99.6369 45.7654 96.9638 46.7264 94.7556 48.4051C97.106 51.2967 98.4483 54.8669 98.5737 58.6414C98.7116 62.7795 97.3349 66.83 94.7534 70.0193ZM73.3147 70.0193C75.6544 71.8021 78.4952 72.7682 81.4743 72.7682C81.4743 72.7682 81.475 72.7682 81.4754 72.7682C81.6283 72.7682 81.7806 72.7656 81.9346 72.7606C84.7504 72.6662 87.4347 71.7052 89.6504 70.0208C87.2996 67.1294 85.9576 63.5593 85.8323 59.7837C85.6947 55.6463 87.071 51.5961 89.6525 48.4068C87.4429 46.7271 84.7687 45.7657 81.9637 45.6663H81.0039C78.1989 45.7657 75.5254 46.7268 73.3169 48.4054C75.6676 51.2971 77.0099 54.8673 77.1357 58.6418C77.2733 62.7795 75.8962 66.83 73.3147 70.0193ZM59.5656 45.6663C52.125 45.9301 46.2779 52.2039 46.5261 59.6649C46.7708 67.0121 52.7046 72.7674 60.036 72.7682H60.0367C60.1896 72.7682 60.3423 72.7656 60.4959 72.7606C63.3117 72.6662 65.996 71.7052 68.2116 70.0208C65.8609 67.1294 64.5189 63.5593 64.3932 59.7837C64.256 55.6463 65.6327 51.5961 68.2138 48.4068C66.0045 46.7271 63.3299 45.7657 60.525 45.6663H59.5656ZM113.644 50.9449C111.744 53.4227 110.737 56.5118 110.842 59.6652C110.937 62.5304 111.918 65.2462 113.64 67.4813C115.54 65.0035 116.546 61.914 116.442 58.7609C116.347 55.8965 115.365 53.1807 113.644 50.9449ZM70.7662 50.9446C68.8661 53.4223 67.8599 56.5115 67.9648 59.6649C68.0601 62.53 69.0413 65.2458 70.7627 67.4809C72.6627 65.0031 73.6694 61.914 73.5648 58.7606C73.4695 55.8965 72.4883 53.1804 70.7662 50.9446ZM92.2049 50.9446C90.3048 53.4223 89.2982 56.5115 89.4032 59.6649C89.4988 62.53 90.4797 65.2458 92.201 67.4809C94.1007 65.0031 95.1077 61.9136 95.0031 58.7606C94.9078 55.8965 93.9266 53.1804 92.2049 50.9446Z" fill="#737B7F"/>
</svg>
