<svg width="225" height="117" viewBox="0 0 225 117" fill="none" xmlns="http://www.w3.org/2000/svg">
<path d="M142.29 1.95939C143.713 0.811559 145.486 0.185547 147.314 0.185547H216.672C221.091 0.185547 224.672 3.76727 224.672 8.18555V108.763C224.672 113.181 221.091 116.763 216.672 116.763H22.6557C15.1101 116.763 11.7597 107.275 17.6323 102.537L142.29 1.95939Z" fill="#E6E5EC"/>
<path fill-rule="evenodd" clip-rule="evenodd" d="M161.106 99.6868C180.567 99.6868 196.316 83.9048 196.316 64.4028C196.316 44.9008 180.567 29.1188 161.106 29.1188C141.645 29.1188 125.897 44.9008 125.897 64.4028C125.897 83.9048 141.645 99.6868 161.106 99.6868ZM128.033 64.4014C128.033 46.0266 142.769 31.2592 161.105 31.2592C179.441 31.2592 194.177 46.0266 194.177 64.4014C194.177 82.6634 179.441 97.5435 161.105 97.5435C142.881 97.5435 128.033 82.7761 128.033 64.4014Z" fill="#6F6F6F"/>
<path fill-rule="evenodd" clip-rule="evenodd" d="M128.037 64.4058C128.037 46.0311 142.773 31.2637 161.109 31.2637C179.445 31.2637 194.182 46.0311 194.182 64.4058C194.182 82.6679 179.445 97.548 161.109 97.548C142.886 97.548 128.037 82.7806 128.037 64.4058ZM130.173 64.4044C130.173 81.5392 144.009 95.4048 161.108 95.4048C178.207 95.4048 192.043 81.5392 192.043 64.4044C192.043 47.2697 178.207 33.4041 161.108 33.4041C144.009 33.4041 130.173 47.2697 130.173 64.4044Z" fill="#737B7F"/>
<path opacity="0.4" fill-rule="evenodd" clip-rule="evenodd" d="M197.106 64.405C197.106 44.5648 180.907 28.3319 161.109 28.3319C141.31 28.3319 125.111 44.5648 125.111 64.405C125.111 84.2452 141.31 100.478 161.109 100.478C180.907 100.478 197.106 84.2452 197.106 64.405ZM196.317 64.404C196.317 83.906 180.568 99.688 161.108 99.688C141.647 99.688 125.898 83.906 125.898 64.404C125.898 44.902 141.647 29.12 161.108 29.12C180.568 29.12 196.317 44.902 196.317 64.404Z" fill="#6F6F6F"/>
<path fill-rule="evenodd" clip-rule="evenodd" d="M161.109 30.8125C142.548 30.8125 127.587 46.0308 127.587 64.5183C127.587 83.0058 142.548 97.9987 161.109 97.9987C179.67 97.9987 194.631 83.0058 194.631 64.5183C194.631 45.9181 179.67 30.8125 161.109 30.8125ZM128.373 64.5174C128.373 55.4991 132.086 47.2699 138.048 41.2953C143.897 35.3207 152.109 31.6007 161.108 31.6007C170.107 31.6007 178.319 35.3207 184.169 41.2953C190.018 47.2699 193.731 55.4991 193.731 64.5174C193.731 73.5357 190.131 81.7649 184.169 87.6267C178.319 93.6013 170.107 97.2087 161.108 97.2087C152.109 97.2087 143.897 93.4886 137.935 87.6267C132.086 81.7649 128.373 73.5357 128.373 64.5174Z" fill="#E1E3E1"/>
<path opacity="0.4" fill-rule="evenodd" clip-rule="evenodd" d="M139.171 86.3853C145.021 92.2472 152.782 95.5163 161.107 95.5163C169.431 95.5163 177.193 92.2472 183.043 86.3853C188.892 80.5234 192.154 72.7451 192.154 64.4032C192.154 56.0613 188.892 48.2831 183.043 42.4212C177.193 36.5593 169.431 33.2902 161.107 33.2902C152.782 33.2902 145.021 36.5593 139.171 42.4212C133.322 48.2831 130.059 56.0613 130.059 64.4032C130.059 72.7451 133.322 80.5234 139.171 86.3853ZM182.367 85.823C176.743 91.4594 169.093 94.6158 161.107 94.6158C153.12 94.6158 145.47 91.4594 139.733 85.7102C134.109 80.0738 130.959 72.4083 130.959 64.4045C130.959 56.4008 134.109 48.7353 139.846 43.2116C145.47 37.5752 153.12 34.4188 161.107 34.4188C169.093 34.4188 176.63 37.4624 182.367 43.2116C187.992 48.848 191.142 56.5135 191.142 64.5173C191.142 72.521 188.104 80.0738 182.367 85.823Z" fill="#E1E3E1"/>
<path d="M188.442 79.0583C187.88 78.6074 166.169 61.3599 166.169 61.3599L161.107 32.3887C160.769 32.5014 160.319 32.8396 160.094 33.2905L156.495 61.4726L134.109 78.7201C134.109 78.7201 133.659 79.2837 133.434 79.6219C133.321 79.8474 133.321 80.1856 133.321 80.5238L160.994 69.1382L188.667 80.5238C188.892 79.9601 188.667 79.3965 188.442 79.0583Z" fill="#E1E3E1"/>
<path d="M161.333 65.3063L161.108 70.4918L186.531 80.7501C187.431 81.201 188.105 80.9755 188.78 80.5246L161.67 65.1935C161.558 65.0808 161.333 65.1935 161.333 65.3063Z" fill="#6F6F6F"/>
<path d="M161.331 65.3063C161.331 65.3063 162.793 67.899 164.481 69.7027C166.843 72.2954 169.993 74.0991 169.993 74.0991L186.529 80.7501C187.429 81.201 188.104 80.9755 188.779 80.5246L161.668 65.1935C161.556 65.0808 161.331 65.1935 161.331 65.3063Z" fill="#737B7F"/>
<path d="M188.668 79.5097C188.668 79.3969 188.556 79.2842 188.443 79.0587L165.27 62.0367L162.121 64.0659C162.121 64.0659 162.346 64.1786 162.458 64.0659C162.796 63.9531 163.47 63.8404 164.145 64.0659C164.708 64.2913 188.668 79.6224 188.668 79.5097C188.668 79.6224 188.668 79.6224 188.668 79.5097Z" fill="#A4AAAE" fill-opacity="0.6"/>
<path d="M187.88 78.4936L166.282 61.3589L165.27 62.0353L188.443 79.17C188.33 78.9445 188.105 78.7191 187.88 78.4936Z" fill="#6F6F6F"/>
<path d="M161.669 63.6153L161.557 63.728C161.557 63.728 161.557 63.9535 161.782 63.8407C161.894 63.728 165.157 62.0371 166.281 61.3607L162.344 34.3059C162.232 33.2913 161.782 32.8404 160.994 32.5022L161.444 63.8407L161.669 63.6153Z" fill="#6F6F6F"/>
<path fill-rule="evenodd" clip-rule="evenodd" d="M159.758 35.7718V34.3063C159.87 33.7427 159.983 33.2917 160.32 33.0663L160.208 35.2081L159.195 62.7139L157.733 61.5866C157.395 61.3611 157.283 61.023 157.283 60.6848L159.758 35.7718ZM157.058 62.0366L158.408 63.1639C158.746 63.502 158.633 63.7275 158.183 63.953L134.222 79.0586L133.435 79.5095C133.548 79.0586 134.222 78.6077 134.222 78.6077L157.058 62.0366Z" fill="#A4AAAE" fill-opacity="0.6"/>
<path d="M160.769 65.3063C160.769 65.1935 160.657 65.0808 160.544 65.1935L133.321 80.6373C133.996 81.0883 134.671 81.201 135.571 80.8628L160.994 70.6045L160.769 65.3063Z" fill="#6F6F6F"/>
<path d="M161.557 63.7269L161.67 63.6141L161.557 63.7269C161.557 63.7269 161.557 63.8396 161.67 63.8396H161.782C161.895 63.7269 165.157 62.0359 166.282 61.3596L165.832 58.0904L162.345 34.3047C162.345 33.8538 162.232 33.5156 162.007 33.2902C162.007 33.2902 163.695 56.0613 163.695 58.5413C163.695 61.8105 161.557 63.7269 161.557 63.7269V63.7269Z" fill="#737B7F"/>
<path d="M160.769 65.3063C160.769 65.1935 160.657 65.0808 160.544 65.1935L133.321 80.6373C133.996 81.0883 134.671 81.201 135.571 80.8628L160.994 70.6045L160.769 65.3063Z" fill="#737B7F" fill-opacity="0.8"/>
<path opacity="0.8" d="M135.572 80.7511L160.995 70.4928L160.77 65.5327C160.32 66.8855 159.532 68.3509 157.395 69.4782C155.82 70.38 140.746 77.8201 135.347 80.4129C135.009 80.6383 134.559 80.7511 134.334 80.8638C134.784 81.0892 135.122 80.9765 135.572 80.7511Z" fill="#737B7F"/>
<path d="M161.669 63.6153L161.557 63.728C161.557 63.728 161.557 63.9535 161.782 63.8407C161.894 63.728 165.157 62.0371 166.281 61.3607L162.344 34.3059C162.232 33.2913 161.782 32.8404 160.994 32.5022L161.444 63.8407L161.669 63.6153Z" fill="#737B7F"/>
<path d="M161.669 63.6153L161.557 63.728C161.557 63.728 161.557 63.9535 161.782 63.8407C161.894 63.728 165.157 62.0371 166.281 61.3607L162.344 34.3059C162.232 33.2913 161.782 32.8404 160.994 32.5022L161.444 63.8407L161.669 63.6153Z" fill="#737B7F"/>
<path d="M130.847 78.3831C130.06 76.5794 125.56 67.7866 130.51 50.8773H128.597C127.585 54.2592 126.797 56.2883 126.347 59.332C126.347 59.332 126.122 60.4592 126.01 61.6993C125.897 62.9393 125.897 63.6156 125.897 64.4047C125.897 71.1684 127.585 75.1139 127.585 75.1139C129.385 80.7504 132.534 85.8232 136.809 89.6559C140.521 92.925 146.258 95.4051 150.983 96.3069C150.196 96.1942 136.697 90.445 130.847 78.3831Z" fill="#6F6F6F"/>
<path d="M161.558 65.08H160.546C160.658 65.08 160.771 65.08 160.771 65.1927L160.996 70.3783H161.108L161.333 65.1927C161.333 65.08 161.446 64.9673 161.558 65.08Z" fill="#6F6F6F"/>
<path d="M172.357 30.9227C184.168 35.4319 195.305 47.832 195.305 63.5013C195.305 82.4397 180.231 97.8835 161.108 97.8835V99.6871C180.231 99.6871 196.317 83.9051 196.317 64.4031C196.317 48.8466 186.418 35.7701 172.357 30.9227Z" fill="#6F6F6F"/>
<path d="M191.256 51.1009C183.382 32.9516 165.608 31.9371 164.596 31.8243H164.483C178.094 34.3044 186.756 43.2099 189.793 52.5664V52.6791C191.143 56.2864 191.818 60.1192 191.931 64.2901C192.043 68.2356 191.143 72.6321 189.456 76.6903C189.344 77.2539 189.231 77.9303 189.119 77.9303H190.918C196.318 67.7847 193.956 57.5264 191.256 51.1009Z" fill="#737B7F"/>
<path fill-rule="evenodd" clip-rule="evenodd" d="M161.109 30.8125C142.548 30.8125 127.587 46.0308 127.587 64.5183C127.587 83.0058 142.548 97.9987 161.109 97.9987C179.67 97.9987 194.631 83.0058 194.631 64.5183C194.631 45.9181 179.67 30.8125 161.109 30.8125ZM128.373 64.5174C128.373 55.4991 132.086 47.2699 138.048 41.2953C143.897 35.3207 152.109 31.6007 161.108 31.6007C170.107 31.6007 178.319 35.3207 184.169 41.2953C190.018 47.2699 193.731 55.4991 193.731 64.5174C193.731 73.5357 190.131 81.7649 184.169 87.6267C178.319 93.6013 170.107 97.2087 161.108 97.2087C152.109 97.2087 143.897 93.4886 137.935 87.6267C132.086 81.7649 128.373 73.5357 128.373 64.5174Z" fill="#6F6F6F"/>
<path d="M133.998 78.8325L156.946 62.2614C158.183 62.9378 160.208 63.8396 160.433 63.8396C160.658 63.9523 160.658 63.7269 160.658 63.7269L157.846 61.3596C157.508 61.1341 157.396 60.7959 157.396 60.4577L160.096 33.2902C159.983 33.4029 159.983 33.6283 159.871 33.7411C159.758 33.9665 159.758 34.0793 159.758 34.3047L155.821 61.4723L134.223 78.4943C134.11 78.607 133.998 78.7197 133.998 78.8325Z" fill="#6F6F6F"/>
</svg>
