<svg width="73" height="73" viewBox="0 0 73 73" fill="none" xmlns="http://www.w3.org/2000/svg">
<path fill-rule="evenodd" clip-rule="evenodd" d="M36.1064 71.6868C55.5673 71.6868 71.316 55.9048 71.316 36.4028C71.316 16.9008 55.5673 1.11877 36.1064 1.11877C16.6455 1.11877 0.896729 16.9008 0.896729 36.4028C0.896729 55.9048 16.6455 71.6868 36.1064 71.6868ZM3.03264 36.4014C3.03264 18.0266 17.769 3.2592 36.105 3.2592C54.441 3.2592 69.1773 18.0266 69.1773 36.4014C69.1773 54.6634 54.441 69.5435 36.105 69.5435C17.8814 69.5435 3.03264 54.7761 3.03264 36.4014Z" fill="#6F6F6F"/>
<path fill-rule="evenodd" clip-rule="evenodd" d="M3.03699 36.4058C3.03699 18.0311 17.7733 3.26367 36.1093 3.26367C54.4453 3.26367 69.1817 18.0311 69.1817 36.4058C69.1817 54.6679 54.4453 69.548 36.1093 69.548C17.8858 69.548 3.03699 54.7806 3.03699 36.4058ZM5.1729 36.4044C5.1729 53.5392 19.0093 67.4048 36.1079 67.4048C53.2065 67.4048 67.0429 53.5392 67.0429 36.4044C67.0429 19.2697 53.2065 5.40409 36.1079 5.40409C19.0093 5.40409 5.1729 19.2697 5.1729 36.4044Z" fill="#737B7F"/>
<path opacity="0.4" fill-rule="evenodd" clip-rule="evenodd" d="M72.1057 36.405C72.1057 16.5648 55.907 0.331909 36.1086 0.331909C16.3101 0.331909 0.11145 16.5648 0.11145 36.405C0.11145 56.2452 16.3101 72.4781 36.1086 72.4781C55.907 72.4781 72.1057 56.2452 72.1057 36.405ZM71.3172 36.404C71.3172 55.906 55.5684 71.688 36.1075 71.688C16.6466 71.688 0.897854 55.906 0.897854 36.404C0.897854 16.902 16.6466 1.11997 36.1075 1.11997C55.5684 1.11997 71.3172 16.902 71.3172 36.404Z" fill="#6F6F6F"/>
<path fill-rule="evenodd" clip-rule="evenodd" d="M36.1091 2.8125C17.5481 2.8125 2.58679 18.0308 2.58679 36.5183C2.58679 55.0058 17.5481 69.9987 36.1091 69.9987C54.6701 69.9987 69.6314 55.0058 69.6314 36.5183C69.6314 17.9181 54.6701 2.8125 36.1091 2.8125ZM3.3733 36.5174C3.3733 27.4991 7.0855 19.2699 13.0475 13.2953C18.8971 7.32071 27.1089 3.60067 36.1082 3.60067C45.1074 3.60067 53.3193 7.32071 59.1688 13.2953C65.0183 19.2699 68.7305 27.4991 68.7305 36.5174C68.7305 45.5357 65.1308 53.7649 59.1688 59.6267C53.3193 65.6013 45.1074 69.2087 36.1082 69.2087C27.1089 69.2087 18.8971 65.4886 12.935 59.6267C7.0855 53.7649 3.3733 45.5357 3.3733 36.5174Z" fill="#E1E3E1"/>
<path opacity="0.4" fill-rule="evenodd" clip-rule="evenodd" d="M14.1711 58.3853C20.0206 64.2472 27.7825 67.5163 36.1068 67.5163C44.4312 67.5163 52.193 64.2472 58.0426 58.3853C63.8921 52.5234 67.1543 44.7451 67.1543 36.4032C67.1543 28.0613 63.8921 20.2831 58.0426 14.4212C52.193 8.55929 44.4312 5.29016 36.1068 5.29016C27.7825 5.29016 20.0206 8.55929 14.1711 14.4212C8.32156 20.2831 5.05933 28.0613 5.05933 36.4032C5.05933 44.7451 8.32156 52.5234 14.1711 58.3853ZM57.3674 57.823C51.7428 63.4594 44.0934 66.6158 36.1066 66.6158C28.1197 66.6158 20.4703 63.4594 14.7333 57.7102C9.10876 52.0738 5.95902 44.4083 5.95902 36.4045C5.95902 28.4008 9.10876 20.7353 14.8458 15.2116C20.4703 9.57516 28.1197 6.41876 36.1066 6.41876C44.0934 6.41876 51.6303 9.46243 57.3674 15.2116C62.9919 20.848 66.1417 28.5135 66.1417 36.5173C66.1417 44.521 63.1044 52.0738 57.3674 57.823Z" fill="#E1E3E1"/>
<path d="M63.442 51.0583C62.8795 50.6074 41.1688 33.3599 41.1688 33.3599L36.1067 4.38867C35.7692 4.5014 35.3192 4.83959 35.0942 5.2905L31.4945 33.4726L9.10885 50.7201C9.10885 50.7201 8.65888 51.2837 8.4339 51.6219C8.32141 51.8474 8.32141 52.1856 8.32141 52.5238L35.9942 41.1382L63.6669 52.5238C63.8919 51.9601 63.6669 51.3965 63.442 51.0583Z" fill="#E1E3E1"/>
<path d="M36.3326 37.3063L36.1077 42.4918L61.5306 52.7501C62.4305 53.201 63.1055 52.9755 63.7804 52.5246L36.6701 37.1935C36.5576 37.0808 36.3326 37.1935 36.3326 37.3063Z" fill="#6F6F6F"/>
<path d="M36.3309 37.3063C36.3309 37.3063 37.7933 39.899 39.4807 41.7027C41.843 44.2954 44.9927 46.0991 44.9927 46.0991L61.5289 52.7501C62.4288 53.201 63.1038 52.9755 63.7787 52.5246L36.6684 37.1935C36.5559 37.0808 36.3309 37.1935 36.3309 37.3063Z" fill="#737B7F"/>
<path d="M63.6685 51.5097C63.6685 51.3969 63.556 51.2842 63.4435 51.0587L40.2704 34.0367L37.1206 36.0659C37.1206 36.0659 37.3456 36.1786 37.4581 36.0659C37.7956 35.9531 38.4705 35.8404 39.1454 36.0659C39.7079 36.2913 63.6685 51.6224 63.6685 51.5097C63.6685 51.6224 63.6685 51.6224 63.6685 51.5097Z" fill="#A4AAAE" fill-opacity="0.6"/>
<path d="M62.8802 50.4936L41.2819 33.3589L40.2695 34.0353L63.4427 51.17C63.3302 50.9445 63.1052 50.7191 62.8802 50.4936Z" fill="#6F6F6F"/>
<path d="M36.6693 35.6153L36.5568 35.728C36.5568 35.728 36.5568 35.9535 36.7818 35.8407C36.8943 35.728 40.1565 34.0371 41.2815 33.3607L37.3443 6.30585C37.2318 5.2913 36.7818 4.84038 35.9944 4.5022L36.4443 35.8407L36.6693 35.6153Z" fill="#6F6F6F"/>
<path fill-rule="evenodd" clip-rule="evenodd" d="M34.7576 7.77177V6.3063C34.8701 5.74266 34.9826 5.29174 35.3201 5.06628L35.2076 7.20813L34.1952 34.7139L32.7328 33.5866C32.3953 33.3611 32.2828 33.023 32.2828 32.6848L34.7576 7.77177ZM32.0582 34.0366L33.408 35.1639C33.7455 35.502 33.633 35.7275 33.1831 35.953L9.2225 51.0586L8.43506 51.5095C8.54755 51.0586 9.2225 50.6077 9.2225 50.6077L32.0582 34.0366Z" fill="#A4AAAE" fill-opacity="0.6"/>
<path d="M35.7692 37.3063C35.7692 37.1935 35.6567 37.0808 35.5442 37.1935L8.32141 52.6373C8.99636 53.0883 9.6713 53.201 10.5712 52.8628L35.9942 42.6045L35.7692 37.3063Z" fill="#6F6F6F"/>
<path d="M36.5575 35.7269L36.67 35.6141L36.5575 35.7269C36.5575 35.7269 36.5575 35.8396 36.67 35.8396H36.7825C36.895 35.7269 40.1572 34.0359 41.2821 33.3596L40.8322 30.0904L37.3449 6.30472C37.3449 5.8538 37.2324 5.51562 37.0075 5.29016C37.0075 5.29016 38.6948 28.0613 38.6948 30.5413C38.6948 33.8105 36.5575 35.7269 36.5575 35.7269H36.5575Z" fill="#737B7F"/>
<path d="M35.7692 37.3063C35.7692 37.1935 35.6567 37.0808 35.5442 37.1935L8.32141 52.6373C8.99636 53.0883 9.6713 53.201 10.5712 52.8628L35.9942 42.6045L35.7692 37.3063Z" fill="#737B7F" fill-opacity="0.8"/>
<path opacity="0.8" d="M10.5718 52.7511L35.9947 42.4928L35.7697 37.5327C35.3198 38.8855 34.5323 40.3509 32.395 41.4782C30.8201 42.38 15.7463 49.8201 10.3468 52.4129C10.0093 52.6383 9.55933 52.7511 9.33435 52.8638C9.78431 53.0892 10.1218 52.9765 10.5718 52.7511Z" fill="#737B7F"/>
<path d="M36.6693 35.6153L36.5568 35.728C36.5568 35.728 36.5568 35.9535 36.7818 35.8407C36.8943 35.728 40.1565 34.0371 41.2815 33.3607L37.3443 6.30585C37.2318 5.2913 36.7818 4.84038 35.9944 4.5022L36.4443 35.8407L36.6693 35.6153Z" fill="#737B7F"/>
<path d="M36.6693 35.6153L36.5568 35.728C36.5568 35.728 36.5568 35.9535 36.7818 35.8407C36.8943 35.728 40.1565 34.0371 41.2815 33.3607L37.3443 6.30585C37.2318 5.2913 36.7818 4.84038 35.9944 4.5022L36.4443 35.8407L36.6693 35.6153Z" fill="#737B7F"/>
<path d="M5.84706 50.3831C5.05963 48.5794 0.559988 39.7866 5.50959 22.8773H3.59724C2.58482 26.2592 1.79739 28.2883 1.34742 31.332C1.34742 31.332 1.12244 32.4592 1.00995 33.6993C0.897461 34.9393 0.897461 35.6156 0.897461 36.4047C0.897461 43.1684 2.58482 47.1139 2.58482 47.1139C4.38468 52.7504 7.53443 57.8232 11.8091 61.6559C15.5213 64.925 21.2583 67.4051 25.9829 68.3069C25.1955 68.1942 11.6966 62.445 5.84706 50.3831Z" fill="#6F6F6F"/>
<path d="M36.5582 37.08H35.5458C35.6583 37.08 35.7708 37.08 35.7708 37.1927L35.9957 42.3783H36.1082L36.3332 37.1927C36.3332 37.08 36.4457 36.9673 36.5582 37.08Z" fill="#6F6F6F"/>
<path d="M47.3568 2.92273C59.1683 7.43187 70.3049 19.832 70.3049 35.5013C70.3049 54.4397 55.2311 69.8835 36.1077 69.8835V71.6871C55.2311 71.6871 71.3173 55.9051 71.3173 36.4031C71.3173 20.8466 61.4181 7.77005 47.3568 2.92273Z" fill="#6F6F6F"/>
<path d="M66.2559 23.1009C58.3815 4.95163 40.6079 3.93707 39.5955 3.82434H39.483C53.0944 6.30437 61.7562 15.2099 64.7935 24.5664V24.6791C66.1434 28.2864 66.8183 32.1192 66.9308 36.2901C67.0433 40.2356 66.1434 44.6321 64.456 48.6903C64.3435 49.2539 64.231 49.9303 64.1185 49.9303H65.9184C71.318 39.7847 68.9557 29.5264 66.2559 23.1009Z" fill="#737B7F"/>
<path fill-rule="evenodd" clip-rule="evenodd" d="M36.1091 2.8125C17.5481 2.8125 2.58679 18.0308 2.58679 36.5183C2.58679 55.0058 17.5481 69.9987 36.1091 69.9987C54.6701 69.9987 69.6314 55.0058 69.6314 36.5183C69.6314 17.9181 54.6701 2.8125 36.1091 2.8125ZM3.3733 36.5174C3.3733 27.4991 7.0855 19.2699 13.0475 13.2953C18.8971 7.32071 27.1089 3.60067 36.1082 3.60067C45.1074 3.60067 53.3193 7.32071 59.1688 13.2953C65.0183 19.2699 68.7305 27.4991 68.7305 36.5174C68.7305 45.5357 65.1308 53.7649 59.1688 59.6267C53.3193 65.6013 45.1074 69.2087 36.1082 69.2087C27.1089 69.2087 18.8971 65.4886 12.935 59.6267C7.0855 53.7649 3.3733 45.5357 3.3733 36.5174Z" fill="#6F6F6F"/>
<path d="M8.9978 50.8325L31.946 34.2614C33.1834 34.9378 35.2082 35.8396 35.4332 35.8396C35.6582 35.9523 35.6582 35.7269 35.6582 35.7269L32.8459 33.3596C32.5084 33.1341 32.3959 32.7959 32.3959 32.4577L35.0957 5.29016C34.9832 5.40289 34.9832 5.62835 34.8707 5.74108C34.7582 5.96653 34.7582 6.07926 34.7582 6.30472L30.821 33.4723L9.22278 50.4943C9.11029 50.607 8.9978 50.7197 8.9978 50.8325Z" fill="#6F6F6F"/>
</svg>
