<svg width="73" height="73" viewBox="0 0 73 73" fill="none" xmlns="http://www.w3.org/2000/svg">
<path d="M36.5191 0.655273C16.639 0.655273 0.521973 16.8063 0.521973 36.7284C0.521973 56.6505 16.639 72.8015 36.5191 72.8015C56.3992 72.8015 72.5162 56.6505 72.5162 36.7284C72.5162 16.8063 56.3992 0.655273 36.5191 0.655273ZM70.1753 36.7284C70.1753 55.3546 55.1081 70.4557 36.5191 70.4557C17.93 70.4557 2.8628 55.3546 2.8628 36.7284C2.8628 18.1022 17.9321 3.00104 36.5191 3.00104C55.106 3.00104 70.1753 18.1022 70.1753 36.7284Z" fill="#6F6F6F"/>
<path d="M36.5196 15.3523V16.5243C47.6359 16.5243 56.6816 25.5871 56.6816 36.729H57.8512C57.8512 24.9237 48.3 15.3523 36.5196 15.3523ZM36.5196 56.9336C25.4033 56.9336 16.3576 47.8709 16.3576 36.729H15.188C15.188 48.5342 24.7392 58.1056 36.5196 58.1056" fill="#6F6F6F"/>
<path d="M53.7548 21.5049C54.2433 22.0268 54.9474 22.8686 55.3428 23.3799L62.6253 18.7797C62.2616 18.3062 61.6822 17.5865 61.2487 17.0794L56.6369 20.1139L56.3219 20.3833L56.5566 20.0424L58.5929 15.9977L57.1529 14.5646L53.0866 16.5912L52.7441 16.8248L53.0169 16.5112L56.0681 11.9236C55.531 11.4691 55.0151 11.0524 54.3575 10.5474L49.7351 17.7886C50.3208 18.2368 51.0926 18.8955 51.5853 19.3437L55.937 17.0962L56.2161 16.8921L56.011 17.1699L53.7548 21.5049Z" fill="#6F6F6F"/>
<path d="M37.2298 12.3283L39.2196 7.89226L39.3464 7.49874L39.3105 7.90909L39.5198 13.8372C40.2176 13.9024 40.9387 13.9992 41.6491 14.117L41.3256 5.33753C40.3318 5.2281 39.3422 5.15024 38.3526 5.10815L36.3924 9.95035L36.3227 10.3102L36.2529 9.95035L34.2948 5.10815C33.3052 5.15024 32.3156 5.2281 31.3218 5.33753L30.9983 14.117C31.7088 13.9992 32.4298 13.9045 33.1276 13.8372L33.337 7.90909L33.301 7.49874L33.4279 7.89226L35.4176 12.3283H37.2298Z" fill="#6F6F6F"/>
<path d="M21.136 19.3254C22.2863 18.1196 22.9376 16.7265 21.7873 15.3965C21.1614 14.6747 20.1104 14.5169 19.2393 14.8725L19.1526 14.9062L19.1801 14.8304C19.309 14.4874 19.3915 13.3931 18.4548 12.6377C17.998 12.2694 17.425 12.1326 16.8456 12.1915C15.7651 12.301 14.9341 13.0354 12.6716 15.5459C11.9886 16.3035 10.9947 17.4988 10.3984 18.2732L16.613 24.1402C18.6726 21.8717 19.512 21.0279 21.136 19.3254ZM13.0268 17.8902C14.2786 16.3666 15.6086 14.9841 16.2113 14.4369C16.4016 14.2644 16.6088 14.0918 16.8604 14.0245C17.2685 13.9129 17.6893 14.2012 17.7845 14.6179C17.8796 15.0367 17.6153 15.4344 17.3214 15.7627C16.6595 16.5055 14.2321 19.0329 14.2321 19.0329L13.0268 17.8902ZM15.4606 20.1882C15.4606 20.1882 17.8246 17.7008 18.5964 16.9054C18.9031 16.5897 19.0997 16.3982 19.3112 16.2951C19.5839 16.1625 19.8821 16.1352 20.1485 16.3119C20.4107 16.4866 20.5312 16.7875 20.4657 17.0863C20.3875 17.442 20.0956 17.7808 19.8546 18.0396C19.529 18.3868 16.7251 21.373 16.7209 21.3772L15.4606 20.1882Z" fill="#6F6F6F"/>
<path d="M36.5196 15.3523V36.729H15.188C15.188 24.9152 24.7307 15.3523 36.5196 15.3523Z" fill="#737B7F"/>
<path d="M57.8507 36.7284C57.8507 48.5421 48.3079 58.1051 36.519 58.1051V36.7284H57.8507Z" fill="#737B7F"/>
</svg>
