<svg width="107" height="41" viewBox="0 0 107 41" fill="none" xmlns="http://www.w3.org/2000/svg">
<path fill-rule="evenodd" clip-rule="evenodd" d="M53.8055 40.5795C82.9719 40.5795 106.619 31.6327 106.619 20.5699C106.619 9.50704 82.9719 0.526367 53.8055 0.526367C24.6051 0.526367 0.957642 9.50704 0.957642 20.5699C0.957642 31.6333 24.6051 40.5795 53.8055 40.5795Z" fill="#737B7F"/>
<path fill-rule="evenodd" clip-rule="evenodd" d="M53.8059 38.5282C25.7978 38.5282 3.03699 30.538 3.03699 20.5675C3.03699 10.6316 25.7978 2.53894 53.8059 2.53894C81.8823 2.53894 104.609 10.6316 104.609 20.5675C104.609 30.538 81.8823 38.5282 53.8059 38.5282Z" fill="white"/>
<path fill-rule="evenodd" clip-rule="evenodd" d="M53.8069 37.1314C80.9632 37.1314 103.008 29.7219 103.008 20.5703C103.008 11.4538 80.9632 4.04431 53.8069 4.04431C26.6168 4.04431 4.6394 11.4538 4.6394 20.5703C4.63997 29.7219 26.6168 37.1314 53.8069 37.1314Z" fill="#737B7F"/>
<path fill-rule="evenodd" clip-rule="evenodd" d="M66.689 23.8813C69.0057 21.6962 70.2996 19.4086 73.6396 19.4425C75.6496 19.4765 76.1602 21.0815 76.5007 21.7646L80.8964 14.3212H83.5881L76.2969 27.2624C76.1602 27.5352 75.8191 28.0473 75.8535 28.4571C75.923 29.1057 76.7402 28.9353 76.4335 28.9353C77.8986 28.8669 80.5897 26.0671 81.2375 25.3845C81.373 25.213 81.6125 24.9063 81.748 24.9063C81.8847 24.9063 82.1575 25.0427 82.1575 25.2476C82.1575 25.3845 81.8508 25.8961 81.6125 26.2035C80.2491 27.911 78.0008 30.5398 75.4452 30.6083C74.1846 30.6083 73.7068 30.0961 73.5368 29.1063C72.9579 29.6179 70.9812 30.5059 68.9712 30.5059C67.3012 30.4719 66.6195 29.4815 66.2795 28.6965C65.9728 28.0479 65.8362 27.092 66.0745 26.1361C65.1545 26.6143 64.3028 26.6823 63.0761 26.6483C61.6444 26.6138 60.7583 25.9652 60.3161 24.2917C58.6805 27.2969 58.6116 27.3988 56.9427 30.5404H54.0466L57.7605 24.2237C58.2383 23.3697 58.4766 22.6872 58.6461 21.9707C58.7488 21.5603 58.4422 21.1845 57.9988 21.1511C57.5222 21.1511 56.7394 21.6294 55.9888 22.3459C55.9888 22.3459 54.081 24.3947 52.6838 26.4774C51.3543 28.4582 49.072 30.7113 46.5848 30.7113C44.7786 30.7113 43.1431 29.7215 42.8025 27.8091C42.8025 27.8091 42.632 28.2528 41.0303 29.1747C40.8941 29.2427 40.5536 29.4475 40.4519 29.3796C40.1447 29.1068 39.9747 28.765 39.9402 28.5256C40.0425 28.5601 40.2469 28.3892 40.8941 27.877C42.1547 26.9211 42.4275 26.1689 42.4275 26.1689C42.7336 25.5203 43.2797 24.496 43.6542 23.7789C44.677 21.7301 46.4481 19.6474 49.3443 19.545C49.8215 19.545 49.9576 19.7498 50.0598 19.9208C50.3321 20.1256 50.2304 20.5354 50.2304 20.5354C48.1859 20.8427 46.7892 22.0374 45.937 23.1988C45.4264 23.9498 44.8809 25.1791 44.7786 26.0665C44.5742 27.6031 45.2898 28.6269 46.3459 28.8663C48.322 29.1736 49.9576 27.7395 51.2526 25.5203C51.5938 24.9397 51.8321 23.4371 51.8321 22.6175C51.8321 21.798 51.3887 20.9446 51.0482 20.6027C51.0482 20.0226 51.4226 19.6468 51.8654 19.6468C52.0015 19.6468 52.1382 19.6468 52.2743 19.7832C52.956 20.4663 53.331 21.7641 53.331 22.7539C53.331 23.0958 53.331 23.437 53.2626 23.7789C54.6938 22.0374 56.4994 19.7838 57.8972 19.3401C58.1694 19.2037 58.4422 19.2037 58.7144 19.2037C61.27 19.1352 60.9294 21.4573 60.9294 21.4573C62.2917 19.8868 63.2461 19.3061 64.5067 19.374C65.8701 19.4425 66.3467 20.399 66.3467 21.15C66.3123 22.0374 65.6662 23.0618 64.5423 23.0958C63.5528 23.0958 62.9739 22.6175 62.6672 21.7301C62.02 21.9695 61.7139 22.4132 61.5772 23.3007C61.3722 24.4275 62.2245 25.3155 63.3145 25.3155C65.1889 25.316 66.0073 24.496 66.689 23.8813ZM68.7329 9.16528C68.7329 10.2581 64.9162 12.3409 61.6789 12.3409C56.6366 12.3409 51.3893 9.91631 48.9709 9.37016C46.347 8.75553 43.962 8.24334 42.0875 8.24334C35.5113 8.24334 32.5807 11.0777 32.7174 13.6726C32.7857 14.7309 33.6368 15.414 34.898 15.1746C36.2613 14.9358 38.1691 13.6381 38.6464 12.5112C38.7486 12.2724 39.0214 12.2379 39.1236 12.3064C39.328 12.4773 39.2597 12.7161 39.2597 12.7161C39.0891 14.0478 37.0447 17.7356 33.5013 17.7356C31.5251 17.7356 30.1962 15.8917 30.2301 14.0818C30.264 10.7013 33.7057 7.28687 42.1897 7.28687C43.7909 7.28687 45.597 7.42326 47.5737 7.7651C49.8559 8.17485 55.546 9.13076 60.18 9.19924C61.8845 9.19924 64.065 9.26772 65.8367 8.99436C67.7106 8.68705 67.3017 8.61857 68.0518 8.61857C68.7329 8.61857 68.7329 8.89192 68.7329 9.16528Z" fill="white"/>
<path fill-rule="evenodd" clip-rule="evenodd" d="M73.7739 21.0479C72.5805 20.9115 71.081 21.9359 69.8548 23.4386C69.2415 24.1896 68.5942 25.6238 68.4914 26.4772C68.3559 27.3313 68.5942 28.1847 68.9009 28.4236C69.2076 28.6624 70.571 29.3795 72.6833 27.2288C73.8756 26.0335 75.0339 24.0872 75.0339 24.0872L74.6589 23.9842C75.3745 22.653 75.2373 21.2183 73.7739 21.0479Z" fill="#737B7F"/>
<path fill-rule="evenodd" clip-rule="evenodd" d="M48.8662 17.0188C48.8662 17.3946 49.3767 17.7019 49.82 17.7364C49.7178 18.1116 49.7517 18.2826 49.5817 18.2486C48.5595 18.2486 48.1506 17.2582 48.1506 17.2582C46.7884 17.497 45.4595 17.6679 42.7672 17.9413C35.9866 28.9363 33.8744 30.7462 29.7171 30.7462C26.7526 30.7462 24.1293 28.7999 24.0609 25.3169C24.0265 23.2002 25.7304 20.6047 28.8993 19.8192C29.2743 19.8192 29.4104 19.9561 29.4104 20.161C29.4104 20.298 29.2743 20.4683 28.9671 20.6047C28.0471 20.9466 26.446 22.7559 26.446 24.4295C26.446 25.6927 27.2299 27.0929 28.5582 27.3997C28.9332 27.5027 29.2743 27.4682 29.6149 27.4682C32.9199 27.4682 36.6338 23.7464 40.6544 18.0783C40.0072 18.1122 37.2472 18.4201 36.5655 19.2051C36.2594 19.4439 36.0549 19.3075 35.9866 19.0342C35.9866 18.9657 36.0888 18.7268 36.1916 18.5899C37.2816 17.3606 40.5528 17.0878 41.3361 16.9854C44.4028 12.2732 48.355 9.33638 49.1728 9.37091C49.3089 9.37091 49.6162 9.57579 49.4795 9.91706C49.445 9.98554 49.1045 10.3608 48.9689 10.4632C48.2873 11.0779 45.97 12.5805 43.4489 16.8484C45.4933 16.746 47.8784 16.3362 47.8784 16.3362C47.8784 16.3362 47.7423 15.8925 47.7423 15.5167C47.8445 14.0486 48.6962 13.1606 49.7867 13.3315C50.4006 13.434 50.809 13.9462 50.809 14.4923C50.809 15.073 50.3662 15.9265 49.9228 16.3362C49.6156 16.5745 49.2745 16.8139 48.8662 17.0188Z" fill="white"/>
<path fill-rule="evenodd" clip-rule="evenodd" d="M48.6943 16.2687C48.6943 16.2687 49.0354 16.3032 49.546 15.7225C49.7504 15.5176 50.0916 14.9029 50.0232 14.4931C49.9888 14.2882 49.8871 14.0494 49.6488 14.0833C49.1371 14.1863 48.8304 14.4252 48.6943 14.9374C48.5243 15.4836 48.5926 15.8595 48.6943 16.2687Z" fill="#737B7F"/>
</svg>
