<svg width="119" height="53" viewBox="0 0 119 53" fill="none" xmlns="http://www.w3.org/2000/svg">
<path fill-rule="evenodd" clip-rule="evenodd" d="M59.9188 48.2724C47.6943 48.2724 37.7956 38.3528 37.7956 26.1025C37.7956 13.8522 47.6943 3.93254 59.9188 3.93254C72.1433 3.93254 82.042 13.8522 82.042 26.1025C82.042 38.3528 72.1433 48.2724 59.9188 48.2724ZM118.914 12.1184H81.7017C77.1069 4.8705 69.0234 0.0670166 59.8337 0.0670166C50.6441 0.0670166 42.5606 4.8705 37.9658 12.1184H0.923584L4.69588 15.8986H35.952C35.3847 17.2629 34.9309 18.6841 34.5906 20.1621H8.95034L12.7226 23.9423H34.0233C33.9666 24.6245 33.9382 25.3351 33.9382 26.0456C33.9382 26.7846 33.9666 27.4952 34.0233 28.2058H16.9771L20.7494 31.986H34.6189C34.9593 33.464 35.4131 34.8852 36.0087 36.2495H24.9755L28.7478 40.0298H38.0225C42.6173 47.2492 50.7008 52.0243 59.8621 52.0243C69.0517 52.0243 77.1069 47.2208 81.7017 40.0298H91.1182L94.8905 36.2495H83.6587C84.226 34.8852 84.7082 33.464 85.0485 31.986H99.1166L102.889 28.2058H85.6442C85.7009 27.4952 85.7292 26.7846 85.7292 26.0456C85.7292 25.3351 85.7009 24.6245 85.6442 23.9423H107.143L110.916 20.1621H85.0769C84.7365 18.6841 84.2827 17.2629 83.7155 15.8986H115.17L118.914 12.1184ZM70.0728 28.6037L70.1012 20.0484H72.3986V31.7302L69.619 31.7871L64.9391 23.516V31.7302H62.6417V20.0484H65.3929L70.0728 28.6037ZM48.4318 29.1437L51.4099 20.0484H54.8135V31.7302H52.3175V23.0612L49.7081 31.7302H47.1271L44.5177 23.0612V31.7302H42.0217V20.0484H45.4253L48.4318 29.1437ZM59.8905 20.0484V31.7302H57.5363V20.0484H59.8905ZM77.4756 20.0484V31.7302H75.1214V20.0484H77.4756Z" fill="#737B7F"/>
</svg>
