<svg width="74" height="74" viewBox="0 0 74 74" fill="none" xmlns="http://www.w3.org/2000/svg">
<path d="M36.9699 73.4945L47.1537 16.0994C56.8606 16.0994 59.9224 17.1661 60.3645 21.5199C60.3645 21.5199 66.8762 19.0868 70.1605 14.1453C57.3443 8.19403 44.4671 7.92563 44.4671 7.92563L36.9529 17.097L36.9699 17.0959L29.4558 7.92419C29.4558 7.92419 16.5782 8.19288 3.76379 14.1441C7.04519 19.0857 13.5595 21.5188 13.5595 21.5188C14.0041 17.1646 17.0622 16.098 26.704 16.0911L36.9699 73.4945Z" fill="#737B7F"/>
<path d="M36.9659 5.27587C47.326 5.19648 59.1842 6.88192 71.3234 12.1839C72.9459 9.25748 73.363 7.96412 73.363 7.96412C60.093 2.70297 47.6658 0.902464 36.9645 0.8573C26.2637 0.902464 13.8371 2.70326 0.568848 7.96412C0.568848 7.96412 1.16077 9.55723 2.60698 12.1839C14.7439 6.88192 26.6042 5.19648 36.9645 5.27587H36.9659Z" fill="#737B7F"/>
</svg>
