<svg width="739" height="700" viewBox="0 0 739 700" fill="none" xmlns="http://www.w3.org/2000/svg">
<path d="M12 700C5.37258 700 0 694.627 0 688L0 461.557C0 457.981 1.59531 454.59 4.3511 452.311L17.6539 441.306C20.4097 439.027 22.005 435.636 22.005 432.06V288.944L22.005 145.383C22.005 142.065 20.6312 138.895 18.2101 136.626L3.79488 123.119C1.37375 120.85 0 117.68 0 114.362L0 12C0 5.37256 5.37258 0 12 0H727C733.627 0 739 5.37256 739 12V177.605V355.211V688C739 694.627 733.627 700 727 700H12Z" fill="#0454FD"/>
</svg>
