<svg width="1920" height="34" viewBox="0 0 1920 34" fill="none" xmlns="http://www.w3.org/2000/svg">
<path d="M1224.32 16.93C1224.24 16.9758 1224.15 17 1224.06 17H1189.91C1189.83 17 1189.74 16.9789 1189.67 16.9386L1178.71 10.9386C1178.26 10.69 1178.44 10 1178.95 10H1234.18C1234.69 10 1234.87 10.6706 1234.43 10.93L1224.32 16.93Z" fill="#D9D9D9" fill-opacity="0.6"/>
<path d="M1920 9H421.847L383.216 33H0" stroke="#C4C4C4" stroke-opacity="0.6"/>
<path d="M144.262 27.1116C144.351 27.0394 144.463 27 144.577 27H165.817C165.925 27 166.03 27.035 166.117 27.0997L172.797 32.0997C173.182 32.3878 172.978 33 172.497 33H138.411C137.94 33 137.73 32.4083 138.096 32.1116L144.262 27.1116Z" fill="#D9D9D9" fill-opacity="0.6"/>
<path d="M385.043 11.8347C384.934 11.9263 384.859 12.0581 384.845 12.2166C384.818 12.523 385.049 12.7988 385.356 12.8256L391.21 13.3378L390.697 19.1915C390.671 19.4979 390.902 19.7736 391.208 19.8005C391.515 19.8273 391.791 19.5959 391.817 19.2894L392.379 12.8757C392.405 12.5693 392.174 12.2935 391.868 12.2667L385.454 11.7056C385.295 11.6917 385.152 11.7431 385.043 11.8347Z" fill="#C4C4C4" fill-opacity="0.8"/>
<path d="M391.424 12.5537L381.755 20.6673C381.519 20.8649 381.488 21.2242 381.685 21.4597C381.883 21.6953 382.242 21.7267 382.478 21.5291L392.147 13.4155C392.383 13.2178 392.414 12.8586 392.217 12.623C392.019 12.3874 391.66 12.356 391.424 12.5537Z" fill="#C4C4C4" fill-opacity="0.8"/>
<path opacity="0.8" d="M299.14 19.8359L298.041 23H295.448L299.966 10.6162H303.024L307.524 23H304.958L303.859 19.8359H299.14ZM301.495 12.5234C301.437 12.7578 301.354 13.0391 301.249 13.3672C301.144 13.6953 301.067 13.9268 301.021 14.0615L299.72 17.8848H303.279L301.943 13.9824C301.861 13.7422 301.785 13.499 301.715 13.2529C301.645 13.0068 301.571 12.7637 301.495 12.5234ZM314.362 23.1758C313.226 23.1758 312.265 22.9912 311.479 22.6221C310.694 22.2471 310.1 21.7021 309.695 20.9873C309.291 20.2666 309.089 19.3906 309.089 18.3594V10.6162H311.682V18.1572C311.682 19.1357 311.913 19.8799 312.376 20.3896C312.845 20.8936 313.53 21.1455 314.433 21.1455C315.358 21.1455 316.07 20.8818 316.568 20.3545C317.066 19.8213 317.315 19.0596 317.315 18.0693V10.6162H319.908V18.2275C319.908 19.2705 319.688 20.1611 319.249 20.8994C318.815 21.6377 318.186 22.2031 317.359 22.5957C316.533 22.9824 315.534 23.1758 314.362 23.1758ZM328.003 21.1367C329.573 21.1367 330.66 20.3516 331.264 18.7812L333.522 19.6338C333.036 20.8291 332.321 21.7197 331.378 22.3057C330.44 22.8857 329.315 23.1758 328.003 23.1758C326.679 23.1758 325.551 22.9238 324.619 22.4199C323.688 21.9102 322.976 21.1748 322.483 20.2139C321.997 19.2529 321.754 18.0986 321.754 16.751C321.754 15.3916 321.988 14.2432 322.457 13.3057C322.926 12.3682 323.617 11.6562 324.531 11.1699C325.445 10.6777 326.564 10.4316 327.889 10.4316C329.342 10.4316 330.525 10.7246 331.439 11.3105C332.354 11.8906 332.995 12.7461 333.364 13.877L331.079 14.501C330.886 13.8799 330.505 13.3877 329.937 13.0244C329.374 12.6553 328.709 12.4707 327.941 12.4707C326.77 12.4707 325.879 12.834 325.27 13.5605C324.666 14.2871 324.364 15.3506 324.364 16.751C324.364 17.7002 324.502 18.5 324.777 19.1504C325.059 19.8008 325.469 20.2959 326.008 20.6357C326.553 20.9697 327.218 21.1367 328.003 21.1367ZM340.817 12.6201V23H338.225V12.6201H334.226V10.6162H344.825V12.6201H340.817ZM348.824 10.6162V23H346.231V10.6162H348.824ZM363.282 16.751C363.282 18.04 363.021 19.168 362.5 20.1348C361.984 21.0957 361.255 21.8428 360.312 22.376C359.374 22.9092 358.272 23.1758 357.007 23.1758C355.712 23.1758 354.599 22.918 353.667 22.4023C352.735 21.8809 352.021 21.1396 351.522 20.1787C351.024 19.2178 350.775 18.0752 350.775 16.751C350.775 15.4268 351.021 14.293 351.514 13.3496C352.012 12.4062 352.727 11.6855 353.658 11.1875C354.596 10.6836 355.718 10.4316 357.024 10.4316C358.337 10.4316 359.459 10.6865 360.391 11.1963C361.322 11.7002 362.037 12.4238 362.535 13.3672C363.033 14.3105 363.282 15.4385 363.282 16.751ZM360.637 16.751C360.637 15.415 360.32 14.3691 359.688 13.6133C359.055 12.8516 358.167 12.4707 357.024 12.4707C355.864 12.4707 354.968 12.8486 354.335 13.6045C353.702 14.3545 353.386 15.4033 353.386 16.751C353.386 17.6533 353.532 18.4326 353.825 19.0889C354.118 19.7451 354.534 20.252 355.073 20.6094C355.618 20.9609 356.263 21.1367 357.007 21.1367C358.167 21.1367 359.061 20.7559 359.688 19.9941C360.32 19.2324 360.637 18.1514 360.637 16.751ZM367.554 15.6963V23H365.251V10.6162H368.213L373.688 20.2314C373.583 19.3408 373.53 18.5352 373.53 17.8145V10.6162H375.833V23H372.792L367.396 13.4639C367.448 13.9268 367.486 14.3457 367.51 14.7207C367.539 15.0898 367.554 15.415 367.554 15.6963Z" fill="#C4C4C4" fill-opacity="0.8"/>
<path d="M541.465 0.104957C541.552 0.0369246 541.66 0 541.771 0H575.273C575.377 0 575.479 0.0326953 575.564 0.0934979L586.734 8.0935C587.129 8.37653 586.929 9 586.443 9H531.46C530.984 9 530.777 8.39698 531.154 8.10496L541.465 0.104957Z" fill="#D9D9D9" fill-opacity="0.6"/>
</svg>
