<svg width="1224" height="33" viewBox="0 0 1224 33" fill="none" xmlns="http://www.w3.org/2000/svg">
<path d="M1246 17H315L285 32H0" stroke="#C4C4C4" stroke-opacity="0.6"/>
<path d="M51.7133 29.0333C51.7706 29.0113 51.8315 29 51.8928 29H74.4639C74.5209 29 74.5774 29.0097 74.6312 29.0288L80.2645 31.0288C80.7938 31.2167 80.6589 32 80.0972 32H46.6928C46.1386 32 45.996 31.2323 46.5133 31.0333L51.7133 29.0333Z" fill="#D9D9D9" fill-opacity="0.6"/>
<path d="M328.874 13.084C328.956 13.0292 329.053 13 329.151 13H346.358C346.451 13 346.542 13.0257 346.621 13.0742L351.496 16.0742C351.925 16.3384 351.738 17 351.233 17H324.651C324.157 17 323.962 16.3584 324.374 16.084L328.874 13.084Z" fill="#D9D9D9" fill-opacity="0.6"/>
<path d="M7.04331 6.33471C6.93415 6.42631 6.85873 6.55812 6.84486 6.71662C6.81806 7.02304 7.04946 7.29881 7.35588 7.32562L13.2096 7.83776L12.6974 13.6915C12.6706 13.9979 12.902 14.2736 13.2085 14.3005C13.5149 14.3273 13.7907 14.0959 13.8175 13.7894L14.3786 7.37573C14.4054 7.06931 14.174 6.79354 13.8676 6.76673L7.45387 6.2056C7.29538 6.19174 7.15247 6.24312 7.04331 6.33471Z" fill="#C4C4C4" fill-opacity="0.8"/>
<path d="M13.4242 7.05391L3.75482 15.1675C3.51926 15.3652 3.48783 15.7244 3.68549 15.96C3.88315 16.1955 4.2424 16.227 4.47796 16.0293L14.1474 7.91571C14.3829 7.71806 14.4143 7.35881 14.2167 7.12325C14.019 6.88769 13.6598 6.85626 13.4242 7.05391Z" fill="#C4C4C4" fill-opacity="0.8"/>
<path opacity="0.8" d="M24.1396 14.8359L23.041 18H20.4482L24.9658 5.61621H28.0244L32.5244 18H29.958L28.8594 14.8359H24.1396ZM26.4951 7.52344C26.4365 7.75781 26.3545 8.03906 26.249 8.36719C26.1436 8.69531 26.0674 8.92676 26.0205 9.06152L24.7197 12.8848H28.2793L26.9434 8.98242C26.8613 8.74219 26.7852 8.49902 26.7148 8.25293C26.6445 8.00684 26.5713 7.76367 26.4951 7.52344ZM43.5547 5.61621L39.002 18H36.374L31.7949 5.61621H34.502L37.0508 13.5703C37.1328 13.8281 37.2266 14.1533 37.332 14.5459C37.4434 14.9326 37.5664 15.3867 37.7012 15.9082C37.8945 15.1758 38.0322 14.6455 38.1143 14.3174C38.2021 13.9893 38.2754 13.7402 38.334 13.5703L40.874 5.61621H43.5547ZM46.4814 14.8359L45.3828 18H42.79L47.3076 5.61621H50.3662L54.8662 18H52.2998L51.2012 14.8359H46.4814ZM48.8369 7.52344C48.7783 7.75781 48.6963 8.03906 48.5908 8.36719C48.4854 8.69531 48.4092 8.92676 48.3623 9.06152L47.0615 12.8848H50.6211L49.2852 8.98242C49.2031 8.74219 49.127 8.49902 49.0566 8.25293C48.9863 8.00684 48.9131 7.76367 48.8369 7.52344ZM59.1465 5.61621V18H56.5537V5.61621H59.1465ZM70.8008 15.9961V18H61.5635V5.61621H64.1562V15.9961H70.8008ZM75.5029 14.8359L74.4043 18H71.8115L76.3291 5.61621H79.3877L83.8877 18H81.3213L80.2227 14.8359H75.5029ZM77.8584 7.52344C77.7998 7.75781 77.7178 8.03906 77.6123 8.36719C77.5068 8.69531 77.4307 8.92676 77.3838 9.06152L76.083 12.8848H79.6426L78.3066 8.98242C78.2246 8.74219 78.1484 8.49902 78.0781 8.25293C78.0078 8.00684 77.9346 7.76367 77.8584 7.52344ZM96.5527 14.4668C96.5527 15.5918 96.1309 16.4619 95.2871 17.0771C94.4434 17.6924 93.2715 18 91.7715 18H85.5752V5.61621H91.2441C92.7559 5.61621 93.8984 5.87988 94.6719 6.40723C95.4512 6.92871 95.8408 7.70215 95.8408 8.72754C95.8408 9.43066 95.6445 10.0254 95.252 10.5117C94.8652 10.9922 94.2734 11.3174 93.4766 11.4873C94.4785 11.6045 95.2402 11.9209 95.7617 12.4365C96.2891 12.9463 96.5527 13.623 96.5527 14.4668ZM93.2305 9.0791C93.2305 8.52246 93.0518 8.12695 92.6943 7.89258C92.3428 7.6582 91.8184 7.54102 91.1211 7.54102H88.168V10.6084H91.1387C91.8711 10.6084 92.4014 10.4824 92.7295 10.2305C93.0635 9.97266 93.2305 9.58887 93.2305 9.0791ZM93.9512 14.2646C93.9512 13.1045 93.1191 12.5244 91.4551 12.5244H88.168V16.0752H91.5518C92.3838 16.0752 92.9902 15.9258 93.3711 15.627C93.7578 15.3223 93.9512 14.8682 93.9512 14.2646ZM107.82 15.9961V18H98.583V5.61621H101.176V15.9961H107.82ZM119.686 15.9961V18H109.587V5.61621H119.325V7.62012H112.18V10.7314H118.789V12.7354H112.18V15.9961H119.686ZM132.386 16.1367C133.956 16.1367 135.043 15.3516 135.646 13.7812L137.905 14.6338C137.419 15.8291 136.704 16.7197 135.761 17.3057C134.823 17.8857 133.698 18.1758 132.386 18.1758C131.062 18.1758 129.934 17.9238 129.002 17.4199C128.07 16.9102 127.358 16.1748 126.866 15.2139C126.38 14.2529 126.137 13.0986 126.137 11.751C126.137 10.3916 126.371 9.24316 126.84 8.30566C127.309 7.36816 128 6.65625 128.914 6.16992C129.828 5.67773 130.947 5.43164 132.271 5.43164C133.725 5.43164 134.908 5.72461 135.822 6.31055C136.736 6.89062 137.378 7.74609 137.747 8.87695L135.462 9.50098C135.269 8.87988 134.888 8.3877 134.319 8.02441C133.757 7.65527 133.092 7.4707 132.324 7.4707C131.152 7.4707 130.262 7.83398 129.652 8.56055C129.049 9.28711 128.747 10.3506 128.747 11.751C128.747 12.7002 128.885 13.5 129.16 14.1504C129.441 14.8008 129.852 15.2959 130.391 15.6357C130.936 15.9697 131.601 16.1367 132.386 16.1367ZM142.546 14.8359L141.447 18H138.854L143.372 5.61621H146.431L150.931 18H148.364L147.266 14.8359H142.546ZM144.901 7.52344C144.843 7.75781 144.761 8.03906 144.655 8.36719C144.55 8.69531 144.474 8.92676 144.427 9.06152L143.126 12.8848H146.686L145.35 8.98242C145.268 8.74219 145.191 8.49902 145.121 8.25293C145.051 8.00684 144.978 7.76367 144.901 7.52344ZM155.211 13.2979V18H152.618V5.61621H158.806C160.282 5.61621 161.422 5.93555 162.225 6.57422C163.027 7.20703 163.429 8.11816 163.429 9.30762C163.429 10.1748 163.183 10.9248 162.69 11.5576C162.198 12.1846 161.533 12.5977 160.695 12.7969L164.044 18H161.126L158.252 13.2979H155.211ZM160.818 9.41309C160.818 8.82129 160.628 8.37598 160.247 8.07715C159.866 7.77832 159.295 7.62891 158.533 7.62891H155.211V11.2852H158.604C159.33 11.2852 159.881 11.1211 160.256 10.793C160.631 10.4648 160.818 10.0049 160.818 9.41309ZM175.725 14.4316C175.725 15.6445 175.273 16.5732 174.371 17.2178C173.475 17.8564 172.156 18.1758 170.416 18.1758C167.281 18.1758 165.456 17.042 164.94 14.7744L167.445 14.3613C167.615 15.0176 167.946 15.4951 168.438 15.7939C168.931 16.0869 169.613 16.2334 170.486 16.2334C171.395 16.2334 172.074 16.0957 172.525 15.8203C172.977 15.5449 173.202 15.1318 173.202 14.5811C173.202 14.2295 173.1 13.9395 172.895 13.7109C172.689 13.4824 172.396 13.292 172.016 13.1396C171.828 13.0635 171.553 12.9814 171.189 12.8936C170.826 12.7998 170.375 12.6973 169.836 12.5859C169.215 12.4395 168.729 12.3164 168.377 12.2168C168.025 12.1113 167.744 12.0117 167.533 11.918C167.322 11.8184 167.117 11.71 166.918 11.5928C166.479 11.3291 166.136 10.9775 165.89 10.5381C165.644 10.0986 165.521 9.55078 165.521 8.89453C165.521 7.77539 165.939 6.91992 166.777 6.32812C167.621 5.73047 168.846 5.43164 170.451 5.43164C171.986 5.43164 173.138 5.67187 173.905 6.15234C174.679 6.63281 175.177 7.42676 175.399 8.53418L172.886 8.87695C172.757 8.34375 172.493 7.94238 172.095 7.67285C171.702 7.40332 171.137 7.26855 170.398 7.26855C169.613 7.26855 169.024 7.3916 168.632 7.6377C168.239 7.88379 168.043 8.25293 168.043 8.74512C168.043 9.06738 168.125 9.33105 168.289 9.53613C168.459 9.74121 168.708 9.91699 169.036 10.0635C169.347 10.2041 170.012 10.3828 171.031 10.5996C171.623 10.7285 172.133 10.8516 172.561 10.9688C172.988 11.0801 173.331 11.1885 173.589 11.2939C173.847 11.4053 174.075 11.5225 174.274 11.6455C174.479 11.7686 174.655 11.9004 174.802 12.041C175.101 12.3281 175.329 12.6709 175.487 13.0693C175.646 13.4619 175.725 13.916 175.725 14.4316Z" fill="#C4C4C4" fill-opacity="0.8"/>
</svg>
