<svg width="1917" height="44" viewBox="0 0 1917 44" fill="none" xmlns="http://www.w3.org/2000/svg">
<path d="M1917 21H1757.67L1712.14 36H0" stroke="#C4C4C4" stroke-opacity="0.8"/>
<path d="M1786.26 14.127C1786.35 14.0452 1786.47 14 1786.59 14H1810.72C1810.84 14 1810.95 14.0404 1811.04 14.1142L1818.93 20.6142C1819.29 20.9124 1819.08 21.5 1818.61 21.5H1779.31C1778.85 21.5 1778.64 20.9329 1778.98 20.627L1786.26 14.127Z" fill="#CCCCCE"/>
<path d="M1462.26 29.127C1462.35 29.0452 1462.47 29 1462.59 29H1486.72C1486.84 29 1486.95 29.0404 1487.04 29.1142L1494.93 35.6142C1495.29 35.9124 1495.08 36.5 1494.61 36.5H1455.31C1454.85 36.5 1454.64 35.9329 1454.98 35.627L1462.26 29.127Z" fill="#CCCCCE"/>
<path d="M1557.96 26.6653C1558.07 26.5737 1558.14 26.4419 1558.16 26.2834C1558.18 25.977 1557.95 25.7012 1557.64 25.6744L1551.79 25.1622L1552.3 19.3085C1552.33 19.0021 1552.1 18.7264 1551.79 18.6995C1551.48 18.6727 1551.21 18.9041 1551.18 19.2106L1550.62 25.6243C1550.59 25.9307 1550.83 26.2065 1551.13 26.2333L1557.55 26.7944C1557.7 26.8083 1557.85 26.7569 1557.96 26.6653Z" fill="#C4C4C4" fill-opacity="0.8"/>
<path d="M1551.58 25.9461L1561.25 17.8325C1561.48 17.6348 1561.51 17.2756 1561.31 17.04C1561.12 16.8045 1560.76 16.773 1560.52 16.9707L1550.85 25.0843C1550.62 25.2819 1550.59 25.6412 1550.78 25.8768C1550.98 26.1123 1551.34 26.1437 1551.58 25.9461Z" fill="#C4C4C4" fill-opacity="0.8"/>
<path opacity="0.8" d="M1573.99 26.1367C1575.56 26.1367 1576.64 25.3516 1577.25 23.7812L1579.51 24.6338C1579.02 25.8291 1578.31 26.7197 1577.36 27.3057C1576.42 27.8857 1575.3 28.1758 1573.99 28.1758C1572.66 28.1758 1571.54 27.9238 1570.6 27.4199C1569.67 26.9102 1568.96 26.1748 1568.47 25.2139C1567.98 24.2529 1567.74 23.0986 1567.74 21.751C1567.74 20.3916 1567.97 19.2432 1568.44 18.3057C1568.91 17.3682 1569.6 16.6562 1570.52 16.1699C1571.43 15.6777 1572.55 15.4316 1573.87 15.4316C1575.33 15.4316 1576.51 15.7246 1577.42 16.3105C1578.34 16.8906 1578.98 17.7461 1579.35 18.877L1577.06 19.501C1576.87 18.8799 1576.49 18.3877 1575.92 18.0244C1575.36 17.6553 1574.69 17.4707 1573.93 17.4707C1572.75 17.4707 1571.86 17.834 1571.25 18.5605C1570.65 19.2871 1570.35 20.3506 1570.35 21.751C1570.35 22.7002 1570.49 23.5 1570.76 24.1504C1571.04 24.8008 1571.45 25.2959 1571.99 25.6357C1572.54 25.9697 1573.2 26.1367 1573.99 26.1367ZM1584.15 24.8359L1583.05 28H1580.46L1584.97 15.6162H1588.03L1592.53 28H1589.97L1588.87 24.8359H1584.15ZM1586.5 17.5234C1586.44 17.7578 1586.36 18.0391 1586.26 18.3672C1586.15 18.6953 1586.08 18.9268 1586.03 19.0615L1584.73 22.8848H1588.29L1586.95 18.9824C1586.87 18.7422 1586.79 18.499 1586.72 18.2529C1586.65 18.0068 1586.58 17.7637 1586.5 17.5234ZM1596.81 23.2979V28H1594.22V15.6162H1600.41C1601.88 15.6162 1603.02 15.9355 1603.83 16.5742C1604.63 17.207 1605.03 18.1182 1605.03 19.3076C1605.03 20.1748 1604.78 20.9248 1604.29 21.5576C1603.8 22.1846 1603.13 22.5977 1602.3 22.7969L1605.65 28H1602.73L1599.85 23.2979H1596.81ZM1602.42 19.4131C1602.42 18.8213 1602.23 18.376 1601.85 18.0771C1601.47 17.7783 1600.9 17.6289 1600.13 17.6289H1596.81V21.2852H1600.21C1600.93 21.2852 1601.48 21.1211 1601.86 20.793C1602.23 20.4648 1602.42 20.0049 1602.42 19.4131ZM1617.33 24.4316C1617.33 25.6445 1616.88 26.5732 1615.97 27.2178C1615.08 27.8564 1613.76 28.1758 1612.02 28.1758C1608.88 28.1758 1607.06 27.042 1606.54 24.7744L1609.05 24.3613C1609.22 25.0176 1609.55 25.4951 1610.04 25.7939C1610.53 26.0869 1611.21 26.2334 1612.09 26.2334C1613 26.2334 1613.68 26.0957 1614.13 25.8203C1614.58 25.5449 1614.8 25.1318 1614.8 24.5811C1614.8 24.2295 1614.7 23.9395 1614.5 23.7109C1614.29 23.4824 1614 23.292 1613.62 23.1396C1613.43 23.0635 1613.15 22.9814 1612.79 22.8936C1612.43 22.7998 1611.98 22.6973 1611.44 22.5859C1610.82 22.4395 1610.33 22.3164 1609.98 22.2168C1609.63 22.1113 1609.35 22.0117 1609.13 21.918C1608.92 21.8184 1608.72 21.71 1608.52 21.5928C1608.08 21.3291 1607.74 20.9775 1607.49 20.5381C1607.25 20.0986 1607.12 19.5508 1607.12 18.8945C1607.12 17.7754 1607.54 16.9199 1608.38 16.3281C1609.22 15.7305 1610.45 15.4316 1612.05 15.4316C1613.59 15.4316 1614.74 15.6719 1615.51 16.1523C1616.28 16.6328 1616.78 17.4268 1617 18.5342L1614.49 18.877C1614.36 18.3438 1614.09 17.9424 1613.7 17.6729C1613.3 17.4033 1612.74 17.2686 1612 17.2686C1611.21 17.2686 1610.63 17.3916 1610.23 17.6377C1609.84 17.8838 1609.64 18.2529 1609.64 18.7451C1609.64 19.0674 1609.73 19.3311 1609.89 19.5361C1610.06 19.7412 1610.31 19.917 1610.64 20.0635C1610.95 20.2041 1611.61 20.3828 1612.63 20.5996C1613.22 20.7285 1613.73 20.8516 1614.16 20.9688C1614.59 21.0801 1614.93 21.1885 1615.19 21.2939C1615.45 21.4053 1615.68 21.5225 1615.88 21.6455C1616.08 21.7686 1616.26 21.9004 1616.4 22.041C1616.7 22.3281 1616.93 22.6709 1617.09 23.0693C1617.25 23.4619 1617.33 23.916 1617.33 24.4316ZM1626.84 23.4561V28H1624.24V15.6162H1633.38V17.6201H1626.84V21.4521H1633.17V23.4561H1626.84ZM1647.29 21.751C1647.29 23.04 1647.03 24.168 1646.51 25.1348C1645.99 26.0957 1645.26 26.8428 1644.32 27.376C1643.38 27.9092 1642.28 28.1758 1641.01 28.1758C1639.72 28.1758 1638.6 27.918 1637.67 27.4023C1636.74 26.8809 1636.03 26.1396 1635.53 25.1787C1635.03 24.2178 1634.78 23.0752 1634.78 21.751C1634.78 20.4268 1635.03 19.293 1635.52 18.3496C1636.02 17.4062 1636.73 16.6855 1637.66 16.1875C1638.6 15.6836 1639.72 15.4316 1641.03 15.4316C1642.34 15.4316 1643.46 15.6865 1644.4 16.1963C1645.33 16.7002 1646.04 17.4238 1646.54 18.3672C1647.04 19.3105 1647.29 20.4385 1647.29 21.751ZM1644.64 21.751C1644.64 20.415 1644.33 19.3691 1643.69 18.6133C1643.06 17.8516 1642.17 17.4707 1641.03 17.4707C1639.87 17.4707 1638.97 17.8486 1638.34 18.6045C1637.71 19.3545 1637.39 20.4033 1637.39 21.751C1637.39 22.6533 1637.54 23.4326 1637.83 24.0889C1638.12 24.7451 1638.54 25.252 1639.08 25.6094C1639.62 25.9609 1640.27 26.1367 1641.01 26.1367C1642.17 26.1367 1643.07 25.7559 1643.69 24.9941C1644.33 24.2324 1644.64 23.1514 1644.64 21.751ZM1651.85 23.2979V28H1649.26V15.6162H1655.44C1656.92 15.6162 1658.06 15.9355 1658.86 16.5742C1659.67 17.207 1660.07 18.1182 1660.07 19.3076C1660.07 20.1748 1659.82 20.9248 1659.33 21.5576C1658.84 22.1846 1658.17 22.5977 1657.33 22.7969L1660.68 28H1657.76L1654.89 23.2979H1651.85ZM1657.46 19.4131C1657.46 18.8213 1657.27 18.376 1656.89 18.0771C1656.5 17.7783 1655.93 17.6289 1655.17 17.6289H1651.85V21.2852H1655.24C1655.97 21.2852 1656.52 21.1211 1656.89 20.793C1657.27 20.4648 1657.46 20.0049 1657.46 19.4131ZM1673.04 22.9199V28H1670.46V22.9199L1666.04 15.6162H1668.76L1671.73 20.8545L1674.74 15.6162H1677.45L1673.04 22.9199ZM1690.99 21.751C1690.99 23.04 1690.73 24.168 1690.21 25.1348C1689.69 26.0957 1688.96 26.8428 1688.02 27.376C1687.08 27.9092 1685.98 28.1758 1684.71 28.1758C1683.42 28.1758 1682.3 27.918 1681.37 27.4023C1680.44 26.8809 1679.73 26.1396 1679.23 25.1787C1678.73 24.2178 1678.48 23.0752 1678.48 21.751C1678.48 20.4268 1678.73 19.293 1679.22 18.3496C1679.72 17.4062 1680.43 16.6855 1681.36 16.1875C1682.3 15.6836 1683.42 15.4316 1684.73 15.4316C1686.04 15.4316 1687.16 15.6865 1688.1 16.1963C1689.03 16.7002 1689.74 17.4238 1690.24 18.3672C1690.74 19.3105 1690.99 20.4385 1690.99 21.751ZM1688.34 21.751C1688.34 20.415 1688.03 19.3691 1687.39 18.6133C1686.76 17.8516 1685.87 17.4707 1684.73 17.4707C1683.57 17.4707 1682.67 17.8486 1682.04 18.6045C1681.41 19.3545 1681.09 20.4033 1681.09 21.751C1681.09 22.6533 1681.24 23.4326 1681.53 24.0889C1681.82 24.7451 1682.24 25.252 1682.78 25.6094C1683.32 25.9609 1683.97 26.1367 1684.71 26.1367C1685.87 26.1367 1686.77 25.7559 1687.39 24.9941C1688.03 24.2324 1688.34 23.1514 1688.34 21.751ZM1698.11 28.1758C1696.97 28.1758 1696.01 27.9912 1695.22 27.6221C1694.44 27.2471 1693.84 26.7021 1693.44 25.9873C1693.04 25.2666 1692.83 24.3906 1692.83 23.3594V15.6162H1695.43V23.1572C1695.43 24.1357 1695.66 24.8799 1696.12 25.3896C1696.59 25.8936 1697.27 26.1455 1698.18 26.1455C1699.1 26.1455 1699.81 25.8818 1700.31 25.3545C1700.81 24.8213 1701.06 24.0596 1701.06 23.0693V15.6162H1703.65V23.2275C1703.65 24.2705 1703.43 25.1611 1702.99 25.8994C1702.56 26.6377 1701.93 27.2031 1701.1 27.5957C1700.28 27.9824 1699.28 28.1758 1698.11 28.1758Z" fill="#C4C4C4" fill-opacity="0.8"/>
<path d="M786.742 43.373C786.651 43.4548 786.532 43.5 786.409 43.5H762.279C762.163 43.5 762.051 43.4596 761.961 43.3858L754.075 36.8858C753.713 36.5876 753.924 36 754.393 36H793.689C794.148 36 794.365 36.5671 794.022 36.873L786.742 43.373Z" fill="#CCCCCE"/>
</svg>
