<svg width="1920" height="27" viewBox="0 0 1920 27" fill="none" xmlns="http://www.w3.org/2000/svg">
<path d="M1924 11H342L288 26H0" stroke="#C4C4C4" stroke-opacity="0.6"/>
<path d="M373.874 7.08397C373.956 7.02922 374.053 7 374.151 7H391.358C391.451 7 391.542 7.02568 391.621 7.07417L396.496 10.0742C396.925 10.3384 396.738 11 396.233 11H369.651C369.157 11 368.962 10.3584 369.374 10.084L373.874 7.08397Z" fill="#D5D4D8"/>
<path d="M86.0696 23.0931C86.1544 23.0326 86.256 23 86.3602 23H92.325H98.3C98.3978 23 98.4935 23.0287 98.5752 23.0826L101.609 25.0826C102.023 25.3556 101.829 26 101.333 26H83.5602C83.0738 26 82.8738 25.3759 83.2696 25.0931L86.0696 23.0931Z" fill="#D5D4D8"/>
<path opacity="0.8" d="M138.243 11.7158C138.243 13.04 137.985 14.1709 137.47 15.1084C136.96 16.0459 136.251 16.7637 135.343 17.2617C134.44 17.7539 133.397 18 132.214 18H127.204V5.61621H131.687C133.772 5.61621 135.387 6.14355 136.529 7.19824C137.672 8.24707 138.243 9.75293 138.243 11.7158ZM135.633 11.7158C135.633 10.3857 135.287 9.37207 134.596 8.6748C133.904 7.97168 132.917 7.62012 131.634 7.62012H129.797V15.9961H131.994C132.738 15.9961 133.38 15.8232 133.919 15.4775C134.464 15.126 134.886 14.6309 135.185 13.9922C135.483 13.3535 135.633 12.5947 135.633 11.7158ZM150.311 15.9961V18H140.212V5.61621H149.95V7.62012H142.805V10.7314H149.414V12.7354H142.805V15.9961H150.311ZM161.455 15.9961V18H152.218V5.61621H154.811V15.9961H161.455ZM167.476 7.62012V18H164.883V7.62012H160.884V5.61621H171.483V7.62012H167.476ZM174.489 14.8359L173.391 18H170.798L175.315 5.61621H178.374L182.874 18H180.308L179.209 14.8359H174.489ZM176.845 7.52344C176.786 7.75781 176.704 8.03906 176.599 8.36719C176.493 8.69531 176.417 8.92676 176.37 9.06152L175.069 12.8848H178.629L177.293 8.98242C177.211 8.74219 177.135 8.49902 177.064 8.25293C176.994 8.00684 176.921 7.76367 176.845 7.52344ZM191.206 10.4941V18H188.903V5.61621H192.375L194.59 12.542C194.689 12.9287 194.792 13.3184 194.897 13.7109C195.003 14.0977 195.105 14.4844 195.205 14.8711C195.27 14.6484 195.331 14.4287 195.39 14.2119C195.448 13.9893 195.507 13.7666 195.565 13.5439C195.63 13.3213 195.694 13.1016 195.759 12.8848L198.035 5.61621H201.489V18H199.187V10.4941C199.187 10.3242 199.192 9.98438 199.204 9.47461C199.222 8.95898 199.245 8.39941 199.274 7.7959C199.069 8.58105 198.888 9.24902 198.729 9.7998C198.577 10.3506 198.451 10.7812 198.352 11.0918L196.119 18H194.273L192.041 11.0918L191.101 7.7959C191.136 8.47559 191.162 9.04102 191.18 9.49219C191.197 9.9375 191.206 10.2715 191.206 10.4941ZM215.938 11.751C215.938 13.04 215.678 14.168 215.156 15.1348C214.641 16.0957 213.911 16.8428 212.968 17.376C212.03 17.9092 210.929 18.1758 209.663 18.1758C208.368 18.1758 207.255 17.918 206.323 17.4023C205.392 16.8809 204.677 16.1396 204.179 15.1787C203.681 14.2178 203.432 13.0752 203.432 11.751C203.432 10.4268 203.678 9.29297 204.17 8.34961C204.668 7.40625 205.383 6.68555 206.314 6.1875C207.252 5.68359 208.374 5.43164 209.681 5.43164C210.993 5.43164 212.115 5.68652 213.047 6.19629C213.979 6.7002 214.693 7.42383 215.191 8.36719C215.689 9.31055 215.938 10.4385 215.938 11.751ZM213.293 11.751C213.293 10.415 212.977 9.36914 212.344 8.61328C211.711 7.85156 210.823 7.4707 209.681 7.4707C208.521 7.4707 207.624 7.84863 206.991 8.60449C206.358 9.35449 206.042 10.4033 206.042 11.751C206.042 12.6533 206.188 13.4326 206.481 14.0889C206.774 14.7451 207.19 15.252 207.729 15.6094C208.274 15.9609 208.919 16.1367 209.663 16.1367C210.823 16.1367 211.717 15.7559 212.344 14.9941C212.977 14.2324 213.293 13.1514 213.293 11.751ZM223.497 7.62012V18H220.904V7.62012H216.905V5.61621H227.505V7.62012H223.497ZM240.618 11.751C240.618 13.04 240.357 14.168 239.836 15.1348C239.32 16.0957 238.591 16.8428 237.647 17.376C236.71 17.9092 235.608 18.1758 234.343 18.1758C233.048 18.1758 231.935 17.918 231.003 17.4023C230.071 16.8809 229.356 16.1396 228.858 15.1787C228.36 14.2178 228.111 13.0752 228.111 11.751C228.111 10.4268 228.357 9.29297 228.85 8.34961C229.348 7.40625 230.062 6.68555 230.994 6.1875C231.932 5.68359 233.054 5.43164 234.36 5.43164C235.673 5.43164 236.795 5.68652 237.727 6.19629C238.658 6.7002 239.373 7.42383 239.871 8.36719C240.369 9.31055 240.618 10.4385 240.618 11.751ZM237.973 11.751C237.973 10.415 237.656 9.36914 237.023 8.61328C236.391 7.85156 235.503 7.4707 234.36 7.4707C233.2 7.4707 232.304 7.84863 231.671 8.60449C231.038 9.35449 230.722 10.4033 230.722 11.751C230.722 12.6533 230.868 13.4326 231.161 14.0889C231.454 14.7451 231.87 15.252 232.409 15.6094C232.954 15.9609 233.599 16.1367 234.343 16.1367C235.503 16.1367 236.396 15.7559 237.023 14.9941C237.656 14.2324 237.973 13.1514 237.973 11.751ZM245.18 13.2979V18H242.587V5.61621H248.774C250.251 5.61621 251.391 5.93555 252.193 6.57422C252.996 7.20703 253.397 8.11816 253.397 9.30762C253.397 10.1748 253.151 10.9248 252.659 11.5576C252.167 12.1846 251.502 12.5977 250.664 12.7969L254.013 18H251.095L248.221 13.2979H245.18ZM250.787 9.41309C250.787 8.82129 250.597 8.37598 250.216 8.07715C249.835 7.77832 249.264 7.62891 248.502 7.62891H245.18V11.2852H248.572C249.299 11.2852 249.85 11.1211 250.225 10.793C250.6 10.4648 250.787 10.0049 250.787 9.41309ZM265.693 14.4316C265.693 15.6445 265.242 16.5732 264.34 17.2178C263.443 17.8564 262.125 18.1758 260.385 18.1758C257.25 18.1758 255.425 17.042 254.909 14.7744L257.414 14.3613C257.584 15.0176 257.915 15.4951 258.407 15.7939C258.899 16.0869 259.582 16.2334 260.455 16.2334C261.363 16.2334 262.043 16.0957 262.494 15.8203C262.945 15.5449 263.171 15.1318 263.171 14.5811C263.171 14.2295 263.068 13.9395 262.863 13.7109C262.658 13.4824 262.365 13.292 261.984 13.1396C261.797 13.0635 261.521 12.9814 261.158 12.8936C260.795 12.7998 260.344 12.6973 259.805 12.5859C259.184 12.4395 258.697 12.3164 258.346 12.2168C257.994 12.1113 257.713 12.0117 257.502 11.918C257.291 11.8184 257.086 11.71 256.887 11.5928C256.447 11.3291 256.104 10.9775 255.858 10.5381C255.612 10.0986 255.489 9.55078 255.489 8.89453C255.489 7.77539 255.908 6.91992 256.746 6.32812C257.59 5.73047 258.814 5.43164 260.42 5.43164C261.955 5.43164 263.106 5.67187 263.874 6.15234C264.647 6.63281 265.146 7.42676 265.368 8.53418L262.854 8.87695C262.726 8.34375 262.462 7.94238 262.063 7.67285C261.671 7.40332 261.105 7.26855 260.367 7.26855C259.582 7.26855 258.993 7.3916 258.601 7.6377C258.208 7.88379 258.012 8.25293 258.012 8.74512C258.012 9.06738 258.094 9.33105 258.258 9.53613C258.428 9.74121 258.677 9.91699 259.005 10.0635C259.315 10.2041 259.98 10.3828 261 10.5996C261.592 10.7285 262.102 10.8516 262.529 10.9688C262.957 11.0801 263.3 11.1885 263.558 11.2939C263.815 11.4053 264.044 11.5225 264.243 11.6455C264.448 11.7686 264.624 11.9004 264.771 12.041C265.069 12.3281 265.298 12.6709 265.456 13.0693C265.614 13.4619 265.693 13.916 265.693 14.4316Z" fill="#C4C4C4" fill-opacity="0.8"/>
<path d="M278.043 6.33471C277.934 6.42631 277.859 6.55812 277.845 6.71662C277.818 7.02304 278.05 7.29881 278.356 7.32562L284.21 7.83776L283.698 13.6915C283.671 13.9979 283.902 14.2736 284.209 14.3005C284.515 14.3273 284.791 14.0959 284.818 13.7894L285.379 7.37573C285.406 7.06931 285.174 6.79354 284.868 6.76673L278.454 6.2056C278.295 6.19174 278.153 6.24312 278.043 6.33471Z" fill="#C4C4C4" fill-opacity="0.8"/>
<path d="M284.424 7.05391L274.755 15.1675C274.519 15.3652 274.488 15.7244 274.685 15.96C274.883 16.1955 275.242 16.227 275.478 16.0293L285.147 7.91571C285.383 7.71806 285.414 7.35881 285.217 7.12325C285.019 6.88769 284.66 6.85626 284.424 7.05391Z" fill="#C4C4C4" fill-opacity="0.8"/>
</svg>
