<svg width="48" height="1307" viewBox="0 0 48 1307" fill="none" xmlns="http://www.w3.org/2000/svg">
<path d="M6 1307L6 883.916C6 881.646 6.9642 879.483 8.65238 877.965L39.3476 850.378C41.0358 848.861 42 846.698 42 844.428L42 583.579L42 322.436C42 320.339 41.1767 318.326 39.7072 316.83L8.29281 284.849C6.82334 283.353 6 281.34 6 279.243L6 70" stroke="#C4C4C4" stroke-opacity="0.5"/>
<path d="M47.3932 365.136C47.4624 365.048 47.5 364.939 47.5 364.827V344.746C47.5 344.64 47.4667 344.537 47.4048 344.452L42.9048 338.247C42.6203 337.855 42 338.056 42 338.541V370.554C42 371.029 42.5998 371.237 42.8932 370.863L47.3932 365.136Z" fill="#C4C4C4" fill-opacity="0.5"/>
<path d="M37.1068 725.864C37.0376 725.952 37 726.061 37 726.173V746.254C37 746.36 37.0333 746.463 37.0952 746.548L41.5952 752.753C41.8797 753.145 42.5 752.944 42.5 752.459V720.446C42.5 719.971 41.9002 719.763 41.6068 720.137L37.1068 725.864Z" fill="#C4C4C4" fill-opacity="0.5"/>
<path d="M0.106841 1245.86C0.0376252 1245.95 0 1246.06 0 1246.17L0 1266.25C0 1266.36 0.0333378 1266.46 0.0952476 1266.55L4.59525 1272.75C4.87975 1273.14 5.5 1272.94 5.5 1272.46V1240.45C5.5 1239.97 4.90021 1239.76 4.60684 1240.14L0.106841 1245.86Z" fill="#C4C4C4" fill-opacity="0.5"/>
<path d="M27.4561 845.9H32V848.493H19.6162V839.361H21.6201V845.9H25.4521V839.563H27.4561V845.9ZM28.8359 835.556L32 836.654V839.247L19.6162 834.729V831.671L32 827.171V829.737L28.8359 830.836V835.556ZM21.5234 833.2C21.7578 833.259 22.0391 833.341 22.3672 833.446C22.6953 833.552 22.9268 833.628 23.0615 833.675L26.8848 834.976V831.416L22.9824 832.752C22.7422 832.834 22.499 832.91 22.2529 832.98C22.0068 833.051 21.7637 833.124 21.5234 833.2ZM25.751 813.442C26.8525 813.442 27.834 813.627 28.6953 813.996C29.5566 814.359 30.2686 814.884 30.8311 815.569C31.3877 816.255 31.7656 817.081 31.9648 818.048C32.5449 817.849 32.9639 817.57 33.2217 817.213C33.4795 816.85 33.6084 816.343 33.6084 815.692C33.6084 815.329 33.5791 814.98 33.5205 814.646L35.2959 814.664C35.46 815.391 35.542 816.1 35.542 816.791C35.542 817.746 35.2754 818.537 34.7422 819.164C34.209 819.791 33.3242 820.295 32.0879 820.676C31.9824 821.789 31.6602 822.738 31.1211 823.523C30.582 824.309 29.8584 824.909 28.9502 825.325C28.0361 825.741 26.9697 825.949 25.751 825.949C24.4268 825.949 23.293 825.703 22.3496 825.211C21.4063 824.713 20.6855 823.998 20.1875 823.066C19.6836 822.129 19.4316 821.007 19.4316 819.7C19.4316 818.388 19.6865 817.266 20.1963 816.334C20.7002 815.402 21.4238 814.688 22.3672 814.189C23.3105 813.691 24.4385 813.442 25.751 813.442ZM25.751 816.088C24.415 816.088 23.3691 816.404 22.6133 817.037C21.8516 817.67 21.4707 818.558 21.4707 819.7C21.4707 820.86 21.8486 821.757 22.6045 822.39C23.3545 823.022 24.4033 823.339 25.751 823.339C26.6533 823.339 27.4355 823.195 28.0977 822.908C28.7539 822.615 29.2607 822.199 29.6182 821.66C29.9697 821.115 30.1455 820.468 30.1455 819.718C30.1455 818.558 29.7646 817.664 29.0029 817.037C28.2412 816.404 27.1572 816.088 25.751 816.088ZM29.2227 803.405C30.1426 803.405 30.8662 803.783 31.3936 804.539C31.915 805.289 32.1758 806.329 32.1758 807.659C32.1758 808.966 31.9707 809.968 31.5605 810.665C31.1445 811.356 30.5 811.816 29.627 812.045L29.3018 809.874C29.7529 809.751 30.0723 809.54 30.2598 809.241C30.4473 808.937 30.541 808.409 30.541 807.659C30.541 806.968 30.4531 806.464 30.2773 806.147C30.1016 805.831 29.8262 805.673 29.4512 805.673C29.1465 805.673 28.9063 805.802 28.7305 806.06C28.5488 806.312 28.3965 806.742 28.2734 807.352C28.1797 807.814 28.0889 808.23 28.001 808.6C27.9131 808.963 27.8281 809.276 27.7461 809.54C27.6582 809.798 27.5762 810.009 27.5 810.173C27.2598 810.659 26.9521 811.031 26.5771 811.289C26.2021 811.541 25.7393 811.667 25.1885 811.667C24.2803 811.667 23.5742 811.318 23.0703 810.621C22.5605 809.918 22.3057 808.925 22.3057 807.642C22.3057 806.511 22.5254 805.603 22.9648 804.917C23.4043 804.226 24.04 803.795 24.8721 803.625L25.1006 805.813C24.7139 805.884 24.4268 806.057 24.2393 806.332C24.0459 806.607 23.9492 807.044 23.9492 807.642C23.9492 808.228 24.0254 808.667 24.1777 808.96C24.3242 809.253 24.5732 809.399 24.9248 809.399C25.2002 809.399 25.4199 809.288 25.584 809.065C25.7422 808.837 25.874 808.456 25.9795 807.923C26.1318 807.179 26.29 806.52 26.4541 805.945C26.6123 805.365 26.8027 804.899 27.0254 804.548C27.248 804.202 27.5352 803.927 27.8867 803.722C28.2324 803.511 28.6777 803.405 29.2227 803.405Z" fill="#C4C4C4" fill-opacity="0.7"/>
<path d="M25.5079 795.433C25.6134 795.337 25.6835 795.202 25.6911 795.043C25.7058 794.736 25.4637 794.47 25.1564 794.455L19.2871 794.174L19.5675 788.305C19.5822 787.998 19.3401 787.731 19.0328 787.717C18.7256 787.702 18.4592 787.944 18.4445 788.251L18.1372 794.682C18.1226 794.99 18.3647 795.256 18.6719 795.271L25.1028 795.578C25.2617 795.585 25.4025 795.528 25.5079 795.433Z" fill="#C4C4C4" fill-opacity="0.7"/>
<path d="M19.1036 794.966L28.4448 786.476C28.6724 786.27 28.6896 785.909 28.4828 785.682C28.276 785.454 27.9158 785.437 27.6882 785.644L18.347 794.133C18.1194 794.34 18.1022 794.7 18.309 794.928C18.5158 795.155 18.8761 795.173 19.1036 794.966Z" fill="#C4C4C4" fill-opacity="0.7"/>
</svg>
