<svg width="1917" height="37" viewBox="0 0 1917 37" fill="none" xmlns="http://www.w3.org/2000/svg">
<path d="M1917 21H1757.67L1712.14 36H0" stroke="#C4C4C4" stroke-opacity="0.4"/>
<path d="M1792.26 14.127C1792.35 14.0452 1792.47 14 1792.59 14H1816.72C1816.84 14 1816.95 14.0404 1817.04 14.1142L1824.93 20.6142C1825.29 20.9124 1825.08 21.5 1824.61 21.5H1785.31C1784.85 21.5 1784.64 20.9329 1784.98 20.627L1792.26 14.127Z" fill="#59595A" fill-opacity="0.9"/>
<path d="M1359.26 29.127C1359.35 29.0452 1359.47 29 1359.59 29H1383.72C1383.84 29 1383.95 29.0404 1384.04 29.1142L1391.93 35.6142C1392.29 35.9124 1392.08 36.5 1391.61 36.5H1352.31C1351.85 36.5 1351.64 35.9329 1351.98 35.627L1359.26 29.127Z" fill="#59595A" fill-opacity="0.9"/>
<path d="M1490.96 12.3347C1491.07 12.4263 1491.14 12.5581 1491.16 12.7166C1491.18 13.023 1490.95 13.2988 1490.64 13.3256L1484.79 13.8378L1485.3 19.6915C1485.33 19.9979 1485.1 20.2736 1484.79 20.3005C1484.49 20.3273 1484.21 20.0959 1484.18 19.7894L1483.62 13.3757C1483.59 13.0693 1483.83 12.7935 1484.13 12.7667L1490.55 12.2056C1490.7 12.1917 1490.85 12.2431 1490.96 12.3347Z" fill="#C4C4C4" fill-opacity="0.5"/>
<path d="M1484.58 13.0539L1494.25 21.1675C1494.48 21.3652 1494.51 21.7244 1494.31 21.96C1494.12 22.1955 1493.76 22.227 1493.52 22.0293L1483.85 13.9157C1483.62 13.7181 1483.59 13.3588 1483.78 13.1232C1483.98 12.8877 1484.34 12.8563 1484.58 13.0539Z" fill="#C4C4C4" fill-opacity="0.5"/>
<path opacity="0.8" d="M1503.8 11.6162V24H1501.2V11.6162H1503.8ZM1508.52 16.6963V24H1506.21V11.6162H1509.18L1514.65 21.2314C1514.55 20.3408 1514.49 19.5352 1514.49 18.8145V11.6162H1516.8V24H1513.75L1508.36 14.4639C1508.41 14.9268 1508.45 15.3457 1508.47 15.7207C1508.5 16.0898 1508.52 16.415 1508.52 16.6963ZM1524.81 13.6201V24H1522.22V13.6201H1518.22V11.6162H1528.82V13.6201H1524.81ZM1540.32 21.9961V24H1530.23V11.6162H1539.96V13.6201H1532.82V16.7314H1539.43V18.7354H1532.82V21.9961H1540.32ZM1548.11 22.1455C1548.79 22.1455 1549.44 22.0488 1550.07 21.8555C1550.7 21.6562 1551.19 21.4043 1551.54 21.0996V19.3857H1548.52V17.4697H1553.91V22.0225C1553.26 22.6963 1552.4 23.2236 1551.35 23.6045C1550.3 23.9854 1549.2 24.1758 1548.04 24.1758C1546.7 24.1758 1545.56 23.9268 1544.62 23.4287C1543.69 22.9248 1542.98 22.1953 1542.5 21.2402C1542.01 20.2793 1541.77 19.1162 1541.77 17.751C1541.77 15.7119 1542.31 14.1504 1543.4 13.0664C1544.49 11.9766 1546.06 11.4316 1548.1 11.4316C1549.56 11.4316 1550.75 11.7012 1551.67 12.2402C1552.6 12.7734 1553.26 13.5791 1553.65 14.6572L1551.26 15.3779C1551 14.751 1550.6 14.2764 1550.04 13.9541C1549.49 13.6318 1548.85 13.4707 1548.1 13.4707C1546.88 13.4707 1545.96 13.8398 1545.33 14.5781C1544.69 15.3164 1544.38 16.374 1544.38 17.751C1544.38 19.1514 1544.7 20.2354 1545.35 21.0029C1546.01 21.7646 1546.93 22.1455 1548.11 22.1455ZM1561.83 13.6201V24H1559.24V13.6201H1555.24V11.6162H1565.84V13.6201H1561.83ZM1568.84 20.8359L1567.75 24H1565.15L1569.67 11.6162H1572.73L1577.23 24H1574.66L1573.56 20.8359H1568.84ZM1571.2 13.5234C1571.14 13.7578 1571.06 14.0391 1570.95 14.3672C1570.85 14.6953 1570.77 14.9268 1570.73 15.0615L1569.42 18.8848H1572.98L1571.65 14.9824C1571.57 14.7422 1571.49 14.499 1571.42 14.2529C1571.35 14.0068 1571.28 13.7637 1571.2 13.5234ZM1583.17 13.6201V24H1580.58V13.6201H1576.58V11.6162H1587.18V13.6201H1583.17ZM1598.68 21.9961V24H1588.58V11.6162H1598.32V13.6201H1591.18V16.7314H1597.79V18.7354H1591.18V21.9961H1598.68ZM1611.63 17.7158C1611.63 19.04 1611.37 20.1709 1610.86 21.1084C1610.35 22.0459 1609.64 22.7637 1608.73 23.2617C1607.83 23.7539 1606.78 24 1605.6 24H1600.59V11.6162H1605.07C1607.16 11.6162 1608.77 12.1436 1609.92 13.1982C1611.06 14.2471 1611.63 15.7529 1611.63 17.7158ZM1609.02 17.7158C1609.02 16.3857 1608.67 15.3721 1607.98 14.6748C1607.29 13.9717 1606.3 13.6201 1605.02 13.6201H1603.18V21.9961H1605.38C1606.12 21.9961 1606.77 21.8232 1607.31 21.4775C1607.85 21.126 1608.27 20.6309 1608.57 19.9922C1608.87 19.3535 1609.02 18.5947 1609.02 17.7158ZM1620.88 20.8359L1619.78 24H1617.18L1621.7 11.6162H1624.76L1629.26 24H1626.69L1625.6 20.8359H1620.88ZM1623.23 13.5234C1623.17 13.7578 1623.09 14.0391 1622.99 14.3672C1622.88 14.6953 1622.8 14.9268 1622.76 15.0615L1621.46 18.8848H1625.02L1623.68 14.9824C1623.6 14.7422 1623.52 14.499 1623.45 14.2529C1623.38 14.0068 1623.31 13.7637 1623.23 13.5234ZM1641.13 15.5361C1641.13 16.3389 1640.95 17.0508 1640.58 17.6719C1640.22 18.2871 1639.7 18.7705 1639.03 19.1221C1638.35 19.4678 1637.55 19.6406 1636.62 19.6406H1633.54V24H1630.95V11.6162H1636.51C1637.99 11.6162 1639.13 11.959 1639.93 12.6445C1640.73 13.3242 1641.13 14.2881 1641.13 15.5361ZM1638.52 15.5801C1638.52 14.2793 1637.76 13.6289 1636.22 13.6289H1633.54V17.6455H1636.29C1637.01 17.6455 1637.56 17.4697 1637.94 17.1182C1638.33 16.7607 1638.52 16.248 1638.52 15.5801ZM1653.14 15.5361C1653.14 16.3389 1652.96 17.0508 1652.59 17.6719C1652.22 18.2871 1651.71 18.7705 1651.03 19.1221C1650.36 19.4678 1649.55 19.6406 1648.62 19.6406H1645.55V24H1642.95V11.6162H1648.52C1650 11.6162 1651.14 11.959 1651.94 12.6445C1652.74 13.3242 1653.14 14.2881 1653.14 15.5361ZM1650.53 15.5801C1650.53 14.2793 1649.76 13.6289 1648.23 13.6289H1645.55V17.6455H1648.3C1649.01 17.6455 1649.56 17.4697 1649.95 17.1182C1650.34 16.7607 1650.53 16.248 1650.53 15.5801ZM1657.55 19.2979V24H1654.96V11.6162H1661.15C1662.62 11.6162 1663.76 11.9355 1664.57 12.5742C1665.37 13.207 1665.77 14.1182 1665.77 15.3076C1665.77 16.1748 1665.52 16.9248 1665.03 17.5576C1664.54 18.1846 1663.88 18.5977 1663.04 18.7969L1666.39 24H1663.47L1660.59 19.2979H1657.55ZM1663.16 15.4131C1663.16 14.8213 1662.97 14.376 1662.59 14.0771C1662.21 13.7783 1661.64 13.6289 1660.88 13.6289H1657.55V17.2852H1660.95C1661.67 17.2852 1662.22 17.1211 1662.6 16.793C1662.97 16.4648 1663.16 16.0049 1663.16 15.4131ZM1680.01 17.751C1680.01 19.04 1679.75 20.168 1679.23 21.1348C1678.71 22.0957 1677.98 22.8428 1677.04 23.376C1676.1 23.9092 1675 24.1758 1673.73 24.1758C1672.44 24.1758 1671.33 23.918 1670.39 23.4023C1669.46 22.8809 1668.75 22.1396 1668.25 21.1787C1667.75 20.2178 1667.5 19.0752 1667.5 17.751C1667.5 16.4268 1667.75 15.293 1668.24 14.3496C1668.74 13.4062 1669.45 12.6855 1670.38 12.1875C1671.32 11.6836 1672.44 11.4316 1673.75 11.4316C1675.06 11.4316 1676.19 11.6865 1677.12 12.1963C1678.05 12.7002 1678.76 13.4238 1679.26 14.3672C1679.76 15.3105 1680.01 16.4385 1680.01 17.751ZM1677.36 17.751C1677.36 16.415 1677.05 15.3691 1676.41 14.6133C1675.78 13.8516 1674.89 13.4707 1673.75 13.4707C1672.59 13.4707 1671.69 13.8486 1671.06 14.6045C1670.43 15.3545 1670.11 16.4033 1670.11 17.751C1670.11 18.6533 1670.26 19.4326 1670.55 20.0889C1670.84 20.7451 1671.26 21.252 1671.8 21.6094C1672.34 21.9609 1672.99 22.1367 1673.73 22.1367C1674.89 22.1367 1675.79 21.7559 1676.41 20.9941C1677.05 20.2324 1677.36 19.1514 1677.36 17.751ZM1684.91 20.8359L1683.81 24H1681.22L1685.74 11.6162H1688.8L1693.3 24H1690.73L1689.63 20.8359H1684.91ZM1687.27 13.5234C1687.21 13.7578 1687.13 14.0391 1687.02 14.3672C1686.92 14.6953 1686.84 14.9268 1686.79 15.0615L1685.49 18.8848H1689.05L1687.72 14.9824C1687.63 14.7422 1687.56 14.499 1687.49 14.2529C1687.42 14.0068 1687.34 13.7637 1687.27 13.5234ZM1700.77 22.1367C1702.34 22.1367 1703.43 21.3516 1704.03 19.7812L1706.29 20.6338C1705.8 21.8291 1705.09 22.7197 1704.14 23.3057C1703.21 23.8857 1702.08 24.1758 1700.77 24.1758C1699.44 24.1758 1698.32 23.9238 1697.38 23.4199C1696.45 22.9102 1695.74 22.1748 1695.25 21.2139C1694.76 20.2529 1694.52 19.0986 1694.52 17.751C1694.52 16.3916 1694.75 15.2432 1695.22 14.3057C1695.69 13.3682 1696.38 12.6562 1697.3 12.1699C1698.21 11.6777 1699.33 11.4316 1700.65 11.4316C1702.11 11.4316 1703.29 11.7246 1704.21 12.3105C1705.12 12.8906 1705.76 13.7461 1706.13 14.877L1703.84 15.501C1703.65 14.8799 1703.27 14.3877 1702.7 14.0244C1702.14 13.6553 1701.47 13.4707 1700.71 13.4707C1699.54 13.4707 1698.64 13.834 1698.04 14.5605C1697.43 15.2871 1697.13 16.3506 1697.13 17.751C1697.13 18.7002 1697.27 19.5 1697.54 20.1504C1697.82 20.8008 1698.23 21.2959 1698.77 21.6357C1699.32 21.9697 1699.98 22.1367 1700.77 22.1367ZM1710.59 18.6914V24H1707.99V11.6162H1710.59V16.5469H1715.98V11.6162H1718.58V24H1715.98V18.6914H1710.59Z" fill="#C4C4C4" fill-opacity="0.5"/>
</svg>
