<svg width="1917" height="37" viewBox="0 0 1917 37" fill="none" xmlns="http://www.w3.org/2000/svg">
<path d="M1917 21H1757.67L1712.14 36H0" stroke="#C4C4C4" stroke-opacity="0.7"/>
<path d="M1784.86 16.1068C1784.95 16.0376 1785.06 16 1785.17 16H1805.25C1805.36 16 1805.46 16.0333 1805.55 16.0952L1811.75 20.5952C1812.14 20.8797 1811.94 21.5 1811.46 21.5H1779.45C1778.97 21.5 1778.76 20.9002 1779.14 20.6068L1784.86 16.1068Z" fill="#DBD9D9"/>
<path d="M1487.86 31.1068C1487.95 31.0376 1488.06 31 1488.17 31H1508.25C1508.36 31 1508.46 31.0333 1508.55 31.0952L1514.75 35.5952C1515.14 35.8797 1514.94 36.5 1514.46 36.5H1482.45C1481.97 36.5 1481.76 35.9002 1482.14 35.6068L1487.86 31.1068Z" fill="#DBD9D9"/>
<path d="M1610.96 9.33459C1611.07 9.42619 1611.14 9.558 1611.16 9.7165C1611.18 10.0229 1610.95 10.2987 1610.64 10.3255L1604.79 10.8376L1605.3 16.6913C1605.33 16.9978 1605.1 17.2735 1604.79 17.3003C1604.49 17.3271 1604.21 17.0957 1604.18 16.7893L1603.62 10.3756C1603.59 10.0692 1603.83 9.79341 1604.13 9.76661L1610.55 9.20548C1610.7 9.19161 1610.85 9.24299 1610.96 9.33459Z" fill="#C4C4C4" fill-opacity="0.8"/>
<path d="M1604.58 10.0539L1614.25 18.1675C1614.48 18.3652 1614.51 18.7244 1614.31 18.96C1614.12 19.1955 1613.76 19.227 1613.52 19.0293L1603.85 10.9157C1603.62 10.7181 1603.59 10.3588 1603.78 10.1232C1603.98 9.88769 1604.34 9.85626 1604.58 10.0539Z" fill="#C4C4C4" fill-opacity="0.8"/>
<path opacity="0.8" d="M1623.51 13.6963V21H1621.2V8.61621H1624.17L1629.64 18.2314C1629.54 17.3408 1629.48 16.5352 1629.48 15.8145V8.61621H1631.79V21H1628.75L1623.35 11.4639C1623.4 11.9268 1623.44 12.3457 1623.46 12.7207C1623.49 13.0898 1623.51 13.415 1623.51 13.6963ZM1639.36 21.1758C1638.23 21.1758 1637.26 20.9912 1636.48 20.6221C1635.69 20.2471 1635.1 19.7021 1634.7 18.9873C1634.29 18.2666 1634.09 17.3906 1634.09 16.3594V8.61621H1636.68V16.1572C1636.68 17.1357 1636.91 17.8799 1637.38 18.3896C1637.84 18.8936 1638.53 19.1455 1639.43 19.1455C1640.36 19.1455 1641.07 18.8818 1641.57 18.3545C1642.07 17.8213 1642.32 17.0596 1642.32 16.0693V8.61621H1644.91V16.2275C1644.91 17.2705 1644.69 18.1611 1644.25 18.8994C1643.82 19.6377 1643.19 20.2031 1642.36 20.5957C1641.53 20.9824 1640.53 21.1758 1639.36 21.1758ZM1649.52 13.4941V21H1647.22V8.61621H1650.69L1652.91 15.542C1653.01 15.9287 1653.11 16.3184 1653.21 16.7109C1653.32 17.0977 1653.42 17.4844 1653.52 17.8711C1653.59 17.6484 1653.65 17.4287 1653.71 17.2119C1653.76 16.9893 1653.82 16.7666 1653.88 16.5439C1653.95 16.3213 1654.01 16.1016 1654.08 15.8848L1656.35 8.61621H1659.81V21H1657.5V13.4941C1657.5 13.3242 1657.51 12.9844 1657.52 12.4746C1657.54 11.959 1657.56 11.3994 1657.59 10.7959C1657.39 11.5811 1657.2 12.249 1657.05 12.7998C1656.89 13.3506 1656.77 13.7812 1656.67 14.0918L1654.44 21H1652.59L1650.36 14.0918L1649.42 10.7959C1649.45 11.4756 1649.48 12.041 1649.5 12.4922C1649.51 12.9375 1649.52 13.2715 1649.52 13.4941ZM1673.19 17.4668C1673.19 18.5918 1672.77 19.4619 1671.93 20.0771C1671.08 20.6924 1669.91 21 1668.41 21H1662.21V8.61621H1667.88C1669.39 8.61621 1670.54 8.87988 1671.31 9.40723C1672.09 9.92871 1672.48 10.7021 1672.48 11.7275C1672.48 12.4307 1672.28 13.0254 1671.89 13.5117C1671.5 13.9922 1670.91 14.3174 1670.12 14.4873C1671.12 14.6045 1671.88 14.9209 1672.4 15.4365C1672.93 15.9463 1673.19 16.623 1673.19 17.4668ZM1669.87 12.0791C1669.87 11.5225 1669.69 11.127 1669.33 10.8926C1668.98 10.6582 1668.46 10.541 1667.76 10.541H1664.81V13.6084H1667.78C1668.51 13.6084 1669.04 13.4824 1669.37 13.2305C1669.7 12.9727 1669.87 12.5889 1669.87 12.0791ZM1670.59 17.2646C1670.59 16.1045 1669.76 15.5244 1668.09 15.5244H1664.81V19.0752H1668.19C1669.02 19.0752 1669.63 18.9258 1670.01 18.627C1670.4 18.3223 1670.59 17.8682 1670.59 17.2646ZM1685.32 18.9961V21H1675.22V8.61621H1684.96V10.6201H1677.81V13.7314H1684.42V15.7354H1677.81V18.9961H1685.32ZM1689.82 16.2979V21H1687.23V8.61621H1693.42C1694.89 8.61621 1696.03 8.93555 1696.83 9.57422C1697.64 10.207 1698.04 11.1182 1698.04 12.3076C1698.04 13.1748 1697.79 13.9248 1697.3 14.5576C1696.81 15.1846 1696.14 15.5977 1695.3 15.7969L1698.65 21H1695.74L1692.86 16.2979H1689.82ZM1695.43 12.4131C1695.43 11.8213 1695.24 11.376 1694.86 11.0771C1694.48 10.7783 1693.9 10.6289 1693.14 10.6289H1689.82V14.2852H1693.21C1693.94 14.2852 1694.49 14.1211 1694.87 13.793C1695.24 13.4648 1695.43 13.0049 1695.43 12.4131ZM1710.33 17.4316C1710.33 18.6445 1709.88 19.5732 1708.98 20.2178C1708.08 20.8564 1706.77 21.1758 1705.03 21.1758C1701.89 21.1758 1700.07 20.042 1699.55 17.7744L1702.05 17.3613C1702.22 18.0176 1702.56 18.4951 1703.05 18.7939C1703.54 19.0869 1704.22 19.2334 1705.1 19.2334C1706 19.2334 1706.68 19.0957 1707.13 18.8203C1707.59 18.5449 1707.81 18.1318 1707.81 17.5811C1707.81 17.2295 1707.71 16.9395 1707.5 16.7109C1707.3 16.4824 1707.01 16.292 1706.62 16.1396C1706.44 16.0635 1706.16 15.9814 1705.8 15.8936C1705.44 15.7998 1704.98 15.6973 1704.45 15.5859C1703.82 15.4395 1703.34 15.3164 1702.99 15.2168C1702.63 15.1113 1702.35 15.0117 1702.14 14.918C1701.93 14.8184 1701.73 14.71 1701.53 14.5928C1701.09 14.3291 1700.75 13.9775 1700.5 13.5381C1700.25 13.0986 1700.13 12.5508 1700.13 11.8945C1700.13 10.7754 1700.55 9.91992 1701.39 9.32812C1702.23 8.73047 1703.46 8.43164 1705.06 8.43164C1706.6 8.43164 1707.75 8.67188 1708.51 9.15234C1709.29 9.63281 1709.79 10.4268 1710.01 11.5342L1707.5 11.877C1707.37 11.3438 1707.1 10.9424 1706.7 10.6729C1706.31 10.4033 1705.75 10.2686 1705.01 10.2686C1704.22 10.2686 1703.63 10.3916 1703.24 10.6377C1702.85 10.8838 1702.65 11.2529 1702.65 11.7451C1702.65 12.0674 1702.73 12.3311 1702.9 12.5361C1703.07 12.7412 1703.32 12.917 1703.65 13.0635C1703.96 13.2041 1704.62 13.3828 1705.64 13.5996C1706.23 13.7285 1706.74 13.8516 1707.17 13.9688C1707.6 14.0801 1707.94 14.1885 1708.2 14.2939C1708.46 14.4053 1708.68 14.5225 1708.88 14.6455C1709.09 14.7686 1709.26 14.9004 1709.41 15.041C1709.71 15.3281 1709.94 15.6709 1710.1 16.0693C1710.25 16.4619 1710.33 16.916 1710.33 17.4316Z" fill="#C4C4C4" fill-opacity="0.8"/>
</svg>
