<svg width="1917" height="31" viewBox="0 0 1917 31" fill="none" xmlns="http://www.w3.org/2000/svg">
<path d="M1917 15H1757.67L1712.14 30H0" stroke="#C4C4C4" stroke-opacity="0.4"/>
<path d="M1783.87 11.1C1783.95 11.0351 1784.06 11 1784.17 11H1801.34C1801.45 11 1801.54 11.031 1801.63 11.0889L1806.68 14.5889C1807.09 14.8679 1806.89 15.5 1806.4 15.5H1779.5C1779.02 15.5 1778.82 14.8883 1779.2 14.6L1783.87 11.1Z" fill="#5C5C5E"/>
<path d="M1488.87 26.1C1488.95 26.0351 1489.06 26 1489.17 26H1506.34C1506.45 26 1506.54 26.031 1506.63 26.0889L1511.68 29.5889C1512.09 29.8679 1511.89 30.5 1511.4 30.5H1484.5C1484.02 30.5 1483.82 29.8883 1484.2 29.6L1488.87 26.1Z" fill="#5C5C5E"/>
<path d="M1527.96 6.33471C1528.07 6.42631 1528.14 6.55812 1528.16 6.71662C1528.18 7.02304 1527.95 7.29881 1527.64 7.32562L1521.79 7.83776L1522.3 13.6915C1522.33 13.9979 1522.1 14.2736 1521.79 14.3005C1521.49 14.3273 1521.21 14.0959 1521.18 13.7894L1520.62 7.37573C1520.59 7.06931 1520.83 6.79354 1521.13 6.76673L1527.55 6.2056C1527.7 6.19173 1527.85 6.24312 1527.96 6.33471Z" fill="#C4C4C4" fill-opacity="0.5"/>
<path d="M1521.58 7.05367L1531.25 15.1673C1531.48 15.3649 1531.51 15.7242 1531.31 15.9597C1531.12 16.1953 1530.76 16.2267 1530.52 16.0291L1520.85 7.91547C1520.62 7.71781 1520.59 7.35856 1520.78 7.123C1520.98 6.88744 1521.34 6.85601 1521.58 7.05367Z" fill="#C4C4C4" fill-opacity="0.5"/>
<path opacity="0.8" d="M1550.25 11.751C1550.25 13.04 1549.98 14.168 1549.46 15.1348C1548.95 16.0957 1548.22 16.8428 1547.27 17.376C1546.34 17.9092 1545.24 18.1758 1543.97 18.1758C1542.67 18.1758 1541.56 17.918 1540.63 17.4023C1539.7 16.8809 1538.98 16.1396 1538.49 15.1787C1537.99 14.2178 1537.74 13.0752 1537.74 11.751C1537.74 10.4268 1537.98 9.29297 1538.48 8.34961C1538.97 7.40625 1539.69 6.68555 1540.62 6.1875C1541.56 5.68359 1542.68 5.43164 1543.99 5.43164C1545.3 5.43164 1546.42 5.68652 1547.35 6.19629C1548.29 6.7002 1549 7.42383 1549.5 8.36719C1550 9.31055 1550.25 10.4385 1550.25 11.751ZM1547.6 11.751C1547.6 10.415 1547.28 9.36914 1546.65 8.61328C1546.02 7.85156 1545.13 7.4707 1543.99 7.4707C1542.83 7.4707 1541.93 7.84863 1541.3 8.60449C1540.67 9.35449 1540.35 10.4033 1540.35 11.751C1540.35 12.6533 1540.5 13.4326 1540.79 14.0889C1541.08 14.7451 1541.5 15.252 1542.04 15.6094C1542.58 15.9609 1543.23 16.1367 1543.97 16.1367C1545.13 16.1367 1546.02 15.7559 1546.65 14.9941C1547.28 14.2324 1547.6 13.1514 1547.6 11.751ZM1557.36 18.1758C1556.23 18.1758 1555.27 17.9912 1554.48 17.6221C1553.7 17.2471 1553.1 16.7021 1552.7 15.9873C1552.29 15.2666 1552.09 14.3906 1552.09 13.3594V5.61621H1554.68V13.1572C1554.68 14.1357 1554.92 14.8799 1555.38 15.3896C1555.85 15.8936 1556.53 16.1455 1557.43 16.1455C1558.36 16.1455 1559.07 15.8818 1559.57 15.3545C1560.07 14.8213 1560.32 14.0596 1560.32 13.0693V5.61621H1562.91V13.2275C1562.91 14.2705 1562.69 15.1611 1562.25 15.8994C1561.82 16.6377 1561.19 17.2031 1560.36 17.5957C1559.54 17.9824 1558.54 18.1758 1557.36 18.1758ZM1567.81 13.2979V18H1565.22V5.61621H1571.41C1572.89 5.61621 1574.03 5.93555 1574.83 6.57422C1575.63 7.20703 1576.03 8.11816 1576.03 9.30762C1576.03 10.1748 1575.79 10.9248 1575.29 11.5576C1574.8 12.1846 1574.14 12.5977 1573.3 12.7969L1576.65 18H1573.73L1570.86 13.2979H1567.81ZM1573.42 9.41309C1573.42 8.82129 1573.23 8.37598 1572.85 8.07715C1572.47 7.77832 1571.9 7.62891 1571.14 7.62891H1567.81V11.2852H1571.21C1571.93 11.2852 1572.48 11.1211 1572.86 10.793C1573.23 10.4648 1573.42 10.0049 1573.42 9.41309ZM1594.22 14.4668C1594.22 15.5918 1593.79 16.4619 1592.95 17.0771C1592.11 17.6924 1590.94 18 1589.44 18H1583.24V5.61621H1588.91C1590.42 5.61621 1591.56 5.87988 1592.34 6.40723C1593.12 6.92871 1593.5 7.70215 1593.5 8.72754C1593.5 9.43066 1593.31 10.0254 1592.92 10.5117C1592.53 10.9922 1591.94 11.3174 1591.14 11.4873C1592.14 11.6045 1592.9 11.9209 1593.43 12.4365C1593.95 12.9463 1594.22 13.623 1594.22 14.4668ZM1590.89 9.0791C1590.89 8.52246 1590.72 8.12695 1590.36 7.89258C1590.01 7.6582 1589.48 7.54102 1588.79 7.54102H1585.83V10.6084H1588.8C1589.54 10.6084 1590.07 10.4824 1590.39 10.2305C1590.73 9.97266 1590.89 9.58887 1590.89 9.0791ZM1591.62 14.2646C1591.62 13.1045 1590.78 12.5244 1589.12 12.5244H1585.83V16.0752H1589.22C1590.05 16.0752 1590.65 15.9258 1591.04 15.627C1591.42 15.3223 1591.62 14.8682 1591.62 14.2646ZM1606.35 15.9961V18H1596.25V5.61621H1605.99V7.62012H1598.84V10.7314H1605.45V12.7354H1598.84V15.9961H1606.35ZM1610.56 10.6963V18H1608.25V5.61621H1611.21L1616.69 15.2314C1616.58 14.3408 1616.53 13.5352 1616.53 12.8145V5.61621H1618.83V18H1615.79L1610.4 8.46387C1610.45 8.92676 1610.49 9.3457 1610.51 9.7207C1610.54 10.0898 1610.56 10.415 1610.56 10.6963ZM1631.36 15.9961V18H1621.26V5.61621H1631V7.62012H1623.85V10.7314H1630.46V12.7354H1623.85V15.9961H1631.36ZM1635.86 13.4561V18H1633.27V5.61621H1642.4V7.62012H1635.86V11.4521H1642.2V13.4561H1635.86ZM1646.86 5.61621V18H1644.27V5.61621H1646.86ZM1654.87 7.62012V18H1652.28V7.62012H1648.28V5.61621H1658.88V7.62012H1654.87ZM1670.38 14.4316C1670.38 15.6445 1669.93 16.5732 1669.03 17.2178C1668.13 17.8564 1666.81 18.1758 1665.07 18.1758C1661.94 18.1758 1660.11 17.042 1659.6 14.7744L1662.1 14.3613C1662.27 15.0176 1662.6 15.4951 1663.1 15.7939C1663.59 16.0869 1664.27 16.2334 1665.14 16.2334C1666.05 16.2334 1666.73 16.0957 1667.18 15.8203C1667.63 15.5449 1667.86 15.1318 1667.86 14.5811C1667.86 14.2295 1667.76 13.9395 1667.55 13.7109C1667.35 13.4824 1667.05 13.292 1666.67 13.1396C1666.49 13.0635 1666.21 12.9814 1665.85 12.8936C1665.48 12.7998 1665.03 12.6973 1664.49 12.5859C1663.87 12.4395 1663.39 12.3164 1663.04 12.2168C1662.68 12.1113 1662.4 12.0117 1662.19 11.918C1661.98 11.8184 1661.78 11.71 1661.58 11.5928C1661.14 11.3291 1660.79 10.9775 1660.55 10.5381C1660.3 10.0986 1660.18 9.55078 1660.18 8.89453C1660.18 7.77539 1660.6 6.91992 1661.44 6.32812C1662.28 5.73047 1663.5 5.43164 1665.11 5.43164C1666.64 5.43164 1667.8 5.67187 1668.56 6.15234C1669.34 6.63281 1669.83 7.42676 1670.06 8.53418L1667.54 8.87695C1667.42 8.34375 1667.15 7.94238 1666.75 7.67285C1666.36 7.40332 1665.79 7.26855 1665.06 7.26855C1664.27 7.26855 1663.68 7.3916 1663.29 7.6377C1662.9 7.88379 1662.7 8.25293 1662.7 8.74512C1662.7 9.06738 1662.78 9.33105 1662.95 9.53613C1663.12 9.74121 1663.37 9.91699 1663.69 10.0635C1664 10.2041 1664.67 10.3828 1665.69 10.5996C1666.28 10.7285 1666.79 10.8516 1667.22 10.9688C1667.65 11.0801 1667.99 11.1885 1668.25 11.2939C1668.5 11.4053 1668.73 11.5225 1668.93 11.6455C1669.14 11.7686 1669.31 11.9004 1669.46 12.041C1669.76 12.3281 1669.99 12.6709 1670.15 13.0693C1670.3 13.4619 1670.38 13.916 1670.38 14.4316Z" fill="#C4C4C4" fill-opacity="0.5"/>
</svg>
