<svg width="358" height="20" viewBox="0 0 358 20" fill="none" xmlns="http://www.w3.org/2000/svg">
<path d="M357 5H167.5L154.5 19.5H0" stroke="#C4C4C4" stroke-opacity="0.6"/>
<path d="M334.159 0.121295C334.25 0.0430449 334.366 0 334.486 0H351.042C351.155 0 351.265 0.0383388 351.353 0.108757L356.38 4.10876C356.75 4.40346 356.542 5 356.069 5H329.846C329.382 5 329.168 4.42393 329.519 4.12129L334.159 0.121295Z" fill="#D5D4D8"/>
<path d="M22.9781 4.98212C22.8932 5.05336 22.8345 5.15588 22.8237 5.27916C22.8029 5.51748 22.9829 5.73198 23.2212 5.75283L27.7741 6.15115L27.3757 10.704C27.3549 10.9424 27.5349 11.1568 27.7732 11.1777C28.0115 11.1986 28.226 11.0186 28.2469 10.7802L28.6833 5.7918C28.7042 5.55348 28.5242 5.33898 28.2859 5.31813L23.2974 4.8817C23.1741 4.87092 23.063 4.91088 22.9781 4.98212Z" fill="#C4C4C4" fill-opacity="0.8"/>
<path d="M27.9411 5.54164L20.4204 11.8522C20.2372 12.0059 20.2128 12.2854 20.3665 12.4686C20.5202 12.6518 20.7996 12.6762 20.9828 12.5225L28.5035 6.21192C28.6867 6.05819 28.7111 5.77877 28.5574 5.59556C28.4037 5.41235 28.1243 5.3879 27.9411 5.54164Z" fill="#C4C4C4" fill-opacity="0.8"/>
<path opacity="0.8" d="M42.3301 9.83398C42.3301 10.6934 42.1562 11.4453 41.8086 12.0898C41.4648 12.7305 40.9785 13.2285 40.3496 13.584C39.7246 13.9395 38.9902 14.1172 38.1465 14.1172C37.2832 14.1172 36.541 13.9453 35.9199 13.6016C35.2988 13.2539 34.8223 12.7598 34.4902 12.1191C34.1582 11.4785 33.9922 10.7168 33.9922 9.83398C33.9922 8.95117 34.1562 8.19531 34.4844 7.56641C34.8164 6.9375 35.293 6.45703 35.9141 6.125C36.5391 5.78906 37.2871 5.62109 38.1582 5.62109C39.0332 5.62109 39.7812 5.79102 40.4023 6.13086C41.0234 6.4668 41.5 6.94922 41.832 7.57812C42.1641 8.20703 42.3301 8.95898 42.3301 9.83398ZM40.5664 9.83398C40.5664 8.94336 40.3555 8.24609 39.9336 7.74219C39.5117 7.23438 38.9199 6.98047 38.1582 6.98047C37.3848 6.98047 36.7871 7.23242 36.3652 7.73633C35.9434 8.23633 35.7324 8.93555 35.7324 9.83398C35.7324 10.4355 35.8301 10.9551 36.0254 11.3926C36.2207 11.8301 36.498 12.168 36.8574 12.4062C37.2207 12.6406 37.6504 12.7578 38.1465 12.7578C38.9199 12.7578 39.5156 12.5039 39.9336 11.9961C40.3555 11.4883 40.5664 10.7676 40.5664 9.83398ZM47.0762 14.1172C46.3184 14.1172 45.6777 13.9941 45.1543 13.748C44.6309 13.498 44.2344 13.1348 43.9648 12.6582C43.6953 12.1777 43.5605 11.5938 43.5605 10.9062V5.74414H45.2891V10.7715C45.2891 11.4238 45.4434 11.9199 45.752 12.2598C46.0645 12.5957 46.5215 12.7637 47.123 12.7637C47.7402 12.7637 48.2148 12.5879 48.5469 12.2363C48.8789 11.8809 49.0449 11.373 49.0449 10.7129V5.74414H50.7734V10.8184C50.7734 11.5137 50.627 12.1074 50.334 12.5996C50.0449 13.0918 49.625 13.4688 49.0742 13.7305C48.5234 13.9883 47.8574 14.1172 47.0762 14.1172ZM54.043 10.8652V14H52.3145V5.74414H56.4395C57.4238 5.74414 58.1836 5.95703 58.7188 6.38281C59.2539 6.80469 59.5215 7.41211 59.5215 8.20508C59.5215 8.7832 59.3574 9.2832 59.0293 9.70508C58.7012 10.123 58.2578 10.3984 57.6992 10.5312L59.9316 14H57.9863L56.0703 10.8652H54.043ZM57.7812 8.27539C57.7812 7.88086 57.6543 7.58398 57.4004 7.38477C57.1465 7.18555 56.7656 7.08594 56.2578 7.08594H54.043V9.52344H56.3047C56.7891 9.52344 57.1562 9.41406 57.4062 9.19531C57.6562 8.97656 57.7812 8.66992 57.7812 8.27539ZM65.8379 11.8906L65.1055 14H63.377L66.3887 5.74414H68.4277L71.4277 14H69.7168L68.9844 11.8906H65.8379ZM67.4082 7.01562C67.3691 7.17188 67.3145 7.35938 67.2441 7.57812C67.1738 7.79688 67.123 7.95117 67.0918 8.04102L66.2246 10.5898H68.5977L67.707 7.98828C67.6523 7.82812 67.6016 7.66602 67.5547 7.50195C67.5078 7.33789 67.459 7.17578 67.4082 7.01562ZM79.3438 8.35742C79.3438 8.89258 79.2207 9.36719 78.9746 9.78125C78.7324 10.1914 78.3867 10.5137 77.9375 10.748C77.4883 10.9785 76.9531 11.0938 76.332 11.0938H74.2812V14H72.5527V5.74414H76.2617C77.25 5.74414 78.0098 5.97266 78.541 6.42969C79.0762 6.88281 79.3438 7.52539 79.3438 8.35742ZM77.6035 8.38672C77.6035 7.51953 77.0918 7.08594 76.0684 7.08594H74.2812V9.76367H76.1152C76.5918 9.76367 76.959 9.64648 77.2168 9.41211C77.4746 9.17383 77.6035 8.83203 77.6035 8.38672ZM87.3477 8.35742C87.3477 8.89258 87.2246 9.36719 86.9785 9.78125C86.7363 10.1914 86.3906 10.5137 85.9414 10.748C85.4922 10.9785 84.957 11.0938 84.3359 11.0938H82.2852V14H80.5566V5.74414H84.2656C85.2539 5.74414 86.0137 5.97266 86.5449 6.42969C87.0801 6.88281 87.3477 7.52539 87.3477 8.35742ZM85.6074 8.38672C85.6074 7.51953 85.0957 7.08594 84.0723 7.08594H82.2852V9.76367H84.1191C84.5957 9.76367 84.9629 9.64648 85.2207 9.41211C85.4785 9.17383 85.6074 8.83203 85.6074 8.38672ZM90.2891 10.8652V14H88.5605V5.74414H92.6855C93.6699 5.74414 94.4297 5.95703 94.9648 6.38281C95.5 6.80469 95.7676 7.41211 95.7676 8.20508C95.7676 8.7832 95.6035 9.2832 95.2754 9.70508C94.9473 10.123 94.5039 10.3984 93.9453 10.5312L96.1777 14H94.2324L92.3164 10.8652H90.2891ZM94.0273 8.27539C94.0273 7.88086 93.9004 7.58398 93.6465 7.38477C93.3926 7.18555 93.0117 7.08594 92.5039 7.08594H90.2891V9.52344H92.5508C93.0352 9.52344 93.4023 9.41406 93.6523 9.19531C93.9023 8.97656 94.0273 8.66992 94.0273 8.27539ZM105.26 9.83398C105.26 10.6934 105.086 11.4453 104.738 12.0898C104.395 12.7305 103.908 13.2285 103.279 13.584C102.654 13.9395 101.92 14.1172 101.076 14.1172C100.213 14.1172 99.4707 13.9453 98.8496 13.6016C98.2285 13.2539 97.752 12.7598 97.4199 12.1191C97.0879 11.4785 96.9219 10.7168 96.9219 9.83398C96.9219 8.95117 97.0859 8.19531 97.4141 7.56641C97.7461 6.9375 98.2227 6.45703 98.8438 6.125C99.4688 5.78906 100.217 5.62109 101.088 5.62109C101.963 5.62109 102.711 5.79102 103.332 6.13086C103.953 6.4668 104.43 6.94922 104.762 7.57812C105.094 8.20703 105.26 8.95898 105.26 9.83398ZM103.496 9.83398C103.496 8.94336 103.285 8.24609 102.863 7.74219C102.441 7.23438 101.85 6.98047 101.088 6.98047C100.314 6.98047 99.7168 7.23242 99.2949 7.73633C98.873 8.23633 98.6621 8.93555 98.6621 9.83398C98.6621 10.4355 98.7598 10.9551 98.9551 11.3926C99.1504 11.8301 99.4277 12.168 99.7871 12.4062C100.15 12.6406 100.58 12.7578 101.076 12.7578C101.85 12.7578 102.445 12.5039 102.863 11.9961C103.285 11.4883 103.496 10.7676 103.496 9.83398ZM108.529 11.8906L107.797 14H106.068L109.08 5.74414H111.119L114.119 14H112.408L111.676 11.8906H108.529ZM110.1 7.01562C110.061 7.17188 110.006 7.35938 109.936 7.57812C109.865 7.79688 109.814 7.95117 109.783 8.04102L108.916 10.5898H111.289L110.398 7.98828C110.344 7.82812 110.293 7.66602 110.246 7.50195C110.199 7.33789 110.15 7.17578 110.1 7.01562ZM119.1 12.7578C120.146 12.7578 120.871 12.2344 121.273 11.1875L122.779 11.7559C122.455 12.5527 121.979 13.1465 121.35 13.5371C120.725 13.9238 119.975 14.1172 119.1 14.1172C118.217 14.1172 117.465 13.9492 116.844 13.6133C116.223 13.2734 115.748 12.7832 115.42 12.1426C115.096 11.502 114.934 10.7324 114.934 9.83398C114.934 8.92773 115.09 8.16211 115.402 7.53711C115.715 6.91211 116.176 6.4375 116.785 6.11328C117.395 5.78516 118.141 5.62109 119.023 5.62109C119.992 5.62109 120.781 5.81641 121.391 6.20703C122 6.59375 122.428 7.16406 122.674 7.91797L121.15 8.33398C121.021 7.91992 120.768 7.5918 120.389 7.34961C120.014 7.10352 119.57 6.98047 119.059 6.98047C118.277 6.98047 117.684 7.22266 117.277 7.70703C116.875 8.19141 116.674 8.90039 116.674 9.83398C116.674 10.4668 116.766 11 116.949 11.4336C117.137 11.8672 117.41 12.1973 117.77 12.4238C118.133 12.6465 118.576 12.7578 119.1 12.7578ZM125.645 10.4609V14H123.916V5.74414H125.645V9.03125H129.242V5.74414H130.971V14H129.242V10.4609H125.645Z" fill="#C4C4C4" fill-opacity="0.8"/>
</svg>
