<svg width="74" height="1595" viewBox="0 0 74 1595" fill="none" xmlns="http://www.w3.org/2000/svg">
<path opacity="0.12" d="M6.91406 1594.66L6.91406 1042.8C6.91406 1040.17 8.20721 1037.71 10.3728 1036.22L63.5968 999.52C65.7624 998.027 67.0555 995.564 67.0555 992.934L67.0555 658.241V323.25C67.0555 320.787 65.921 318.461 63.9798 316.945L9.98975 274.777C8.04862 273.261 6.91406 270.935 6.91406 268.472L6.91406 0.00012207" stroke="#EAE9F0"/>
<path d="M67 936.332V889.778C67 888.998 67.8529 888.518 68.5193 888.923L73.5193 891.962C73.8178 892.143 74 892.467 74 892.816V913.257V933.661C74 934.03 73.7967 934.369 73.4712 934.543L68.4712 937.214C67.8051 937.57 67 937.087 67 936.332Z" fill="#323233"/>
<path d="M7 1104.33V1057.78C7 1057 6.1471 1056.52 5.48069 1056.92L0.480685 1059.96C0.182216 1060.14 0 1060.47 0 1060.82V1081.26V1101.66C0 1102.03 0.20328 1102.37 0.528807 1102.54L5.52881 1105.21C6.19494 1105.57 7 1105.09 7 1104.33Z" fill="#323233"/>
<path d="M67 401.236V364.89C67 364.087 66.1012 363.612 65.4373 364.064L62.4373 366.105C62.1637 366.292 62 366.601 62 366.932V383.206V399.441C62 399.793 62.1848 400.119 62.4866 400.3L65.4866 402.094C66.1531 402.493 67 402.013 67 401.236Z" fill="#323233"/>
</svg>
