<svg width="73" height="977" viewBox="0 0 73 977" fill="none" xmlns="http://www.w3.org/2000/svg">
<path opacity="0.2" d="M6 977L6 709.35C6 705.924 8.18198 702.878 11.4262 701.776L60.5738 685.076C63.818 683.973 66 680.927 66 677.501V516.618L66 355.497C66 352.187 63.9622 349.22 60.8736 348.031L11.1264 328.883C8.03777 327.695 6 324.727 6 321.417L6 193" stroke="#EAE9F0"/>
<path d="M6 830.332V783.778C6 782.998 6.8529 782.518 7.51931 782.923L12.5193 785.962C12.8178 786.143 13 786.467 13 786.816V807.257V827.661C13 828.03 12.7967 828.369 12.4712 828.543L7.47119 831.214C6.80506 831.57 6 831.087 6 830.332Z" fill="#323233"/>
<path d="M66 516.332V469.778C66 468.998 65.1471 468.518 64.4807 468.923L59.4807 471.962C59.1822 472.143 59 472.467 59 472.816V493.257V513.661C59 514.03 59.2033 514.369 59.5288 514.543L64.5288 517.214C65.1949 517.57 66 517.087 66 516.332Z" fill="#323233"/>
<path d="M7 250.544V217.529C7 216.808 6.25985 216.324 5.59916 216.613L0.599157 218.801C0.235183 218.96 0 219.319 0 219.717V234.185V248.621C0 249.035 0.254821 249.406 0.641005 249.554L5.64101 251.477C6.29601 251.729 7 251.246 7 250.544Z" fill="#323233"/>
</svg>
