<svg width="100" height="35" viewBox="0 0 100 35" fill="none" xmlns="http://www.w3.org/2000/svg">
<path d="M82.3524 34.3488C82.3517 34.3488 82.3513 34.3488 82.351 34.3488C78.4161 34.3488 74.6711 33.0158 71.6411 30.5653C68.7674 32.8869 65.2208 34.2145 61.4926 34.3394C61.2985 34.3462 61.1065 34.3488 60.9141 34.3488C60.9137 34.3488 60.913 34.3488 60.9126 34.3488C56.9778 34.3488 53.2328 33.0158 50.2028 30.5653C47.3287 32.8869 43.7821 34.2145 40.0539 34.3394C39.8598 34.3462 39.6678 34.3488 39.475 34.3488C39.475 34.3488 39.4743 34.3488 39.4739 34.3488C35.5387 34.3488 31.7941 33.0158 28.7644 30.5653C25.8899 32.8869 22.3438 34.2145 18.6152 34.3394C18.4214 34.3462 18.229 34.3488 18.0367 34.3488C18.0363 34.3488 18.036 34.3488 18.0356 34.3488C8.76657 34.3484 1.26437 27.072 0.955209 17.7837C0.640677 8.34039 8.05189 0.401241 17.4753 0.0864039L17.5351 0.0853271L18.6156 0.0864039C22.3427 0.210975 25.8889 1.53889 28.7644 3.8605C31.6393 1.53889 35.1851 0.210975 38.9137 0.0864039L38.9735 0.0853271L40.0539 0.0864039C43.781 0.210975 47.3276 1.53889 50.2028 3.86015C53.0773 1.53853 56.6242 0.210616 60.3527 0.0864039L60.4118 0.0853271L61.4923 0.0864039C65.2194 0.210975 68.7663 1.53889 71.6411 3.8605C74.516 1.53889 78.0629 0.210616 81.7914 0.0864039L81.8505 0.0853271L82.931 0.0864039C91.8959 0.385805 99.1523 7.65794 99.4514 16.6414C99.7653 26.0847 92.3544 34.0239 82.9313 34.3391C82.7365 34.3459 82.5448 34.3488 82.3524 34.3488ZM74.1918 28.0193C76.5318 29.8021 79.3726 30.7682 82.3514 30.7682C82.3517 30.7682 82.3517 30.7682 82.3524 30.7682C82.5054 30.7682 82.658 30.7656 82.8113 30.7606C90.2662 30.5115 96.1284 24.2312 95.8798 16.7609C95.6437 9.664 89.9184 3.91758 82.8403 3.66593H81.881C79.0756 3.76537 76.4025 4.7264 74.1943 6.40505C76.5447 9.29675 77.887 12.8669 78.0124 16.6414C78.1503 20.7795 76.7736 24.83 74.1918 28.0193ZM52.7534 28.0193C55.0931 29.8021 57.9339 30.7682 60.9126 30.7682C60.9134 30.7682 60.9134 30.7682 60.9137 30.7682C61.0671 30.7682 61.2197 30.7656 61.3726 30.7606C64.1887 30.6662 66.873 29.7052 69.0887 28.0208C66.7379 25.1294 65.396 21.5593 65.2706 17.7837C65.1327 13.6463 66.5097 9.59615 69.0908 6.40721C66.8809 4.72712 64.207 3.76573 61.4016 3.66593H60.4426C57.6369 3.76537 54.9638 4.7264 52.7556 6.40505C55.106 9.29675 56.4483 12.8669 56.5737 16.6414C56.7116 20.7795 55.3349 24.83 52.7534 28.0193ZM31.3147 28.0193C33.6544 29.8021 36.4952 30.7682 39.4743 30.7682C39.4743 30.7682 39.475 30.7682 39.4754 30.7682C39.6283 30.7682 39.7806 30.7656 39.9346 30.7606C42.7504 30.6662 45.4347 29.7052 47.6504 28.0208C45.2996 25.1294 43.9576 21.5593 43.8323 17.7837C43.6947 13.6463 45.071 9.59615 47.6525 6.40685C45.4429 4.72712 42.7687 3.76573 39.9637 3.66629H39.0039C36.1989 3.76573 33.5254 4.72676 31.3169 6.40541C33.6676 9.29711 35.0099 12.8673 35.1357 16.6418C35.2733 20.7795 33.8962 24.83 31.3147 28.0193ZM17.5656 3.66629C10.125 3.93015 4.27786 10.2039 4.52612 17.6649C4.77079 25.0121 10.7046 30.7674 18.036 30.7682H18.0367C18.1896 30.7682 18.3423 30.7656 18.4959 30.7606C21.3117 30.6662 23.996 29.7052 26.2116 28.0208C23.8609 25.1294 22.5189 21.5593 22.3932 17.7837C22.256 13.6463 23.6327 9.59615 26.2138 6.40685C24.0045 4.72712 21.3299 3.76573 18.525 3.66629H17.5656ZM71.6436 8.94493C69.7436 11.4227 68.7373 14.5118 68.8419 17.6652C68.9372 20.5304 69.9184 23.2462 71.6401 25.4813C73.5398 23.0035 74.5464 19.914 74.4418 16.7609C74.3465 13.8965 73.365 11.1807 71.6436 8.94493ZM28.7662 8.94457C26.8661 11.4223 25.8599 14.5115 25.9648 17.6649C26.0601 20.53 27.0413 23.2458 28.7627 25.4809C30.6627 23.0031 31.6694 19.914 31.5648 16.7606C31.4695 13.8965 30.4883 11.1804 28.7662 8.94457ZM50.2049 8.94457C48.3048 11.4223 47.2982 14.5115 47.4032 17.6649C47.4988 20.53 48.4797 23.2458 50.201 25.4809C52.1007 23.0031 53.1077 19.9136 53.0031 16.7606C52.9078 13.8965 51.9266 11.1804 50.2049 8.94457Z" fill="#737B7F"/>
</svg>
