<svg width="153" height="117" viewBox="0 0 153 117" fill="none" xmlns="http://www.w3.org/2000/svg">
<path d="M105.587 111.785C104.336 114.749 101.433 116.675 98.2161 116.675H8.91016C4.49188 116.675 0.910156 113.093 0.910156 108.675V8.27538C0.910156 3.8571 4.49188 0.275375 8.91016 0.275375H140.578C146.302 0.275375 150.174 6.11157 147.949 11.3854L105.587 111.785Z" fill="#E6E5EC"/>
<path d="M61.5191 22.6553C41.639 22.6553 25.522 38.8063 25.522 58.7284C25.522 78.6505 41.639 94.8015 61.5191 94.8015C81.3992 94.8015 97.5162 78.6505 97.5162 58.7284C97.5162 38.8063 81.3992 22.6553 61.5191 22.6553ZM95.1753 58.7284C95.1753 77.3546 80.1081 92.4557 61.5191 92.4557C42.93 92.4557 27.8628 77.3546 27.8628 58.7284C27.8628 40.1022 42.9321 25.001 61.5191 25.001C80.106 25.001 95.1753 40.1022 95.1753 58.7284Z" fill="#6F6F6F"/>
<path d="M61.5196 37.3523V38.5243C72.6359 38.5243 81.6816 47.5871 81.6816 58.729H82.8512C82.8512 46.9237 73.3 37.3523 61.5196 37.3523ZM61.5196 78.9336C50.4033 78.9336 41.3576 69.8709 41.3576 58.729H40.188C40.188 70.5342 49.7392 80.1056 61.5196 80.1056" fill="#6F6F6F"/>
<path d="M78.7548 43.5049C79.2433 44.0268 79.9474 44.8686 80.3428 45.3799L87.6253 40.7797C87.2616 40.3062 86.6822 39.5865 86.2487 39.0794L81.6369 42.1139L81.3219 42.3833L81.5566 42.0424L83.5929 37.9977L82.1529 36.5646L78.0866 38.5912L77.7441 38.8248L78.0169 38.5112L81.0681 33.9236C80.531 33.4691 80.0151 33.0524 79.3575 32.5474L74.7351 39.7886C75.3208 40.2368 76.0926 40.8955 76.5853 41.3437L80.937 39.0962L81.2161 38.8921L81.011 39.1699L78.7548 43.5049Z" fill="#6F6F6F"/>
<path d="M62.2298 34.3283L64.2196 29.8923L64.3464 29.4987L64.3105 29.9091L64.5198 35.8372C65.2176 35.9024 65.9387 35.9992 66.6491 36.117L66.3256 27.3375C65.3318 27.2281 64.3422 27.1502 63.3526 27.1082L61.3924 31.9503L61.3227 32.3102L61.2529 31.9503L59.2948 27.1082C58.3052 27.1502 57.3156 27.2281 56.3218 27.3375L55.9983 36.117C56.7088 35.9992 57.4298 35.9045 58.1276 35.8372L58.337 29.9091L58.301 29.4987L58.4279 29.8923L60.4176 34.3283H62.2298Z" fill="#6F6F6F"/>
<path d="M46.136 41.3254C47.2863 40.1196 47.9376 38.7265 46.7873 37.3965C46.1614 36.6747 45.1104 36.5169 44.2393 36.8725L44.1526 36.9062L44.1801 36.8304C44.309 36.4874 44.3915 35.3931 43.4548 34.6377C42.998 34.2694 42.425 34.1326 41.8456 34.1915C40.7651 34.301 39.9341 35.0354 37.6716 37.5459C36.9886 38.3035 35.9947 39.4988 35.3984 40.2732L41.613 46.1402C43.6726 43.8717 44.512 43.0279 46.136 41.3254ZM38.0268 39.8902C39.2786 38.3666 40.6086 36.9841 41.2113 36.4369C41.4016 36.2644 41.6088 36.0918 41.8604 36.0245C42.2685 35.9129 42.6893 36.2012 42.7845 36.6179C42.8796 37.0367 42.6153 37.4344 42.3214 37.7627C41.6595 38.5055 39.2321 41.0329 39.2321 41.0329L38.0268 39.8902ZM40.4606 42.1882C40.4606 42.1882 42.8246 39.7008 43.5964 38.9054C43.9031 38.5897 44.0997 38.3982 44.3112 38.2951C44.5839 38.1625 44.8821 38.1352 45.1485 38.3119C45.4107 38.4866 45.5312 38.7875 45.4657 39.0863C45.3875 39.442 45.0956 39.7808 44.8546 40.0396C44.529 40.3868 41.7251 43.373 41.7209 43.3772L40.4606 42.1882Z" fill="#6F6F6F"/>
<path d="M61.5196 37.3523V58.729H40.188C40.188 46.9152 49.7307 37.3523 61.5196 37.3523Z" fill="#737B7F"/>
<path d="M82.8507 58.7284C82.8507 70.5421 73.3079 80.1051 61.519 80.1051V58.7284H82.8507Z" fill="#737B7F"/>
</svg>
