<svg width="153" height="117" viewBox="0 0 153 117" fill="none" xmlns="http://www.w3.org/2000/svg">
<path d="M105.435 111.785C104.184 114.749 101.28 116.675 98.0638 116.675H8.75781C4.33954 116.675 0.757812 113.093 0.757812 108.675V8.27538C0.757812 3.8571 4.33954 0.275375 8.75781 0.275375H140.426C146.15 0.275375 150.022 6.11157 147.797 11.3854L105.435 111.785Z" fill="#E6E5EC"/>
<path fill-rule="evenodd" clip-rule="evenodd" d="M63.8055 77.5795C92.9719 77.5795 116.619 68.6327 116.619 57.5699C116.619 46.507 92.9719 37.5264 63.8055 37.5264C34.6051 37.5264 10.9576 46.507 10.9576 57.5699C10.9576 68.6333 34.6051 77.5795 63.8055 77.5795Z" fill="#737B7F"/>
<path fill-rule="evenodd" clip-rule="evenodd" d="M63.8059 75.5282C35.7978 75.5282 13.037 67.538 13.037 57.5675C13.037 47.6316 35.7978 39.5389 63.8059 39.5389C91.8823 39.5389 114.609 47.6316 114.609 57.5675C114.609 67.538 91.8823 75.5282 63.8059 75.5282Z" fill="white"/>
<path fill-rule="evenodd" clip-rule="evenodd" d="M63.8069 74.1314C90.9632 74.1314 113.008 66.7219 113.008 57.5703C113.008 48.4538 90.9632 41.0443 63.8069 41.0443C36.6168 41.0443 14.6394 48.4538 14.6394 57.5703C14.64 66.7219 36.6168 74.1314 63.8069 74.1314Z" fill="#737B7F"/>
<path fill-rule="evenodd" clip-rule="evenodd" d="M76.689 60.8813C79.0057 58.6962 80.2996 56.4086 83.6396 56.4425C85.6496 56.4765 86.1602 58.0815 86.5007 58.7646L90.8964 51.3212H93.5881L86.2969 64.2624C86.1602 64.5352 85.8191 65.0473 85.8535 65.4571C85.923 66.1057 86.7402 65.9353 86.4335 65.9353C87.8986 65.8669 90.5897 63.0671 91.2375 62.3845C91.373 62.213 91.6125 61.9063 91.748 61.9063C91.8847 61.9063 92.1575 62.0427 92.1575 62.2476C92.1575 62.3845 91.8508 62.8961 91.6125 63.2035C90.2491 64.911 88.0008 67.5398 85.4452 67.6083C84.1846 67.6083 83.7068 67.0961 83.5368 66.1063C82.9579 66.6179 80.9812 67.5059 78.9712 67.5059C77.3012 67.4719 76.6195 66.4815 76.2795 65.6965C75.9728 65.0479 75.8362 64.092 76.0745 63.1361C75.1545 63.6143 74.3028 63.6823 73.0761 63.6483C71.6444 63.6138 70.7583 62.9652 70.3161 61.2917C68.6805 64.2969 68.6116 64.3988 66.9427 67.5404H64.0466L67.7605 61.2237C68.2383 60.3697 68.4766 59.6872 68.6461 58.9707C68.7488 58.5603 68.4422 58.1845 67.9988 58.1511C67.5222 58.1511 66.7394 58.6294 65.9888 59.3459C65.9888 59.3459 64.081 61.3947 62.6838 63.4774C61.3543 65.4582 59.072 67.7113 56.5848 67.7113C54.7786 67.7113 53.1431 66.7215 52.8025 64.8091C52.8025 64.8091 52.632 65.2528 51.0303 66.1747C50.8941 66.2427 50.5536 66.4475 50.4519 66.3796C50.1447 66.1068 49.9747 65.765 49.9402 65.5256C50.0425 65.5601 50.2469 65.3892 50.8941 64.877C52.1547 63.9211 52.4275 63.1689 52.4275 63.1689C52.7336 62.5203 53.2797 61.496 53.6542 60.7789C54.677 58.7301 56.4481 56.6474 59.3443 56.545C59.8215 56.545 59.9576 56.7498 60.0598 56.9208C60.3321 57.1256 60.2304 57.5354 60.2304 57.5354C58.1859 57.8427 56.7892 59.0374 55.937 60.1988C55.4264 60.9498 54.8809 62.1791 54.7786 63.0665C54.5742 64.6031 55.2898 65.6269 56.3459 65.8663C58.322 66.1736 59.9576 64.7395 61.2526 62.5203C61.5938 61.9397 61.8321 60.4371 61.8321 59.6175C61.8321 58.798 61.3887 57.9446 61.0482 57.6027C61.0482 57.0226 61.4226 56.6468 61.8654 56.6468C62.0015 56.6468 62.1382 56.6468 62.2743 56.7832C62.956 57.4663 63.331 58.7641 63.331 59.7539C63.331 60.0958 63.331 60.437 63.2626 60.7789C64.6938 59.0374 66.4994 56.7838 67.8972 56.3401C68.1694 56.2037 68.4422 56.2037 68.7144 56.2037C71.27 56.1352 70.9294 58.4573 70.9294 58.4573C72.2917 56.8868 73.2461 56.3061 74.5067 56.374C75.8701 56.4425 76.3467 57.399 76.3467 58.15C76.3123 59.0374 75.6662 60.0618 74.5423 60.0958C73.5528 60.0958 72.9739 59.6175 72.6672 58.7301C72.02 58.9695 71.7139 59.4132 71.5772 60.3007C71.3722 61.4275 72.2245 62.3155 73.3145 62.3155C75.1889 62.316 76.0073 61.496 76.689 60.8813ZM78.7329 46.1653C78.7329 47.2581 74.9162 49.3409 71.6789 49.3409C66.6366 49.3409 61.3893 46.9163 58.9709 46.3702C56.347 45.7555 53.962 45.2433 52.0875 45.2433C45.5113 45.2433 42.5807 48.0777 42.7174 50.6726C42.7857 51.7309 43.6368 52.414 44.898 52.1746C46.2613 51.9358 48.1691 50.6381 48.6464 49.5112C48.7486 49.2724 49.0214 49.2379 49.1236 49.3064C49.328 49.4773 49.2597 49.7161 49.2597 49.7161C49.0891 51.0478 47.0447 54.7356 43.5013 54.7356C41.5251 54.7356 40.1962 52.8917 40.2301 51.0818C40.264 47.7013 43.7057 44.2869 52.1897 44.2869C53.7909 44.2869 55.597 44.4233 57.5737 44.7651C59.8559 45.1749 65.546 46.1308 70.18 46.1992C71.8845 46.1992 74.065 46.2677 75.8367 45.9944C77.7106 45.687 77.3017 45.6186 78.0518 45.6186C78.7329 45.6186 78.7329 45.8919 78.7329 46.1653Z" fill="white"/>
<path fill-rule="evenodd" clip-rule="evenodd" d="M83.7739 58.0479C82.5805 57.9115 81.081 58.9359 79.8548 60.4386C79.2415 61.1896 78.5942 62.6238 78.4914 63.4772C78.3559 64.3313 78.5942 65.1847 78.9009 65.4236C79.2076 65.6624 80.571 66.3795 82.6833 64.2288C83.8756 63.0335 85.0339 61.0872 85.0339 61.0872L84.6589 60.9842C85.3745 59.653 85.2373 58.2183 83.7739 58.0479Z" fill="#737B7F"/>
<path fill-rule="evenodd" clip-rule="evenodd" d="M58.8662 54.0188C58.8662 54.3946 59.3767 54.7019 59.82 54.7364C59.7178 55.1116 59.7517 55.2826 59.5817 55.2486C58.5595 55.2486 58.1506 54.2582 58.1506 54.2582C56.7884 54.497 55.4595 54.6679 52.7672 54.9413C45.9866 65.9363 43.8744 67.7462 39.7171 67.7462C36.7526 67.7462 34.1293 65.7999 34.0609 62.3169C34.0265 60.2002 35.7304 57.6047 38.8993 56.8192C39.2743 56.8192 39.4104 56.9561 39.4104 57.161C39.4104 57.298 39.2743 57.4683 38.9671 57.6047C38.0471 57.9466 36.446 59.7559 36.446 61.4295C36.446 62.6927 37.2299 64.0929 38.5582 64.3997C38.9332 64.5027 39.2743 64.4682 39.6149 64.4682C42.9199 64.4682 46.6338 60.7464 50.6544 55.0783C50.0072 55.1122 47.2472 55.4201 46.5655 56.2051C46.2594 56.4439 46.0549 56.3075 45.9866 56.0342C45.9866 55.9657 46.0888 55.7268 46.1916 55.5899C47.2816 54.3606 50.5528 54.0878 51.3361 53.9854C54.4028 49.2732 58.355 46.3364 59.1728 46.3709C59.3089 46.3709 59.6162 46.5758 59.4795 46.9171C59.445 46.9855 59.1045 47.3608 58.9689 47.4632C58.2873 48.0779 55.97 49.5805 53.4489 53.8484C55.4933 53.746 57.8784 53.3362 57.8784 53.3362C57.8784 53.3362 57.7423 52.8925 57.7423 52.5167C57.8445 51.0486 58.6962 50.1606 59.7867 50.3315C60.4006 50.434 60.809 50.9462 60.809 51.4923C60.809 52.073 60.3662 52.9265 59.9228 53.3362C59.6156 53.5745 59.2745 53.8139 58.8662 54.0188Z" fill="white"/>
<path fill-rule="evenodd" clip-rule="evenodd" d="M58.6943 53.2687C58.6943 53.2687 59.0354 53.3032 59.546 52.7225C59.7504 52.5176 60.0916 51.9029 60.0232 51.4931C59.9888 51.2882 59.8871 51.0494 59.6488 51.0833C59.1371 51.1863 58.8304 51.4252 58.6943 51.9374C58.5243 52.4836 58.5926 52.8595 58.6943 53.2687Z" fill="#737B7F"/>
</svg>
