<svg width="153" height="117" viewBox="0 0 153 117" fill="none" xmlns="http://www.w3.org/2000/svg">
<path d="M47.4081 5.22879C48.6593 2.26684 51.5622 0.341797 54.7776 0.341797H144.086C148.504 0.341797 152.086 3.92352 152.086 8.3418V108.608C152.086 113.026 148.504 116.608 144.086 116.608H12.4232C6.69777 116.608 2.82581 110.769 5.05371 105.495L47.4081 5.22879Z" fill="#E6E5EC"/>
<path fill-rule="evenodd" clip-rule="evenodd" d="M92.9188 81.2724C80.6943 81.2724 70.7956 71.3528 70.7956 59.1025C70.7956 46.8522 80.6943 36.9325 92.9188 36.9325C105.143 36.9325 115.042 46.8522 115.042 59.1025C115.042 71.3528 105.143 81.2724 92.9188 81.2724ZM151.914 45.1184H114.702C110.107 37.8705 102.023 33.067 92.8337 33.067C83.6441 33.067 75.5606 37.8705 70.9658 45.1184H33.9236L37.6959 48.8986H68.952C68.3847 50.2629 67.9309 51.6841 67.5906 53.1621H41.9503L45.7226 56.9423H67.0233C66.9666 57.6245 66.9382 58.3351 66.9382 59.0456C66.9382 59.7846 66.9666 60.4952 67.0233 61.2058H49.9771L53.7494 64.986H67.6189C67.9593 66.464 68.4131 67.8852 69.0087 69.2495H57.9755L61.7478 73.0298H71.0225C75.6173 80.2492 83.7008 85.0243 92.8621 85.0243C102.052 85.0243 110.107 80.2208 114.702 73.0298H124.118L127.891 69.2495H116.659C117.226 67.8852 117.708 66.464 118.049 64.986H132.117L135.889 61.2058H118.644C118.701 60.4952 118.729 59.7846 118.729 59.0456C118.729 58.3351 118.701 57.6245 118.644 56.9423H140.143L143.916 53.1621H118.077C117.737 51.6841 117.283 50.2629 116.715 48.8986H148.17L151.914 45.1184ZM103.073 61.6037L103.101 53.0484H105.399V64.7302L102.619 64.7871L97.9391 56.516V64.7302H95.6417V53.0484H98.3929L103.073 61.6037ZM81.4318 62.1437L84.4099 53.0484H87.8135V64.7302H85.3175V56.0612L82.7081 64.7302H80.1271L77.5177 56.0612V64.7302H75.0217V53.0484H78.4253L81.4318 62.1437ZM92.8905 53.0484V64.7302H90.5363V53.0484H92.8905ZM110.476 53.0484V64.7302H108.121V53.0484H110.476Z" fill="#737B7F"/>
</svg>
