<svg width="153" height="117" viewBox="0 0 153 117" fill="none" xmlns="http://www.w3.org/2000/svg">
<path d="M47.8417 5.22879C49.0929 2.26684 51.9958 0.341797 55.2112 0.341797H144.52C148.938 0.341797 152.52 3.92352 152.52 8.3418V108.608C152.52 113.026 148.938 116.608 144.52 116.608H12.8568C7.13136 116.608 3.2594 110.769 5.48731 105.495L47.8417 5.22879Z" fill="#E6E5EC"/>
<path d="M89.9699 100.495L100.154 43.0994C109.861 43.0994 112.922 44.1661 113.365 48.5199C113.365 48.5199 119.876 46.0868 123.16 41.1453C110.344 35.194 97.4671 34.9256 97.4671 34.9256L89.9529 44.097L89.9699 44.0959L82.4558 34.9242C82.4558 34.9242 69.5782 35.1929 56.7638 41.1441C60.0452 46.0857 66.5595 48.5188 66.5595 48.5188C67.0041 44.1646 70.0622 43.098 79.704 43.0911L89.9699 100.495Z" fill="#737B7F"/>
<path d="M89.9659 32.2759C100.326 32.1965 112.184 33.8819 124.323 39.1839C125.946 36.2575 126.363 34.9641 126.363 34.9641C113.093 29.703 100.666 27.9025 89.9645 27.8573C79.2637 27.9025 66.8371 29.7033 53.5688 34.9641C53.5688 34.9641 54.1608 36.5572 55.607 39.1839C67.7439 33.8819 79.6042 32.1965 89.9645 32.2759H89.9659Z" fill="#737B7F"/>
</svg>
