<svg width="152" height="117" viewBox="0 0 152 117" fill="none" xmlns="http://www.w3.org/2000/svg">
<path d="M104.798 111.51C103.547 114.473 100.644 116.4 97.4271 116.4H8.12109C3.70282 116.4 0.121094 112.818 0.121094 108.4V7.99998C0.121094 3.58171 3.70282 -1.52588e-05 8.12109 -1.52588e-05H139.789C145.513 -1.52588e-05 149.385 5.83618 147.16 11.11L104.798 111.51Z" fill="#E6E5EC"/>
<path d="M62.8571 22.0447H65.472C70.8541 22.3101 76.1865 23.7222 80.9423 26.2737C89.1852 30.6333 95.5668 38.3612 98.3412 47.2739C99.0817 49.6567 99.5894 52.1173 99.8031 54.6043C100.015 56.5502 99.8894 58.5196 99.9026 60.4743C99.5704 65.9791 97.9432 71.4062 95.1702 76.1734C92.4879 80.8233 88.7638 84.8662 84.3416 87.903C78.7956 91.723 72.1623 93.8859 65.4471 94.1909H62.4722C60.9606 94.0853 59.446 93.9592 57.952 93.6967C50.47 92.4445 43.4022 88.7609 38.1415 83.2751C32.0102 76.9902 28.2597 68.3854 28.0138 59.5857C27.8719 58.5137 27.945 57.4345 28.0285 56.3611C28.005 55.3713 28.1967 54.399 28.2304 53.4136L28.3036 53.3242C29.4625 43.5771 34.9968 34.5163 42.9324 28.8077C48.7067 24.6329 55.7438 22.269 62.8571 22.0447V22.0447ZM60.725 25.5347C60.3431 25.6227 59.9524 25.6491 59.5631 25.6843C58.9836 25.8016 58.3939 25.8631 57.8159 25.9878C57.5774 26.0464 57.3345 26.0919 57.0945 26.1388C56.8984 26.1916 56.6994 26.2341 56.5004 26.2781C55.9224 26.4292 55.3385 26.5655 54.7751 26.7708C54.6946 26.7914 54.5322 26.8295 54.4503 26.8486C54.3039 26.9043 54.1576 26.96 54.0113 27.0128C53.8635 27.0568 53.7157 27.1008 53.5679 27.1448C53.4918 27.1961 53.4157 27.246 53.3411 27.2973C53.4698 27.551 53.5913 27.809 53.7025 28.0715C53.8693 28.4543 54.0435 28.8355 54.2161 29.2153C54.4298 29.7153 54.6595 30.2095 54.8658 30.7125C55.0663 31.148 55.2653 31.5865 55.4482 32.0308C55.8272 32.8476 56.1755 33.679 56.5501 34.4972C58.372 38.6178 60.2231 42.7251 62.0493 46.8442C62.2425 47.2841 62.4459 47.7196 62.6332 48.1625C62.8263 48.6024 63.0268 49.0394 63.2214 49.4793C63.4321 49.9354 63.5682 50.4559 63.9765 50.7844C64.3423 50.4809 64.496 50.0248 64.6657 49.5996C64.8867 49.123 65.0959 48.642 65.3067 48.161C67.2895 43.7017 69.2913 39.2483 71.2683 34.7861C71.4614 34.3462 71.6604 33.9092 71.8521 33.4693C72.0453 33.0294 72.2443 32.5909 72.436 32.151C72.6306 31.7111 72.8267 31.2727 73.0199 30.8313C73.2306 30.3518 73.4428 29.8723 73.6535 29.3927C73.8466 28.9514 74.0471 28.5144 74.2344 28.0715C74.3573 27.8032 74.4788 27.5334 74.6163 27.2709C74.3895 27.1844 74.17 27.0846 73.9447 26.9996C73.794 26.9527 73.6462 26.9028 73.4984 26.8515C73.4179 26.831 73.2554 26.7899 73.1735 26.7694C72.6101 26.5685 72.0263 26.4394 71.4512 26.2767C71.0122 26.1916 70.5746 26.0904 70.1415 25.979C69.5562 25.8837 68.9679 25.803 68.387 25.6828C67.9948 25.6491 67.5997 25.6227 67.2163 25.5332C66.4861 25.4658 65.7486 25.5054 65.0242 25.3807C63.5873 25.3059 62.1576 25.4775 60.725 25.5347ZM47.8097 29.7285C43.3246 32.3578 39.5009 36.0707 36.6226 40.3994C36.7001 40.7543 36.8684 41.0769 37.0352 41.3951C37.2562 41.8248 37.4611 42.2632 37.6718 42.6973C37.9132 43.1856 38.1547 43.6739 38.4034 44.1593C40.954 49.3532 43.5631 54.5207 46.1035 59.7206C46.1752 59.8569 46.2454 59.9933 46.3156 60.1311C46.6068 60.7192 46.898 61.3101 47.1834 61.9025C49.1837 65.9439 51.1958 69.9794 53.1962 74.0208C53.2811 74.2671 53.4932 74.3771 53.7449 74.3727C53.9703 73.9562 54.1708 73.5251 54.3566 73.0896C54.5176 72.6849 54.699 72.289 54.8717 71.8886C55.0385 71.5074 55.198 71.1232 55.3663 70.7419C55.5375 70.3401 55.7204 69.9442 55.8843 69.5395C56.0555 69.1612 56.2194 68.7784 56.3848 68.3957C57.6608 65.4585 58.9456 62.5243 60.2362 59.593C60.3723 59.2733 60.6928 59.0358 61.0513 59.0812C63.0034 59.0783 64.9569 59.0768 66.9105 59.0827C67.2924 59.0358 67.6099 59.3158 67.7402 59.6546C69.0147 62.5683 70.2981 65.4776 71.5595 68.3972C71.7263 68.7799 71.8916 69.1626 72.0643 69.5424C72.2282 69.9457 72.4082 70.3431 72.5809 70.7419C72.7477 71.1232 72.9072 71.5088 73.0725 71.8916C73.4501 72.7054 73.7457 73.5588 74.192 74.339L74.549 74.3507C76.1689 71.2317 77.6937 68.0599 79.2697 64.916C82.7744 57.7923 86.3156 50.6861 89.8378 43.5712C90.1115 43.0521 90.3412 42.5125 90.6193 41.9963C90.868 41.4934 91.0729 40.9625 91.4095 40.508C91.1139 40.1458 90.8651 39.7528 90.6017 39.37C87.8419 35.4709 84.2553 32.1627 80.1492 29.7329C79.9955 29.6376 79.8302 29.5658 79.6546 29.5306C77.84 33.5368 76.0343 37.5503 74.2388 41.5652C74.0076 42.1034 73.753 42.6298 73.5262 43.168C73.3564 43.5522 73.1837 43.9349 73.0052 44.3147C72.7916 44.8162 72.5633 45.3118 72.354 45.8148C72.1331 46.2914 71.9165 46.7694 71.7058 47.2504C70.4693 50.0204 69.2254 52.786 67.9787 55.5502C67.8411 55.8449 67.7343 56.1602 67.5368 56.4212C67.3056 56.6749 66.9236 56.6617 66.6105 56.6763C64.8004 56.6705 62.9902 56.6807 61.1816 56.6719C60.8011 56.6807 60.3723 56.5488 60.2406 56.1514C58.9002 53.1863 57.5642 50.2198 56.2384 47.2504C56.0263 46.7694 55.8111 46.2914 55.5946 45.8133C55.3809 45.3118 55.1512 44.8191 54.9302 44.322C54.7166 43.8411 54.5059 43.3601 54.2922 42.8791C52.3167 38.4096 50.2695 33.9693 48.3014 29.4969C48.136 29.5687 47.9692 29.6406 47.8097 29.7285ZM94.459 46.702C93.8064 48.1346 93.0659 49.5262 92.3855 50.9457C92.1865 51.3358 91.9904 51.7258 91.8016 52.1203C91.6114 52.5118 91.4168 52.9019 91.228 53.2948C91.1534 53.4342 91.0787 53.5749 91.0041 53.7142C90.9353 53.8653 90.8651 54.0163 90.7934 54.1659C90.7554 54.2421 90.6807 54.3932 90.6427 54.4694C90.5695 54.6073 90.4978 54.748 90.4261 54.8873C90.3134 55.1454 90.189 55.3976 90.0676 55.6513C87.6824 60.4904 85.2474 65.306 82.8666 70.148C82.83 70.2214 82.7583 70.3665 82.7217 70.4398C82.6193 70.6334 82.5256 70.8314 82.429 71.0293C82.3295 71.2229 82.2344 71.4194 82.1422 71.6188C82.0456 71.8124 81.9461 72.0059 81.8539 72.2039C81.8188 72.2772 81.7471 72.4253 81.7105 72.4987C81.6403 72.635 81.5686 72.7714 81.4984 72.9078C81.2628 73.4005 81.014 73.8859 80.7755 74.3771C78.9888 78.0372 77.1581 81.6753 75.3363 85.3178C75.0846 85.941 74.2842 86.271 73.7003 85.8868C73.0989 85.463 72.954 84.6843 72.6467 84.0596C72.4272 83.5831 72.2136 83.1021 72.0043 82.6211C69.8371 77.7175 67.6392 72.8271 65.4647 67.9265C65.273 67.4851 65.0681 67.0496 64.8823 66.6052C64.6862 66.1639 64.4784 65.7269 64.3175 65.2708C64.1916 65.0905 63.9619 64.9614 63.757 65.1095C63.4482 65.6404 63.2463 66.2254 62.9931 66.7841C60.7967 71.7244 58.5783 76.6544 56.3979 81.602C56.2267 81.9803 56.0541 82.3601 55.8829 82.7399C55.6751 83.2414 55.4439 83.7326 55.2317 84.2341C55.0253 84.6697 54.8702 85.1345 54.6068 85.5436C54.3229 85.9586 53.7596 86.1727 53.2825 85.9806C52.9299 85.8648 52.7191 85.5319 52.5523 85.2225C50.7422 81.5639 48.9013 77.9199 47.1029 74.2569C47.0107 74.0604 46.9141 73.8653 46.819 73.6718C46.6317 73.2773 46.4356 72.8872 46.2381 72.4987C46.2015 72.4253 46.1298 72.2772 46.0932 72.2024C46.001 72.0059 45.9 71.8138 45.802 71.6203C45.7069 71.4238 45.6103 71.2288 45.5108 71.0352C45.4391 70.8754 45.3659 70.7185 45.2913 70.5616C45.1698 70.3269 45.0528 70.0923 44.9343 69.8577C44.7894 69.5629 44.6474 69.2682 44.4953 68.9779C42.1203 64.127 39.6648 59.3158 37.2972 54.4606C37.262 54.3858 37.1889 54.2377 37.1523 54.1644C36.9869 53.8154 36.8128 53.4708 36.6431 53.1233C36.4675 52.7904 36.3065 52.4502 36.1309 52.1173C36.0636 51.9619 35.9933 51.8065 35.9246 51.6525C35.8499 51.5161 35.7782 51.3797 35.7065 51.2434C34.9734 49.7521 34.2417 48.2607 33.4954 46.7768C33.213 47.2284 33.0974 47.7534 32.9233 48.2505C30.2922 56.3684 31.0927 65.5201 35.0583 73.0705C35.0729 73.1101 35.1022 73.1908 35.1183 73.2304C35.4958 73.8829 35.8455 74.5516 36.2465 75.1909C39.7863 80.9876 45.1698 85.6345 51.4065 88.3019C51.6509 88.4002 51.8938 88.5013 52.1397 88.5966C52.3197 88.6714 52.5011 88.7404 52.6826 88.8151C52.8904 88.8855 53.0996 88.9618 53.3089 89.0336C53.4552 89.0864 53.6015 89.1392 53.7479 89.1935C53.8942 89.2404 54.0405 89.2873 54.1883 89.3328C54.5644 89.4516 54.9463 89.5513 55.3209 89.67C55.9033 89.827 56.4901 89.9677 57.0769 90.1085C57.3198 90.151 57.5642 90.1965 57.8057 90.2522C58.05 90.2991 58.2973 90.346 58.5417 90.4062C59.7182 90.5499 60.8889 90.7669 62.08 90.7728C63.2887 90.8974 64.515 90.9165 65.7252 90.7816C66.9602 90.7581 68.185 90.5851 69.4025 90.3959C69.6469 90.3372 69.8942 90.2962 70.1415 90.2537C70.3829 90.195 70.6273 90.1525 70.8732 90.1085C71.4585 89.9663 72.0453 89.827 72.6277 89.67C73.0023 89.5513 73.3813 89.4486 73.7559 89.3298C73.9052 89.2756 74.053 89.2243 74.2037 89.1729C74.2798 89.1524 74.432 89.1099 74.5095 89.0894C74.9427 88.9237 75.3802 88.7682 75.8119 88.5981C76.0548 88.4984 76.2992 88.3972 76.5435 88.2975C80.1331 86.7754 83.4256 84.5744 86.2571 81.8938C90.2344 78.1662 93.2137 73.4019 94.9302 68.2285C97.2115 61.2837 97.1179 53.5265 94.459 46.702Z" fill="#737B7F"/>
</svg>
