<svg width="73" height="73" viewBox="0 0 73 73" fill="none" xmlns="http://www.w3.org/2000/svg">
<path d="M35.8571 0.0446777H38.472C43.8541 0.310094 49.1865 1.72222 53.9423 4.27374C62.1852 8.63331 68.5668 16.3612 71.3412 25.2739C72.0817 27.6567 72.5894 30.1173 72.8031 32.6043C73.0153 34.5502 72.8894 36.5196 72.9026 38.4743C72.5704 43.9791 70.9432 49.4062 68.1702 54.1734C65.4879 58.8233 61.7638 62.8662 57.3416 65.903C51.7956 69.723 45.1623 71.8859 38.4471 72.1909H35.4722C33.9606 72.0853 32.446 71.9592 30.952 71.6967C23.47 70.4445 16.4022 66.7609 11.1415 61.2751C5.01016 54.9902 1.25966 46.3854 1.01382 37.5857C0.871881 36.5137 0.945047 35.4345 1.02846 34.3611C1.00504 33.3713 1.19674 32.399 1.2304 31.4136L1.30356 31.3242C2.46252 21.5771 7.99681 12.5163 15.9324 6.80765C21.7067 2.63285 28.7438 0.269035 35.8571 0.0446777V0.0446777ZM33.725 3.53468C33.3431 3.62266 32.9524 3.64906 32.5631 3.68425C31.9836 3.80156 31.3939 3.86315 30.8159 3.98779C30.5774 4.04645 30.3345 4.09191 30.0945 4.13883C29.8984 4.19162 29.6994 4.23415 29.5004 4.27814C28.9224 4.42917 28.3385 4.56555 27.7751 4.77084C27.6946 4.79137 27.5322 4.8295 27.4503 4.84856C27.3039 4.90428 27.1576 4.96001 27.0113 5.0128C26.8635 5.05679 26.7157 5.10078 26.5679 5.14477C26.4918 5.19609 26.4157 5.24595 26.3411 5.29728C26.4698 5.55096 26.5913 5.80904 26.7025 6.07153C26.8693 6.45425 27.0435 6.83552 27.2161 7.21531C27.4298 7.71535 27.6595 8.20952 27.8658 8.71249C28.0663 9.14801 28.2653 9.58646 28.4482 10.0308C28.8272 10.8476 29.1755 11.679 29.5501 12.4972C31.372 16.6178 33.2231 20.7251 35.0493 24.8442C35.2425 25.2841 35.4459 25.7196 35.6332 26.1625C35.8263 26.6024 36.0268 27.0394 36.2214 27.4793C36.4321 27.9354 36.5682 28.4559 36.9765 28.7844C37.3423 28.4809 37.496 28.0248 37.6657 27.5996C37.8867 27.123 38.0959 26.642 38.3067 26.161C40.2895 21.7017 42.2913 17.2483 44.2683 12.7861C44.4614 12.3462 44.6604 11.9092 44.8521 11.4693C45.0453 11.0294 45.2443 10.5909 45.436 10.151C45.6306 9.7111 45.8267 9.27265 46.0199 8.83127C46.2306 8.35176 46.4428 7.87225 46.6535 7.39274C46.8466 6.95136 47.0471 6.51438 47.2344 6.07153C47.3573 5.80318 47.4788 5.53336 47.6163 5.27088C47.3895 5.18436 47.17 5.08465 46.9447 4.9996C46.794 4.95267 46.6462 4.90282 46.4984 4.85149C46.4179 4.83096 46.2554 4.78991 46.1735 4.76938C45.6101 4.56848 45.0263 4.43944 44.4512 4.27667C44.0122 4.19162 43.5746 4.09044 43.1415 3.97899C42.5562 3.88368 41.9679 3.80303 41.387 3.68278C40.9948 3.64906 40.5997 3.62266 40.2163 3.53321C39.4861 3.46576 38.7486 3.50535 38.0242 3.38071C36.5873 3.30592 35.1576 3.47749 33.725 3.53468ZM20.8097 7.72855C16.3246 10.3578 12.5009 14.0707 9.62257 18.3994C9.70012 18.7543 9.8684 19.0769 10.0352 19.3951C10.2562 19.8248 10.4611 20.2632 10.6718 20.6973C10.9132 21.1856 11.1547 21.6739 11.4034 22.1593C13.954 27.3532 16.5631 32.5207 19.1035 37.7206C19.1752 37.8569 19.2454 37.9933 19.3156 38.1311C19.6068 38.7192 19.898 39.3101 20.1834 39.9025C22.1837 43.9439 24.1958 47.9794 26.1962 52.0208C26.2811 52.2671 26.4932 52.3771 26.7449 52.3727C26.9703 51.9562 27.1708 51.5251 27.3566 51.0896C27.5176 50.6849 27.699 50.289 27.8717 49.8886C28.0385 49.5074 28.198 49.1232 28.3663 48.7419C28.5375 48.3401 28.7204 47.9442 28.8843 47.5395C29.0555 47.1612 29.2194 46.7784 29.3848 46.3957C30.6608 43.4585 31.9456 40.5243 33.2362 37.593C33.3723 37.2733 33.6928 37.0358 34.0513 37.0812C36.0034 37.0783 37.9569 37.0768 39.9105 37.0827C40.2924 37.0358 40.6099 37.3158 40.7402 37.6546C42.0147 40.5683 43.2981 43.4776 44.5595 46.3972C44.7263 46.7799 44.8916 47.1626 45.0643 47.5424C45.2282 47.9457 45.4082 48.3431 45.5809 48.7419C45.7477 49.1232 45.9072 49.5088 46.0725 49.8916C46.4501 50.7054 46.7457 51.5588 47.192 52.339L47.549 52.3507C49.1689 49.2317 50.6937 46.0599 52.2697 42.916C55.7744 35.7923 59.3156 28.6861 62.8378 21.5712C63.1115 21.0521 63.3412 20.5125 63.6193 19.9963C63.868 19.4934 64.0729 18.9625 64.4095 18.508C64.1139 18.1458 63.8651 17.7528 63.6017 17.37C60.8419 13.4709 57.2553 10.1627 53.1492 7.73294C52.9955 7.63763 52.8302 7.56578 52.6546 7.53058C50.84 11.5368 49.0343 15.5503 47.2388 19.5652C47.0076 20.1034 46.753 20.6298 46.5262 21.168C46.3564 21.5522 46.1837 21.9349 46.0052 22.3147C45.7916 22.8162 45.5633 23.3118 45.354 23.8148C45.1331 24.2914 44.9165 24.7694 44.7058 25.2504C43.4693 28.0204 42.2254 30.786 40.9787 33.5502C40.8411 33.8449 40.7343 34.1602 40.5368 34.4212C40.3056 34.6749 39.9236 34.6617 39.6105 34.6763C37.8004 34.6705 35.9902 34.6807 34.1816 34.6719C33.8011 34.6807 33.3723 34.5488 33.2406 34.1514C31.9002 31.1863 30.5642 28.2198 29.2384 25.2504C29.0263 24.7694 28.8111 24.2914 28.5946 23.8133C28.3809 23.3118 28.1512 22.8191 27.9302 22.322C27.7166 21.8411 27.5059 21.3601 27.2922 20.8791C25.3167 16.4096 23.2695 11.9693 21.3014 7.49686C21.136 7.56871 20.9692 7.64056 20.8097 7.72855ZM67.459 24.702C66.8064 26.1346 66.0659 27.5262 65.3855 28.9457C65.1865 29.3358 64.9904 29.7258 64.8016 30.1203C64.6114 30.5118 64.4168 30.9019 64.228 31.2948C64.1534 31.4342 64.0787 31.5749 64.0041 31.7142C63.9353 31.8653 63.8651 32.0163 63.7934 32.1659C63.7554 32.2421 63.6807 32.3932 63.6427 32.4694C63.5695 32.6073 63.4978 32.748 63.4261 32.8873C63.3134 33.1454 63.189 33.3976 63.0676 33.6513C60.6824 38.4904 58.2474 43.306 55.8666 48.148C55.83 48.2214 55.7583 48.3665 55.7217 48.4398C55.6193 48.6334 55.5256 48.8314 55.429 49.0293C55.3295 49.2229 55.2344 49.4194 55.1422 49.6188C55.0456 49.8124 54.9461 50.0059 54.8539 50.2039C54.8188 50.2772 54.7471 50.4253 54.7105 50.4987C54.6403 50.635 54.5686 50.7714 54.4984 50.9078C54.2628 51.4005 54.014 51.8859 53.7755 52.3771C51.9888 56.0372 50.1581 59.6753 48.3363 63.3178C48.0846 63.941 47.2842 64.271 46.7003 63.8868C46.0989 63.463 45.954 62.6843 45.6467 62.0596C45.4272 61.5831 45.2136 61.1021 45.0043 60.6211C42.8371 55.7175 40.6392 50.8271 38.4647 45.9265C38.273 45.4851 38.0681 45.0496 37.8823 44.6052C37.6862 44.1639 37.4784 43.7269 37.3175 43.2708C37.1916 43.0905 36.9619 42.9614 36.757 43.1095C36.4482 43.6404 36.2463 44.2254 35.9931 44.7841C33.7967 49.7244 31.5783 54.6544 29.3979 59.602C29.2267 59.9803 29.0541 60.3601 28.8829 60.7399C28.6751 61.2414 28.4439 61.7326 28.2317 62.2341C28.0253 62.6697 27.8702 63.1345 27.6068 63.5436C27.3229 63.9586 26.7596 64.1727 26.2825 63.9806C25.9299 63.8648 25.7191 63.5319 25.5523 63.2225C23.7422 59.5639 21.9013 55.9199 20.1029 52.2569C20.0107 52.0604 19.9141 51.8653 19.819 51.6718C19.6317 51.2773 19.4356 50.8872 19.2381 50.4987C19.2015 50.4253 19.1298 50.2772 19.0932 50.2024C19.001 50.0059 18.9 49.8138 18.802 49.6203C18.7069 49.4238 18.6103 49.2288 18.5108 49.0352C18.4391 48.8754 18.3659 48.7185 18.2913 48.5616C18.1698 48.3269 18.0528 48.0923 17.9343 47.8577C17.7894 47.5629 17.6474 47.2682 17.4953 46.9779C15.1203 42.127 12.6648 37.3158 10.2972 32.4606C10.262 32.3858 10.1889 32.2377 10.1523 32.1644C9.98693 31.8154 9.8128 31.4708 9.64305 31.1233C9.46745 30.7904 9.30649 30.4502 9.13089 30.1173C9.06357 29.9619 8.99334 29.8065 8.92456 29.6525C8.84993 29.5161 8.77823 29.3797 8.70652 29.2434C7.9734 27.7521 7.24173 26.2607 6.49544 24.7768C6.21302 25.2284 6.09741 25.7534 5.92328 26.2505C3.29222 34.3684 4.09266 43.5201 8.05827 51.0705C8.0729 51.1101 8.10217 51.1908 8.11827 51.2304C8.4958 51.8829 8.84554 52.5516 9.24649 53.1909C12.7863 58.9876 18.1698 63.6345 24.4065 66.3019C24.6509 66.4002 24.8938 66.5013 25.1397 66.5966C25.3197 66.6714 25.5011 66.7404 25.6826 66.8151C25.8904 66.8855 26.0996 66.9618 26.3089 67.0336C26.4552 67.0864 26.6015 67.1392 26.7479 67.1935C26.8942 67.2404 27.0405 67.2873 27.1883 67.3328C27.5644 67.4516 27.9463 67.5513 28.3209 67.67C28.9033 67.827 29.4901 67.9677 30.0769 68.1085C30.3198 68.151 30.5642 68.1965 30.8057 68.2522C31.05 68.2991 31.2973 68.346 31.5417 68.4062C32.7182 68.5499 33.8889 68.7669 35.08 68.7728C36.2887 68.8974 37.515 68.9165 38.7252 68.7816C39.9602 68.7581 41.185 68.5851 42.4025 68.3959C42.6469 68.3372 42.8942 68.2962 43.1415 68.2537C43.3829 68.195 43.6273 68.1525 43.8732 68.1085C44.4585 67.9663 45.0453 67.827 45.6277 67.67C46.0023 67.5513 46.3813 67.4486 46.7559 67.3298C46.9052 67.2756 47.053 67.2243 47.2037 67.1729C47.2798 67.1524 47.432 67.1099 47.5095 67.0894C47.9427 66.9237 48.3802 66.7682 48.8119 66.5981C49.0548 66.4984 49.2992 66.3972 49.5435 66.2975C53.1331 64.7754 56.4256 62.5744 59.2571 59.8938C63.2344 56.1662 66.2137 51.4019 67.9302 46.2285C70.2115 39.2837 70.1179 31.5265 67.459 24.702Z" fill="#737B7F"/>
</svg>
