<svg width="1780" height="37" viewBox="0 0 1780 37" fill="none" xmlns="http://www.w3.org/2000/svg">
<path d="M1780 21H1620.67L1575.14 36H-137" stroke="#C4C4C4" stroke-opacity="0.4"/>
<path d="M1647.86 16.1068C1647.95 16.0376 1648.06 16 1648.17 16H1668.25C1668.36 16 1668.46 16.0333 1668.55 16.0952L1674.75 20.5952C1675.14 20.8797 1674.94 21.5 1674.46 21.5H1642.45C1641.97 21.5 1641.76 20.9002 1642.14 20.6068L1647.86 16.1068Z" fill="#5E6368" fill-opacity="0.95"/>
<path d="M1351.86 31.1068C1351.95 31.0376 1352.06 31 1352.17 31H1372.25C1372.36 31 1372.46 31.0333 1372.55 31.0952L1378.75 35.5952C1379.14 35.8797 1378.94 36.5 1378.46 36.5H1346.45C1345.97 36.5 1345.76 35.9002 1346.14 35.6068L1351.86 31.1068Z" fill="#5E6368" fill-opacity="0.9"/>
<path d="M1473.96 12.3346C1474.07 12.4262 1474.14 12.558 1474.16 12.7165C1474.18 13.0229 1473.95 13.2987 1473.64 13.3255L1467.79 13.8376L1468.3 19.6913C1468.33 19.9978 1468.1 20.2735 1467.79 20.3003C1467.49 20.3271 1467.21 20.0957 1467.18 19.7893L1466.62 13.3756C1466.59 13.0692 1466.83 12.7934 1467.13 12.7666L1473.55 12.2055C1473.7 12.1916 1473.85 12.243 1473.96 12.3346Z" fill="#C4C4C4" fill-opacity="0.5"/>
<path d="M1467.58 13.0539L1477.25 21.1675C1477.48 21.3652 1477.51 21.7244 1477.31 21.96C1477.12 22.1955 1476.76 22.227 1476.52 22.0293L1466.85 13.9157C1466.62 13.7181 1466.59 13.3588 1466.78 13.1232C1466.98 12.8877 1467.34 12.8563 1467.58 13.0539Z" fill="#C4C4C4" fill-opacity="0.5"/>
<path opacity="0.8" d="M1487.14 20.8359L1486.04 24H1483.45L1487.97 11.6162H1491.02L1495.52 24H1492.96L1491.86 20.8359H1487.14ZM1489.5 13.5234C1489.44 13.7578 1489.35 14.0391 1489.25 14.3672C1489.14 14.6953 1489.07 14.9268 1489.02 15.0615L1487.72 18.8848H1491.28L1489.94 14.9824C1489.86 14.7422 1489.79 14.499 1489.71 14.2529C1489.64 14.0068 1489.57 13.7637 1489.5 13.5234ZM1508.19 20.4668C1508.19 21.5918 1507.77 22.4619 1506.92 23.0771C1506.08 23.6924 1504.91 24 1503.41 24H1497.21V11.6162H1502.88C1504.39 11.6162 1505.54 11.8799 1506.31 12.4072C1507.09 12.9287 1507.48 13.7021 1507.48 14.7275C1507.48 15.4307 1507.28 16.0254 1506.89 16.5117C1506.5 16.9922 1505.91 17.3174 1505.11 17.4873C1506.12 17.6045 1506.88 17.9209 1507.4 18.4365C1507.93 18.9463 1508.19 19.623 1508.19 20.4668ZM1504.87 15.0791C1504.87 14.5225 1504.69 14.127 1504.33 13.8926C1503.98 13.6582 1503.46 13.541 1502.76 13.541H1499.8V16.6084H1502.78C1503.51 16.6084 1504.04 16.4824 1504.37 16.2305C1504.7 15.9727 1504.87 15.5889 1504.87 15.0791ZM1505.59 20.2646C1505.59 19.1045 1504.76 18.5244 1503.09 18.5244H1499.8V22.0752H1503.19C1504.02 22.0752 1504.63 21.9258 1505.01 21.627C1505.39 21.3223 1505.59 20.8682 1505.59 20.2646ZM1522.26 17.751C1522.26 19.04 1522 20.168 1521.48 21.1348C1520.96 22.0957 1520.23 22.8428 1519.29 23.376C1518.35 23.9092 1517.25 24.1758 1515.99 24.1758C1514.69 24.1758 1513.58 23.918 1512.65 23.4023C1511.71 22.8809 1511 22.1396 1510.5 21.1787C1510 20.2178 1509.75 19.0752 1509.75 17.751C1509.75 16.4268 1510 15.293 1510.49 14.3496C1510.99 13.4062 1511.71 12.6855 1512.64 12.1875C1513.57 11.6836 1514.7 11.4316 1516 11.4316C1517.32 11.4316 1518.44 11.6865 1519.37 12.1963C1520.3 12.7002 1521.02 13.4238 1521.51 14.3672C1522.01 15.3105 1522.26 16.4385 1522.26 17.751ZM1519.62 17.751C1519.62 16.415 1519.3 15.3691 1518.67 14.6133C1518.03 13.8516 1517.15 13.4707 1516 13.4707C1514.84 13.4707 1513.95 13.8486 1513.31 14.6045C1512.68 15.3545 1512.36 16.4033 1512.36 17.751C1512.36 18.6533 1512.51 19.4326 1512.8 20.0889C1513.1 20.7451 1513.51 21.252 1514.05 21.6094C1514.6 21.9609 1515.24 22.1367 1515.99 22.1367C1517.15 22.1367 1518.04 21.7559 1518.67 20.9941C1519.3 20.2324 1519.62 19.1514 1519.62 17.751ZM1529.38 24.1758C1528.24 24.1758 1527.28 23.9912 1526.5 23.6221C1525.71 23.2471 1525.12 22.7021 1524.71 21.9873C1524.31 21.2666 1524.11 20.3906 1524.11 19.3594V11.6162H1526.7V19.1572C1526.7 20.1357 1526.93 20.8799 1527.39 21.3896C1527.86 21.8936 1528.55 22.1455 1529.45 22.1455C1530.38 22.1455 1531.09 21.8818 1531.59 21.3545C1532.08 20.8213 1532.33 20.0596 1532.33 19.0693V11.6162H1534.93V19.2275C1534.93 20.2705 1534.71 21.1611 1534.27 21.8994C1533.83 22.6377 1533.2 23.2031 1532.38 23.5957C1531.55 23.9824 1530.55 24.1758 1529.38 24.1758ZM1542.83 13.6201V24H1540.23V13.6201H1536.24V11.6162H1546.83V13.6201H1542.83ZM1558.4 24.1758C1557.26 24.1758 1556.3 23.9912 1555.52 23.6221C1554.73 23.2471 1554.14 22.7021 1553.73 21.9873C1553.33 21.2666 1553.13 20.3906 1553.13 19.3594V11.6162H1555.72V19.1572C1555.72 20.1357 1555.95 20.8799 1556.42 21.3896C1556.88 21.8936 1557.57 22.1455 1558.47 22.1455C1559.4 22.1455 1560.11 21.8818 1560.61 21.3545C1561.11 20.8213 1561.35 20.0596 1561.35 19.0693V11.6162H1563.95V19.2275C1563.95 20.2705 1563.73 21.1611 1563.29 21.8994C1562.85 22.6377 1562.22 23.2031 1561.4 23.5957C1560.57 23.9824 1559.57 24.1758 1558.4 24.1758ZM1576.36 20.4316C1576.36 21.6445 1575.91 22.5732 1575 23.2178C1574.11 23.8564 1572.79 24.1758 1571.05 24.1758C1567.91 24.1758 1566.09 23.042 1565.57 20.7744L1568.08 20.3613C1568.25 21.0176 1568.58 21.4951 1569.07 21.7939C1569.56 22.0869 1570.25 22.2334 1571.12 22.2334C1572.03 22.2334 1572.71 22.0957 1573.16 21.8203C1573.61 21.5449 1573.83 21.1318 1573.83 20.5811C1573.83 20.2295 1573.73 19.9395 1573.53 19.7109C1573.32 19.4824 1573.03 19.292 1572.65 19.1396C1572.46 19.0635 1572.19 18.9814 1571.82 18.8936C1571.46 18.7998 1571.01 18.6973 1570.47 18.5859C1569.85 18.4395 1569.36 18.3164 1569.01 18.2168C1568.66 18.1113 1568.38 18.0117 1568.17 17.918C1567.96 17.8184 1567.75 17.71 1567.55 17.5928C1567.11 17.3291 1566.77 16.9775 1566.52 16.5381C1566.28 16.0986 1566.15 15.5508 1566.15 14.8945C1566.15 13.7754 1566.57 12.9199 1567.41 12.3281C1568.25 11.7305 1569.48 11.4316 1571.08 11.4316C1572.62 11.4316 1573.77 11.6719 1574.54 12.1523C1575.31 12.6328 1575.81 13.4268 1576.03 14.5342L1573.52 14.877C1573.39 14.3438 1573.13 13.9424 1572.73 13.6729C1572.33 13.4033 1571.77 13.2686 1571.03 13.2686C1570.25 13.2686 1569.66 13.3916 1569.26 13.6377C1568.87 13.8838 1568.68 14.2529 1568.68 14.7451C1568.68 15.0674 1568.76 15.3311 1568.92 15.5361C1569.09 15.7412 1569.34 15.917 1569.67 16.0635C1569.98 16.2041 1570.64 16.3828 1571.66 16.5996C1572.26 16.7285 1572.77 16.8516 1573.19 16.9688C1573.62 17.0801 1573.96 17.1885 1574.22 17.2939C1574.48 17.4053 1574.71 17.5225 1574.91 17.6455C1575.11 17.7686 1575.29 17.9004 1575.43 18.041C1575.73 18.3281 1575.96 18.6709 1576.12 19.0693C1576.28 19.4619 1576.36 19.916 1576.36 20.4316Z" fill="#C4C4C4" fill-opacity="0.5"/>
</svg>
