<svg width="1912" height="37" viewBox="0 0 1912 37" fill="none" xmlns="http://www.w3.org/2000/svg">
<path d="M1912 21H1752.67L1707.14 36H-5" stroke="#C4C4C4" stroke-opacity="0.4"/>
<path d="M1787.26 14.127C1787.35 14.0452 1787.47 14 1787.59 14H1811.72C1811.84 14 1811.95 14.0404 1812.04 14.1142L1819.93 20.6142C1820.29 20.9124 1820.08 21.5 1819.61 21.5H1780.31C1779.85 21.5 1779.64 20.9329 1779.98 20.627L1787.26 14.127Z" fill="#59595A" fill-opacity="0.9"/>
<path d="M1354.26 29.127C1354.35 29.0452 1354.47 29 1354.59 29H1378.72C1378.84 29 1378.95 29.0404 1379.04 29.1142L1386.93 35.6142C1387.29 35.9124 1387.08 36.5 1386.61 36.5H1347.31C1346.85 36.5 1346.64 35.9329 1346.98 35.627L1354.26 29.127Z" fill="#59595A" fill-opacity="0.9"/>
<path d="M1561.96 12.3347C1562.07 12.4263 1562.14 12.5581 1562.16 12.7166C1562.18 13.023 1561.95 13.2988 1561.64 13.3256L1555.79 13.8378L1556.3 19.6915C1556.33 19.9979 1556.1 20.2736 1555.79 20.3005C1555.48 20.3273 1555.21 20.0959 1555.18 19.7894L1554.62 13.3757C1554.59 13.0693 1554.83 12.7935 1555.13 12.7667L1561.55 12.2056C1561.7 12.1917 1561.85 12.2431 1561.96 12.3347Z" fill="#C4C4C4" fill-opacity="0.5"/>
<path d="M1555.58 13.0539L1565.25 21.1675C1565.48 21.3652 1565.51 21.7244 1565.31 21.96C1565.12 22.1955 1564.76 22.227 1564.52 22.0293L1554.85 13.9157C1554.62 13.7181 1554.59 13.3588 1554.78 13.1232C1554.98 12.8877 1555.34 12.8563 1555.58 13.0539Z" fill="#C4C4C4" fill-opacity="0.5"/>
<path opacity="0.8" d="M1577.99 22.1367C1579.56 22.1367 1580.64 21.3516 1581.25 19.7812L1583.51 20.6338C1583.02 21.8291 1582.31 22.7197 1581.36 23.3057C1580.42 23.8857 1579.3 24.1758 1577.99 24.1758C1576.66 24.1758 1575.54 23.9238 1574.6 23.4199C1573.67 22.9102 1572.96 22.1748 1572.47 21.2139C1571.98 20.2529 1571.74 19.0986 1571.74 17.751C1571.74 16.3916 1571.97 15.2432 1572.44 14.3057C1572.91 13.3682 1573.6 12.6562 1574.52 12.1699C1575.43 11.6777 1576.55 11.4316 1577.87 11.4316C1579.33 11.4316 1580.51 11.7246 1581.42 12.3105C1582.34 12.8906 1582.98 13.7461 1583.35 14.877L1581.06 15.501C1580.87 14.8799 1580.49 14.3877 1579.92 14.0244C1579.36 13.6553 1578.69 13.4707 1577.93 13.4707C1576.75 13.4707 1575.86 13.834 1575.25 14.5605C1574.65 15.2871 1574.35 16.3506 1574.35 17.751C1574.35 18.7002 1574.49 19.5 1574.76 20.1504C1575.04 20.8008 1575.45 21.2959 1575.99 21.6357C1576.54 21.9697 1577.2 22.1367 1577.99 22.1367ZM1588.15 20.8359L1587.05 24H1584.46L1588.97 11.6162H1592.03L1596.53 24H1593.97L1592.87 20.8359H1588.15ZM1590.5 13.5234C1590.44 13.7578 1590.36 14.0391 1590.26 14.3672C1590.15 14.6953 1590.08 14.9268 1590.03 15.0615L1588.73 18.8848H1592.29L1590.95 14.9824C1590.87 14.7422 1590.79 14.499 1590.72 14.2529C1590.65 14.0068 1590.58 13.7637 1590.5 13.5234ZM1600.81 19.2979V24H1598.22V11.6162H1604.41C1605.88 11.6162 1607.02 11.9355 1607.83 12.5742C1608.63 13.207 1609.03 14.1182 1609.03 15.3076C1609.03 16.1748 1608.78 16.9248 1608.29 17.5576C1607.8 18.1846 1607.13 18.5977 1606.3 18.7969L1609.65 24H1606.73L1603.85 19.2979H1600.81ZM1606.42 15.4131C1606.42 14.8213 1606.23 14.376 1605.85 14.0771C1605.47 13.7783 1604.9 13.6289 1604.13 13.6289H1600.81V17.2852H1604.21C1604.93 17.2852 1605.48 17.1211 1605.86 16.793C1606.23 16.4648 1606.42 16.0049 1606.42 15.4131ZM1621.83 13.6201V24H1619.23V13.6201H1615.24V11.6162H1625.83V13.6201H1621.83ZM1629.83 19.2979V24H1627.24V11.6162H1633.43C1634.91 11.6162 1636.04 11.9355 1636.85 12.5742C1637.65 13.207 1638.05 14.1182 1638.05 15.3076C1638.05 16.1748 1637.81 16.9248 1637.31 17.5576C1636.82 18.1846 1636.16 18.5977 1635.32 18.7969L1638.67 24H1635.75L1632.88 19.2979H1629.83ZM1635.44 15.4131C1635.44 14.8213 1635.25 14.376 1634.87 14.0771C1634.49 13.7783 1633.92 13.6289 1633.16 13.6289H1629.83V17.2852H1633.23C1633.95 17.2852 1634.5 17.1211 1634.88 16.793C1635.25 16.4648 1635.44 16.0049 1635.44 15.4131ZM1643.18 20.8359L1642.09 24H1639.49L1644.01 11.6162H1647.07L1651.57 24H1649L1647.9 20.8359H1643.18ZM1645.54 13.5234C1645.48 13.7578 1645.4 14.0391 1645.29 14.3672C1645.19 14.6953 1645.11 14.9268 1645.07 15.0615L1643.76 18.8848H1647.32L1645.99 14.9824C1645.91 14.7422 1645.83 14.499 1645.76 14.2529C1645.69 14.0068 1645.62 13.7637 1645.54 13.5234ZM1659.04 22.1367C1660.61 22.1367 1661.7 21.3516 1662.3 19.7812L1664.56 20.6338C1664.07 21.8291 1663.36 22.7197 1662.42 23.3057C1661.48 23.8857 1660.35 24.1758 1659.04 24.1758C1657.72 24.1758 1656.59 23.9238 1655.66 23.4199C1654.72 22.9102 1654.01 22.1748 1653.52 21.2139C1653.03 20.2529 1652.79 19.0986 1652.79 17.751C1652.79 16.3916 1653.03 15.2432 1653.49 14.3057C1653.96 13.3682 1654.65 12.6562 1655.57 12.1699C1656.48 11.6777 1657.6 11.4316 1658.93 11.4316C1660.38 11.4316 1661.56 11.7246 1662.48 12.3105C1663.39 12.8906 1664.03 13.7461 1664.4 14.877L1662.12 15.501C1661.92 14.8799 1661.54 14.3877 1660.97 14.0244C1660.41 13.6553 1659.75 13.4707 1658.98 13.4707C1657.81 13.4707 1656.92 13.834 1656.31 14.5605C1655.7 15.2871 1655.4 16.3506 1655.4 17.751C1655.4 18.7002 1655.54 19.5 1655.81 20.1504C1656.1 20.8008 1656.51 21.2959 1657.04 21.6357C1657.59 21.9697 1658.25 22.1367 1659.04 22.1367ZM1668.86 19.4824V24H1666.26V11.6162H1668.86V17.2324L1674.44 11.6162H1677.46L1672.17 16.8545L1677.89 24H1674.83L1670.39 18.3135L1668.86 19.4824ZM1681.87 11.6162V24H1679.27V11.6162H1681.87ZM1686.58 16.6963V24H1684.28V11.6162H1687.24L1692.72 21.2314C1692.61 20.3408 1692.56 19.5352 1692.56 18.8145V11.6162H1694.86V24H1691.82L1686.43 14.4639C1686.48 14.9268 1686.52 15.3457 1686.54 15.7207C1686.57 16.0898 1686.58 16.415 1686.58 16.6963ZM1703.17 22.1455C1703.84 22.1455 1704.5 22.0488 1705.13 21.8555C1705.76 21.6562 1706.25 21.4043 1706.6 21.0996V19.3857H1703.57V17.4697H1708.97V22.0225C1708.31 22.6963 1707.46 23.2236 1706.4 23.6045C1705.36 23.9854 1704.25 24.1758 1703.1 24.1758C1701.76 24.1758 1700.62 23.9268 1699.68 23.4287C1698.75 22.9248 1698.04 22.1953 1697.55 21.2402C1697.07 20.2793 1696.82 19.1162 1696.82 17.751C1696.82 15.7119 1697.37 14.1504 1698.46 13.0664C1699.55 11.9766 1701.12 11.4316 1703.16 11.4316C1704.61 11.4316 1705.8 11.7012 1706.73 12.2402C1707.66 12.7734 1708.31 13.5791 1708.71 14.6572L1706.32 15.3779C1706.06 14.751 1705.65 14.2764 1705.1 13.9541C1704.55 13.6318 1703.91 13.4707 1703.16 13.4707C1701.94 13.4707 1701.02 13.8398 1700.38 14.5781C1699.75 15.3164 1699.43 16.374 1699.43 17.751C1699.43 19.1514 1699.76 20.2354 1700.41 21.0029C1701.07 21.7646 1701.99 22.1455 1703.17 22.1455Z" fill="#C4C4C4" fill-opacity="0.5"/>
</svg>
