<svg width="535" height="28" viewBox="0 0 535 28" fill="none" xmlns="http://www.w3.org/2000/svg">
<path d="M61.9567 6.33471C62.0659 6.42631 62.1413 6.55812 62.1551 6.71662C62.1819 7.02304 61.9505 7.29881 61.6441 7.32562L55.7904 7.83776L56.3026 13.6915C56.3294 13.9979 56.098 14.2736 55.7915 14.3005C55.4851 14.3273 55.2093 14.0959 55.1825 13.7894L54.6214 7.37573C54.5946 7.06931 54.826 6.79354 55.1324 6.76673L61.5461 6.2056C61.7046 6.19173 61.8475 6.24312 61.9567 6.33471Z" fill="#C4C4C4" fill-opacity="0.4"/>
<path d="M55.5758 7.05367L65.2452 15.1673C65.4808 15.3649 65.5122 15.7242 65.3146 15.9597C65.1169 16.1953 64.7577 16.2267 64.5221 16.0291L54.8527 7.91547C54.6171 7.71781 54.5857 7.35856 54.7834 7.123C54.981 6.88744 55.3403 6.85601 55.5758 7.05367Z" fill="#C4C4C4" fill-opacity="0.4"/>
<path opacity="0.8" d="M77.9873 16.1367C79.5576 16.1367 80.6445 15.3516 81.248 13.7812L83.5068 14.6338C83.0205 15.8291 82.3057 16.7197 81.3623 17.3057C80.4248 17.8857 79.2998 18.1758 77.9873 18.1758C76.6631 18.1758 75.5352 17.9238 74.6035 17.4199C73.6719 16.9102 72.96 16.1748 72.4678 15.2139C71.9814 14.2529 71.7383 13.0986 71.7383 11.751C71.7383 10.3916 71.9727 9.24316 72.4414 8.30566C72.9102 7.36816 73.6016 6.65625 74.5156 6.16992C75.4297 5.67773 76.5488 5.43164 77.873 5.43164C79.3262 5.43164 80.5098 5.72461 81.4238 6.31055C82.3379 6.89062 82.9795 7.74609 83.3486 8.87695L81.0635 9.50098C80.8701 8.87988 80.4893 8.3877 79.9209 8.02441C79.3584 7.65527 78.6934 7.4707 77.9258 7.4707C76.7539 7.4707 75.8633 7.83398 75.2539 8.56055C74.6504 9.28711 74.3486 10.3506 74.3486 11.751C74.3486 12.7002 74.4863 13.5 74.7617 14.1504C75.043 14.8008 75.4531 15.2959 75.9922 15.6357C76.5371 15.9697 77.2021 16.1367 77.9873 16.1367ZM97.2529 11.751C97.2529 13.04 96.9922 14.168 96.4707 15.1348C95.9551 16.0957 95.2256 16.8428 94.2822 17.376C93.3447 17.9092 92.2432 18.1758 90.9775 18.1758C89.6826 18.1758 88.5693 17.918 87.6377 17.4023C86.7061 16.8809 85.9912 16.1396 85.4932 15.1787C84.9951 14.2178 84.7461 13.0752 84.7461 11.751C84.7461 10.4268 84.9922 9.29297 85.4844 8.34961C85.9824 7.40625 86.6973 6.68555 87.6289 6.1875C88.5664 5.68359 89.6885 5.43164 90.9951 5.43164C92.3076 5.43164 93.4297 5.68652 94.3613 6.19629C95.293 6.7002 96.0078 7.42383 96.5059 8.36719C97.0039 9.31055 97.2529 10.4385 97.2529 11.751ZM94.6074 11.751C94.6074 10.415 94.291 9.36914 93.6582 8.61328C93.0254 7.85156 92.1377 7.4707 90.9951 7.4707C89.835 7.4707 88.9385 7.84863 88.3057 8.60449C87.6729 9.35449 87.3564 10.4033 87.3564 11.751C87.3564 12.6533 87.5029 13.4326 87.7959 14.0889C88.0889 14.7451 88.5049 15.252 89.0439 15.6094C89.5889 15.9609 90.2334 16.1367 90.9775 16.1367C92.1377 16.1367 93.0312 15.7559 93.6582 14.9941C94.291 14.2324 94.6074 13.1514 94.6074 11.751ZM101.524 10.6963V18H99.2217V5.61621H102.184L107.659 15.2314C107.554 14.3408 107.501 13.5352 107.501 12.8145V5.61621H109.804V18H106.763L101.366 8.46387C101.419 8.92676 101.457 9.3457 101.48 9.7207C101.51 10.0898 101.524 10.415 101.524 10.6963ZM117.819 7.62012V18H115.227V7.62012H111.228V5.61621H121.827V7.62012H117.819ZM124.833 14.8359L123.734 18H121.142L125.659 5.61621H128.718L133.218 18H130.651L129.553 14.8359H124.833ZM127.188 7.52344C127.13 7.75781 127.048 8.03906 126.942 8.36719C126.837 8.69531 126.761 8.92676 126.714 9.06152L125.413 12.8848H128.973L127.637 8.98242C127.555 8.74219 127.479 8.49902 127.408 8.25293C127.338 8.00684 127.265 7.76367 127.188 7.52344ZM140.688 16.1367C142.259 16.1367 143.346 15.3516 143.949 13.7812L146.208 14.6338C145.722 15.8291 145.007 16.7197 144.063 17.3057C143.126 17.8857 142.001 18.1758 140.688 18.1758C139.364 18.1758 138.236 17.9238 137.305 17.4199C136.373 16.9102 135.661 16.1748 135.169 15.2139C134.683 14.2529 134.439 13.0986 134.439 11.751C134.439 10.3916 134.674 9.24316 135.143 8.30566C135.611 7.36816 136.303 6.65625 137.217 6.16992C138.131 5.67773 139.25 5.43164 140.574 5.43164C142.027 5.43164 143.211 5.72461 144.125 6.31055C145.039 6.89062 145.681 7.74609 146.05 8.87695L143.765 9.50098C143.571 8.87988 143.19 8.3877 142.622 8.02441C142.06 7.65527 141.395 7.4707 140.627 7.4707C139.455 7.4707 138.564 7.83398 137.955 8.56055C137.352 9.28711 137.05 10.3506 137.05 11.751C137.05 12.7002 137.188 13.5 137.463 14.1504C137.744 14.8008 138.154 15.2959 138.693 15.6357C139.238 15.9697 139.903 16.1367 140.688 16.1367ZM153.503 7.62012V18H150.91V7.62012H146.911V5.61621H157.511V7.62012H153.503ZM169.077 18.1758C167.94 18.1758 166.979 17.9912 166.194 17.6221C165.409 17.2471 164.814 16.7021 164.41 15.9873C164.006 15.2666 163.804 14.3906 163.804 13.3594V5.61621H166.396V13.1572C166.396 14.1357 166.628 14.8799 167.091 15.3896C167.56 15.8936 168.245 16.1455 169.147 16.1455C170.073 16.1455 170.785 15.8818 171.283 15.3545C171.781 14.8213 172.03 14.0596 172.03 13.0693V5.61621H174.623V13.2275C174.623 14.2705 174.403 15.1611 173.964 15.8994C173.53 16.6377 172.9 17.2031 172.074 17.5957C171.248 17.9824 170.249 18.1758 169.077 18.1758ZM187.033 14.4316C187.033 15.6445 186.582 16.5732 185.68 17.2178C184.783 17.8564 183.465 18.1758 181.725 18.1758C178.59 18.1758 176.765 17.042 176.249 14.7744L178.754 14.3613C178.924 15.0176 179.255 15.4951 179.747 15.7939C180.239 16.0869 180.922 16.2334 181.795 16.2334C182.703 16.2334 183.383 16.0957 183.834 15.8203C184.285 15.5449 184.511 15.1318 184.511 14.5811C184.511 14.2295 184.408 13.9395 184.203 13.7109C183.998 13.4824 183.705 13.292 183.324 13.1396C183.137 13.0635 182.861 12.9814 182.498 12.8936C182.135 12.7998 181.684 12.6973 181.145 12.5859C180.523 12.4395 180.037 12.3164 179.686 12.2168C179.334 12.1113 179.053 12.0117 178.842 11.918C178.631 11.8184 178.426 11.71 178.227 11.5928C177.787 11.3291 177.444 10.9775 177.198 10.5381C176.952 10.0986 176.829 9.55078 176.829 8.89453C176.829 7.77539 177.248 6.91992 178.086 6.32812C178.93 5.73047 180.154 5.43164 181.76 5.43164C183.295 5.43164 184.446 5.67187 185.214 6.15234C185.987 6.63281 186.485 7.42676 186.708 8.53418L184.194 8.87695C184.065 8.34375 183.802 7.94238 183.403 7.67285C183.011 7.40332 182.445 7.26855 181.707 7.26855C180.922 7.26855 180.333 7.3916 179.94 7.6377C179.548 7.88379 179.352 8.25293 179.352 8.74512C179.352 9.06738 179.434 9.33105 179.598 9.53613C179.768 9.74121 180.017 9.91699 180.345 10.0635C180.655 10.2041 181.32 10.3828 182.34 10.5996C182.932 10.7285 183.441 10.8516 183.869 10.9688C184.297 11.0801 184.64 11.1885 184.897 11.2939C185.155 11.4053 185.384 11.5225 185.583 11.6455C185.788 11.7686 185.964 11.9004 186.11 12.041C186.409 12.3281 186.638 12.6709 186.796 13.0693C186.954 13.4619 187.033 13.916 187.033 14.4316Z" fill="#C4C4C4" fill-opacity="0.4"/>
<path d="M535 12H211L189 27H5" stroke="#C4C4C4" stroke-opacity="0.4"/>
<path d="M279.867 8.1C279.953 8.03509 280.058 8 280.167 8H297.344C297.446 8 297.545 8.03101 297.628 8.0889L302.684 11.5889C303.087 11.8679 302.89 12.5 302.399 12.5H275.5C275.019 12.5 274.816 11.8883 275.2 11.6L279.867 8.1Z" fill="#5C5C5E"/>
<path d="M14.8667 23.1C14.9532 23.0351 15.0585 23 15.1667 23H32.3438C32.4455 23 32.5448 23.031 32.6284 23.0889L37.684 26.5889C38.087 26.8679 37.8896 27.5 37.3994 27.5H10.5C10.0195 27.5 9.8156 26.8883 10.2 26.6L14.8667 23.1Z" fill="#5C5C5E"/>
</svg>
