<svg width="357" height="20" viewBox="0 0 357 20" fill="none" xmlns="http://www.w3.org/2000/svg">
<path d="M0 5H266.5L285 19.5H357" stroke="#C4C4C4" stroke-opacity="0.6"/>
<path d="M310.522 4.9831C310.607 5.05434 310.665 5.15686 310.676 5.28013C310.697 5.51846 310.517 5.73295 310.279 5.7538L305.726 6.15213L306.124 10.705C306.145 10.9433 305.965 11.1578 305.727 11.1787C305.488 11.1995 305.274 11.0195 305.253 10.7812L304.817 5.79278C304.796 5.55445 304.976 5.33996 305.214 5.31911L310.203 4.88268C310.326 4.87189 310.437 4.91185 310.522 4.9831Z" fill="#C4C4C4" fill-opacity="0.8"/>
<path d="M305.559 5.54261L313.08 11.8532C313.263 12.0069 313.287 12.2863 313.134 12.4695C312.98 12.6528 312.7 12.6772 312.517 12.5235L304.997 6.2129C304.813 6.05917 304.789 5.77975 304.943 5.59654C305.096 5.41333 305.376 5.38888 305.559 5.54261Z" fill="#C4C4C4" fill-opacity="0.8"/>
<path opacity="0.8" d="M320.531 10.9707V14H318.803V5.74414H324.891V7.08008H320.531V9.63477H324.756V10.9707H320.531ZM327.428 11.8906L326.695 14H324.967L327.979 5.74414H330.018L333.018 14H331.307L330.574 11.8906H327.428ZM328.998 7.01562C328.959 7.17188 328.904 7.35938 328.834 7.57812C328.764 7.79688 328.713 7.95117 328.682 8.04102L327.814 10.5898H330.188L329.297 7.98828C329.242 7.82812 329.191 7.66602 329.145 7.50195C329.098 7.33789 329.049 7.17578 328.998 7.01562ZM342.17 9.83398C342.17 10.5684 342.047 11.2227 341.801 11.7969C341.559 12.3711 341.209 12.8457 340.752 13.2207C340.295 13.5918 339.744 13.8438 339.1 13.9766C339.232 14.3633 339.418 14.6426 339.656 14.8145C339.898 14.9863 340.236 15.0723 340.67 15.0723C340.912 15.0723 341.145 15.0527 341.367 15.0137L341.355 16.1973C340.871 16.3066 340.398 16.3613 339.938 16.3613C339.301 16.3613 338.773 16.1836 338.355 15.8281C337.938 15.4727 337.602 14.8828 337.348 14.0586C336.605 13.9883 335.973 13.7734 335.449 13.4141C334.926 13.0547 334.525 12.5723 334.248 11.9668C333.971 11.3574 333.832 10.6465 333.832 9.83398C333.832 8.95117 333.996 8.19531 334.324 7.56641C334.656 6.9375 335.133 6.45703 335.754 6.125C336.379 5.78906 337.127 5.62109 337.998 5.62109C338.873 5.62109 339.621 5.79102 340.242 6.13086C340.863 6.4668 341.34 6.94922 341.672 7.57812C342.004 8.20703 342.17 8.95898 342.17 9.83398ZM340.406 9.83398C340.406 8.94336 340.195 8.24609 339.773 7.74219C339.352 7.23438 338.76 6.98047 337.998 6.98047C337.225 6.98047 336.627 7.23242 336.205 7.73633C335.783 8.23633 335.572 8.93555 335.572 9.83398C335.572 10.4355 335.668 10.957 335.859 11.3984C336.055 11.8359 336.332 12.1738 336.691 12.4121C337.055 12.6465 337.486 12.7637 337.986 12.7637C338.76 12.7637 339.355 12.5098 339.773 12.002C340.195 11.4941 340.406 10.7715 340.406 9.83398ZM348.861 12.1484C348.861 12.7617 348.609 13.2441 348.105 13.5957C347.605 13.9434 346.912 14.1172 346.025 14.1172C345.154 14.1172 344.486 13.9805 344.021 13.707C343.561 13.4297 343.254 13 343.102 12.418L344.549 12.2012C344.631 12.502 344.771 12.7148 344.971 12.8398C345.174 12.9648 345.525 13.0273 346.025 13.0273C346.486 13.0273 346.822 12.9688 347.033 12.8516C347.244 12.7344 347.35 12.5508 347.35 12.3008C347.35 12.0977 347.264 11.9375 347.092 11.8203C346.924 11.6992 346.637 11.5977 346.23 11.5156C345.922 11.4531 345.645 11.3926 345.398 11.334C345.156 11.2754 344.947 11.2188 344.771 11.1641C344.6 11.1055 344.459 11.0508 344.35 11C344.025 10.8398 343.777 10.6348 343.605 10.3848C343.438 10.1348 343.354 9.82617 343.354 9.45898C343.354 8.85352 343.586 8.38281 344.051 8.04688C344.52 7.70703 345.182 7.53711 346.037 7.53711C346.791 7.53711 347.396 7.68359 347.854 7.97656C348.314 8.26953 348.602 8.69336 348.715 9.24805L347.256 9.40039C347.209 9.14258 347.094 8.95117 346.91 8.82617C346.727 8.69727 346.436 8.63281 346.037 8.63281C345.646 8.63281 345.354 8.68359 345.158 8.78516C344.963 8.88281 344.865 9.04883 344.865 9.2832C344.865 9.4668 344.939 9.61328 345.088 9.72266C345.24 9.82812 345.494 9.91602 345.85 9.98633C346.346 10.0879 346.785 10.1934 347.168 10.3027C347.555 10.4082 347.865 10.5352 348.1 10.6836C348.33 10.832 348.514 11.0234 348.65 11.2578C348.791 11.4883 348.861 11.7852 348.861 12.1484Z" fill="#C4C4C4" fill-opacity="0.8"/>
<path d="M21.6593 0.121295C21.7501 0.0430449 21.8659 0 21.9858 0H38.542C38.6551 0 38.7648 0.0383388 38.8533 0.108757L43.88 4.10876C44.2503 4.40346 44.042 5 43.5687 5H17.3458C16.8823 5 16.6682 4.42393 17.0193 4.12129L21.6593 0.121295Z" fill="#D5D4D8"/>
</svg>
