<svg width="358" height="855" viewBox="0 0 358 855" fill="none" xmlns="http://www.w3.org/2000/svg">
<path d="M228.797 12.3184C224.785 12.3184 223.271 7.06978 226.667 4.93285L233.023 0.93285C233.661 0.531374 234.4 0.318359 235.154 0.318359H343.789C344.579 0.318359 345.351 0.552112 346.008 0.990158L352.008 4.99016C355.301 7.18545 353.747 12.3184 349.789 12.3184H228.797Z" fill="#2A0EFF"/>
<path d="M0 840H189.5L202.5 854.5H357" stroke="#C4C4C4" stroke-opacity="0.6"/>
<path d="M258.522 839.982C258.607 840.053 258.665 840.156 258.676 840.279C258.697 840.517 258.517 840.732 258.279 840.753L253.726 841.151L254.124 845.704C254.145 845.942 253.965 846.157 253.727 846.178C253.488 846.199 253.274 846.019 253.253 845.78L252.817 840.792C252.796 840.553 252.976 840.339 253.214 840.318L258.203 839.882C258.326 839.871 258.437 839.911 258.522 839.982Z" fill="#C4C4C4" fill-opacity="0.8"/>
<path d="M253.559 840.542L261.08 846.852C261.263 847.006 261.287 847.285 261.134 847.469C260.98 847.652 260.7 847.676 260.517 847.522L252.997 841.212C252.813 841.058 252.789 840.779 252.943 840.596C253.096 840.412 253.376 840.388 253.559 840.542Z" fill="#C4C4C4" fill-opacity="0.8"/>
<path opacity="0.8" d="M274.83 844.834C274.83 845.693 274.656 846.445 274.309 847.09C273.965 847.73 273.479 848.229 272.85 848.584C272.225 848.939 271.49 849.117 270.646 849.117C269.783 849.117 269.041 848.945 268.42 848.602C267.799 848.254 267.322 847.76 266.99 847.119C266.658 846.479 266.492 845.717 266.492 844.834C266.492 843.951 266.656 843.195 266.984 842.566C267.316 841.938 267.793 841.457 268.414 841.125C269.039 840.789 269.787 840.621 270.658 840.621C271.533 840.621 272.281 840.791 272.902 841.131C273.523 841.467 274 841.949 274.332 842.578C274.664 843.207 274.83 843.959 274.83 844.834ZM273.066 844.834C273.066 843.943 272.855 843.246 272.434 842.742C272.012 842.234 271.42 841.98 270.658 841.98C269.885 841.98 269.287 842.232 268.865 842.736C268.443 843.236 268.232 843.936 268.232 844.834C268.232 845.436 268.33 845.955 268.525 846.393C268.721 846.83 268.998 847.168 269.357 847.406C269.721 847.641 270.15 847.758 270.646 847.758C271.42 847.758 272.016 847.504 272.434 846.996C272.855 846.488 273.066 845.768 273.066 844.834ZM279.576 849.117C278.818 849.117 278.178 848.994 277.654 848.748C277.131 848.498 276.734 848.135 276.465 847.658C276.195 847.178 276.061 846.594 276.061 845.906V840.744H277.789V845.771C277.789 846.424 277.943 846.92 278.252 847.26C278.564 847.596 279.021 847.764 279.623 847.764C280.24 847.764 280.715 847.588 281.047 847.236C281.379 846.881 281.545 846.373 281.545 845.713V840.744H283.273V845.818C283.273 846.514 283.127 847.107 282.834 847.6C282.545 848.092 282.125 848.469 281.574 848.73C281.023 848.988 280.357 849.117 279.576 849.117ZM286.543 845.865V849H284.814V840.744H288.939C289.924 840.744 290.684 840.957 291.219 841.383C291.754 841.805 292.021 842.412 292.021 843.205C292.021 843.783 291.857 844.283 291.529 844.705C291.201 845.123 290.758 845.398 290.199 845.531L292.432 849H290.486L288.57 845.865H286.543ZM290.281 843.275C290.281 842.881 290.154 842.584 289.9 842.385C289.646 842.186 289.266 842.086 288.758 842.086H286.543V844.523H288.805C289.289 844.523 289.656 844.414 289.906 844.195C290.156 843.977 290.281 843.67 290.281 843.275ZM304.145 846.645C304.145 847.395 303.863 847.975 303.301 848.385C302.738 848.795 301.957 849 300.957 849H296.826V840.744H300.605C301.613 840.744 302.375 840.92 302.891 841.271C303.41 841.619 303.67 842.135 303.67 842.818C303.67 843.287 303.539 843.684 303.277 844.008C303.02 844.328 302.625 844.545 302.094 844.658C302.762 844.736 303.27 844.947 303.617 845.291C303.969 845.631 304.145 846.082 304.145 846.645ZM301.93 843.053C301.93 842.682 301.811 842.418 301.572 842.262C301.338 842.105 300.988 842.027 300.523 842.027H298.555V844.072H300.535C301.023 844.072 301.377 843.988 301.596 843.82C301.818 843.648 301.93 843.393 301.93 843.053ZM302.41 846.51C302.41 845.736 301.855 845.35 300.746 845.35H298.555V847.717H300.811C301.365 847.717 301.77 847.617 302.023 847.418C302.281 847.215 302.41 846.912 302.41 846.51ZM312.23 847.664V849H305.498V840.744H311.99V842.08H307.227V844.154H311.633V845.49H307.227V847.664H312.23ZM315.037 844.131V849H313.502V840.744H315.477L319.127 847.154C319.057 846.561 319.021 846.023 319.021 845.543V840.744H320.557V849H318.529L314.932 842.643C314.967 842.951 314.992 843.23 315.008 843.48C315.027 843.727 315.037 843.943 315.037 844.131ZM328.906 847.664V849H322.174V840.744H328.666V842.08H323.902V844.154H328.309V845.49H323.902V847.664H328.906ZM331.906 845.971V849H330.178V840.744H336.266V842.08H331.906V844.635H336.131V845.971H331.906ZM339.242 840.744V849H337.514V840.744H339.242ZM344.58 842.08V849H342.852V842.08H340.186V840.744H347.252V842.08H344.58ZM354.922 846.621C354.922 847.43 354.621 848.049 354.02 848.479C353.422 848.904 352.543 849.117 351.383 849.117C349.293 849.117 348.076 848.361 347.732 846.85L349.402 846.574C349.516 847.012 349.736 847.33 350.064 847.529C350.393 847.725 350.848 847.822 351.43 847.822C352.035 847.822 352.488 847.73 352.789 847.547C353.09 847.363 353.24 847.088 353.24 846.721C353.24 846.486 353.172 846.293 353.035 846.141C352.898 845.988 352.703 845.861 352.449 845.76C352.324 845.709 352.141 845.654 351.898 845.596C351.656 845.533 351.355 845.465 350.996 845.391C350.582 845.293 350.258 845.211 350.023 845.145C349.789 845.074 349.602 845.008 349.461 844.945C349.32 844.879 349.184 844.807 349.051 844.729C348.758 844.553 348.529 844.318 348.365 844.025C348.201 843.732 348.119 843.367 348.119 842.93C348.119 842.184 348.398 841.613 348.957 841.219C349.52 840.82 350.336 840.621 351.406 840.621C352.43 840.621 353.197 840.781 353.709 841.102C354.225 841.422 354.557 841.951 354.705 842.689L353.029 842.918C352.943 842.562 352.768 842.295 352.502 842.115C352.24 841.936 351.863 841.846 351.371 841.846C350.848 841.846 350.455 841.928 350.193 842.092C349.932 842.256 349.801 842.502 349.801 842.83C349.801 843.045 349.855 843.221 349.965 843.357C350.078 843.494 350.244 843.611 350.463 843.709C350.67 843.803 351.113 843.922 351.793 844.066C352.188 844.152 352.527 844.234 352.812 844.312C353.098 844.387 353.326 844.459 353.498 844.529C353.67 844.604 353.822 844.682 353.955 844.764C354.092 844.846 354.209 844.934 354.307 845.027C354.506 845.219 354.658 845.447 354.764 845.713C354.869 845.975 354.922 846.277 354.922 846.621Z" fill="#C4C4C4" fill-opacity="0.8"/>
</svg>
