<svg width="535" height="28" viewBox="0 0 535 28" fill="none" xmlns="http://www.w3.org/2000/svg">
<path d="M43.9567 6.33471C44.0659 6.42631 44.1413 6.55812 44.1551 6.71662C44.1819 7.02304 43.9505 7.29881 43.6441 7.32562L37.7904 7.83776L38.3026 13.6915C38.3294 13.9979 38.098 14.2736 37.7915 14.3005C37.4851 14.3273 37.2093 14.0959 37.1825 13.7894L36.6214 7.37573C36.5946 7.06931 36.826 6.79354 37.1324 6.76673L43.5461 6.2056C43.7046 6.19173 43.8475 6.24312 43.9567 6.33471Z" fill="#C4C4C4" fill-opacity="0.3"/>
<path d="M37.5758 7.05392L47.2452 15.1675C47.4808 15.3652 47.5122 15.7244 47.3146 15.96C47.1169 16.1955 46.7577 16.227 46.5221 16.0293L36.8527 7.91572C36.6171 7.71806 36.5857 7.35881 36.7834 7.12325C36.981 6.88769 37.3403 6.85626 37.5758 7.05392Z" fill="#C4C4C4" fill-opacity="0.3"/>
<path opacity="0.8" d="M66.2451 11.751C66.2451 13.04 65.9844 14.168 65.4629 15.1348C64.9473 16.0957 64.2178 16.8428 63.2744 17.376C62.3369 17.9092 61.2354 18.1758 59.9697 18.1758C58.6748 18.1758 57.5615 17.918 56.6299 17.4023C55.6982 16.8809 54.9834 16.1396 54.4854 15.1787C53.9873 14.2178 53.7383 13.0752 53.7383 11.751C53.7383 10.4268 53.9844 9.29297 54.4766 8.34961C54.9746 7.40625 55.6895 6.68555 56.6211 6.1875C57.5586 5.68359 58.6807 5.43164 59.9873 5.43164C61.2998 5.43164 62.4219 5.68652 63.3535 6.19629C64.2852 6.7002 65 7.42383 65.498 8.36719C65.9961 9.31055 66.2451 10.4385 66.2451 11.751ZM63.5996 11.751C63.5996 10.415 63.2832 9.36914 62.6504 8.61328C62.0176 7.85156 61.1299 7.4707 59.9873 7.4707C58.8271 7.4707 57.9307 7.84863 57.2979 8.60449C56.665 9.35449 56.3486 10.4033 56.3486 11.751C56.3486 12.6533 56.4951 13.4326 56.7881 14.0889C57.0811 14.7451 57.4971 15.252 58.0361 15.6094C58.5811 15.9609 59.2256 16.1367 59.9697 16.1367C61.1299 16.1367 62.0234 15.7559 62.6504 14.9941C63.2832 14.2324 63.5996 13.1514 63.5996 11.751ZM73.3643 18.1758C72.2275 18.1758 71.2666 17.9912 70.4814 17.6221C69.6963 17.2471 69.1016 16.7021 68.6973 15.9873C68.293 15.2666 68.0908 14.3906 68.0908 13.3594V5.61621H70.6836V13.1572C70.6836 14.1357 70.915 14.8799 71.3779 15.3896C71.8467 15.8936 72.5322 16.1455 73.4346 16.1455C74.3604 16.1455 75.0723 15.8818 75.5703 15.3545C76.0684 14.8213 76.3174 14.0596 76.3174 13.0693V5.61621H78.9102V13.2275C78.9102 14.2705 78.6904 15.1611 78.251 15.8994C77.8174 16.6377 77.1875 17.2031 76.3613 17.5957C75.5352 17.9824 74.5361 18.1758 73.3643 18.1758ZM83.8145 13.2979V18H81.2217V5.61621H87.4092C88.8857 5.61621 90.0254 5.93555 90.8281 6.57422C91.6309 7.20703 92.0322 8.11816 92.0322 9.30762C92.0322 10.1748 91.7861 10.9248 91.2939 11.5576C90.8018 12.1846 90.1367 12.5977 89.2988 12.7969L92.6475 18H89.7295L86.8555 13.2979H83.8145ZM89.4219 9.41309C89.4219 8.82129 89.2314 8.37598 88.8506 8.07715C88.4697 7.77832 87.8984 7.62891 87.1367 7.62891H83.8145V11.2852H87.207C87.9336 11.2852 88.4844 11.1211 88.8594 10.793C89.2344 10.4648 89.4219 10.0049 89.4219 9.41309ZM109.338 14.4316C109.338 15.6445 108.887 16.5732 107.984 17.2178C107.088 17.8564 105.77 18.1758 104.029 18.1758C100.895 18.1758 99.0693 17.042 98.5537 14.7744L101.059 14.3613C101.229 15.0176 101.56 15.4951 102.052 15.7939C102.544 16.0869 103.227 16.2334 104.1 16.2334C105.008 16.2334 105.688 16.0957 106.139 15.8203C106.59 15.5449 106.815 15.1318 106.815 14.5811C106.815 14.2295 106.713 13.9395 106.508 13.7109C106.303 13.4824 106.01 13.292 105.629 13.1396C105.441 13.0635 105.166 12.9814 104.803 12.8936C104.439 12.7998 103.988 12.6973 103.449 12.5859C102.828 12.4395 102.342 12.3164 101.99 12.2168C101.639 12.1113 101.357 12.0117 101.146 11.918C100.936 11.8184 100.73 11.71 100.531 11.5928C100.092 11.3291 99.749 10.9775 99.5029 10.5381C99.2568 10.0986 99.1338 9.55078 99.1338 8.89453C99.1338 7.77539 99.5527 6.91992 100.391 6.32812C101.234 5.73047 102.459 5.43164 104.064 5.43164C105.6 5.43164 106.751 5.67187 107.519 6.15234C108.292 6.63281 108.79 7.42676 109.013 8.53418L106.499 8.87695C106.37 8.34375 106.106 7.94238 105.708 7.67285C105.315 7.40332 104.75 7.26855 104.012 7.26855C103.227 7.26855 102.638 7.3916 102.245 7.6377C101.853 7.88379 101.656 8.25293 101.656 8.74512C101.656 9.06738 101.738 9.33105 101.902 9.53613C102.072 9.74121 102.321 9.91699 102.649 10.0635C102.96 10.2041 103.625 10.3828 104.645 10.5996C105.236 10.7285 105.746 10.8516 106.174 10.9688C106.602 11.0801 106.944 11.1885 107.202 11.2939C107.46 11.4053 107.688 11.5225 107.888 11.6455C108.093 11.7686 108.269 11.9004 108.415 12.041C108.714 12.3281 108.942 12.6709 109.101 13.0693C109.259 13.4619 109.338 13.916 109.338 14.4316ZM121.344 15.9961V18H111.245V5.61621H120.983V7.62012H113.838V10.7314H120.447V12.7354H113.838V15.9961H121.344ZM125.844 13.2979V18H123.251V5.61621H129.438C130.915 5.61621 132.055 5.93555 132.857 6.57422C133.66 7.20703 134.062 8.11816 134.062 9.30762C134.062 10.1748 133.815 10.9248 133.323 11.5576C132.831 12.1846 132.166 12.5977 131.328 12.7969L134.677 18H131.759L128.885 13.2979H125.844ZM131.451 9.41309C131.451 8.82129 131.261 8.37598 130.88 8.07715C130.499 7.77832 129.928 7.62891 129.166 7.62891H125.844V11.2852H129.236C129.963 11.2852 130.514 11.1211 130.889 10.793C131.264 10.4648 131.451 10.0049 131.451 9.41309ZM146.604 5.61621L142.051 18H139.423L134.844 5.61621H137.551L140.1 13.5703C140.182 13.8281 140.275 14.1533 140.381 14.5459C140.492 14.9326 140.615 15.3867 140.75 15.9082C140.943 15.1758 141.081 14.6455 141.163 14.3174C141.251 13.9893 141.324 13.7402 141.383 13.5703L143.923 5.61621H146.604ZM150.523 5.61621V18H147.931V5.61621H150.523ZM158.724 16.1367C160.294 16.1367 161.381 15.3516 161.984 13.7812L164.243 14.6338C163.757 15.8291 163.042 16.7197 162.099 17.3057C161.161 17.8857 160.036 18.1758 158.724 18.1758C157.399 18.1758 156.271 17.9238 155.34 17.4199C154.408 16.9102 153.696 16.1748 153.204 15.2139C152.718 14.2529 152.475 13.0986 152.475 11.751C152.475 10.3916 152.709 9.24316 153.178 8.30566C153.646 7.36816 154.338 6.65625 155.252 6.16992C156.166 5.67773 157.285 5.43164 158.609 5.43164C160.062 5.43164 161.246 5.72461 162.16 6.31055C163.074 6.89062 163.716 7.74609 164.085 8.87695L161.8 9.50098C161.606 8.87988 161.226 8.3877 160.657 8.02441C160.095 7.65527 159.43 7.4707 158.662 7.4707C157.49 7.4707 156.6 7.83398 155.99 8.56055C155.387 9.28711 155.085 10.3506 155.085 11.751C155.085 12.7002 155.223 13.5 155.498 14.1504C155.779 14.8008 156.189 15.2959 156.729 15.6357C157.273 15.9697 157.938 16.1367 158.724 16.1367ZM176.047 15.9961V18H165.948V5.61621H175.687V7.62012H168.541V10.7314H175.15V12.7354H168.541V15.9961H176.047ZM188.053 14.4316C188.053 15.6445 187.602 16.5732 186.699 17.2178C185.803 17.8564 184.484 18.1758 182.744 18.1758C179.609 18.1758 177.784 17.042 177.269 14.7744L179.773 14.3613C179.943 15.0176 180.274 15.4951 180.767 15.7939C181.259 16.0869 181.941 16.2334 182.814 16.2334C183.723 16.2334 184.402 16.0957 184.854 15.8203C185.305 15.5449 185.53 15.1318 185.53 14.5811C185.53 14.2295 185.428 13.9395 185.223 13.7109C185.018 13.4824 184.725 13.292 184.344 13.1396C184.156 13.0635 183.881 12.9814 183.518 12.8936C183.154 12.7998 182.703 12.6973 182.164 12.5859C181.543 12.4395 181.057 12.3164 180.705 12.2168C180.354 12.1113 180.072 12.0117 179.861 11.918C179.65 11.8184 179.445 11.71 179.246 11.5928C178.807 11.3291 178.464 10.9775 178.218 10.5381C177.972 10.0986 177.849 9.55078 177.849 8.89453C177.849 7.77539 178.268 6.91992 179.105 6.32812C179.949 5.73047 181.174 5.43164 182.779 5.43164C184.314 5.43164 185.466 5.67187 186.233 6.15234C187.007 6.63281 187.505 7.42676 187.728 8.53418L185.214 8.87695C185.085 8.34375 184.821 7.94238 184.423 7.67285C184.03 7.40332 183.465 7.26855 182.727 7.26855C181.941 7.26855 181.353 7.3916 180.96 7.6377C180.567 7.88379 180.371 8.25293 180.371 8.74512C180.371 9.06738 180.453 9.33105 180.617 9.53613C180.787 9.74121 181.036 9.91699 181.364 10.0635C181.675 10.2041 182.34 10.3828 183.359 10.5996C183.951 10.7285 184.461 10.8516 184.889 10.9688C185.316 11.0801 185.659 11.1885 185.917 11.2939C186.175 11.4053 186.403 11.5225 186.603 11.6455C186.808 11.7686 186.983 11.9004 187.13 12.041C187.429 12.3281 187.657 12.6709 187.815 13.0693C187.974 13.4619 188.053 13.916 188.053 14.4316Z" fill="#C4C4C4" fill-opacity="0.3"/>
<path d="M535 12H211L189 27H5" stroke="#C4C4C4" stroke-opacity="0.3"/>
<path d="M279.867 8.1C279.953 8.03509 280.058 8 280.167 8H297.344C297.446 8 297.545 8.03101 297.628 8.0889L302.684 11.5889C303.087 11.8679 302.89 12.5 302.399 12.5H275.5C275.019 12.5 274.816 11.8883 275.2 11.6L279.867 8.1Z" fill="#4C4C4C"/>
<path d="M14.8667 23.1C14.9532 23.0351 15.0585 23 15.1667 23H32.3438C32.4455 23 32.5448 23.031 32.6284 23.0889L37.684 26.5889C38.087 26.8679 37.8896 27.5 37.3994 27.5H10.5C10.0195 27.5 9.8156 26.8883 10.2 26.6L14.8667 23.1Z" fill="#4C4C4C"/>
</svg>
