<svg width="357" height="20" viewBox="0 0 357 20" fill="none" xmlns="http://www.w3.org/2000/svg">
<path d="M357 5H167.5L154.5 19.5H0" stroke="#C4C4C4" stroke-opacity="0.6"/>
<path d="M334.159 0.121295C334.25 0.0430449 334.366 0 334.486 0H351.042C351.155 0 351.265 0.0383388 351.353 0.108757L356.38 4.10876C356.75 4.40346 356.542 5 356.069 5H329.846C329.382 5 329.168 4.42393 329.519 4.12129L334.159 0.121295Z" fill="#D5D4D8"/>
<path d="M5.6593 15.1213C5.75007 15.043 5.86592 15 5.98577 15H22.542C22.6551 15 22.7648 15.0383 22.8533 15.1088L27.88 19.1088C28.2503 19.4035 28.042 20 27.5687 20H1.34577C0.882266 20 0.668236 19.4239 1.0193 19.1213L5.6593 15.1213Z" fill="#D5D4D8"/>
<path d="M50.4781 4.98212C50.3932 5.05336 50.3345 5.15588 50.3237 5.27916C50.3029 5.51748 50.4829 5.73198 50.7212 5.75283L55.2741 6.15115L54.8757 10.704C54.8549 10.9424 55.0349 11.1568 55.2732 11.1777C55.5115 11.1986 55.726 11.0186 55.7469 10.7802L56.1833 5.7918C56.2042 5.55348 56.0242 5.33898 55.7859 5.31813L50.7974 4.8817C50.6741 4.87092 50.563 4.91088 50.4781 4.98212Z" fill="#C4C4C4" fill-opacity="0.8"/>
<path d="M55.4411 5.54164L47.9204 11.8522C47.7372 12.0059 47.7128 12.2854 47.8665 12.4686C48.0202 12.6518 48.2996 12.6762 48.4828 12.5225L56.0035 6.21192C56.1867 6.05819 56.2111 5.77877 56.0574 5.59556C55.9037 5.41235 55.6243 5.3879 55.4411 5.54164Z" fill="#C4C4C4" fill-opacity="0.8"/>
<path opacity="0.8" d="M65.5293 7.08008V14H63.8008V7.08008H61.1348V5.74414H68.2012V7.08008H65.5293ZM75.8711 12.6641V14H69.1387V5.74414H75.6309V7.08008H70.8672V9.1543H75.2734V10.4902H70.8672V12.6641H75.8711ZM83.875 11.6211C83.875 12.4297 83.5742 13.0488 82.9727 13.4785C82.375 13.9043 81.4961 14.1172 80.3359 14.1172C78.2461 14.1172 77.0293 13.3613 76.6855 11.8496L78.3555 11.5742C78.4688 12.0117 78.6895 12.3301 79.0176 12.5293C79.3457 12.7246 79.8008 12.8223 80.3828 12.8223C80.9883 12.8223 81.4414 12.7305 81.7422 12.5469C82.043 12.3633 82.1934 12.0879 82.1934 11.7207C82.1934 11.4863 82.125 11.293 81.9883 11.1406C81.8516 10.9883 81.6562 10.8613 81.4023 10.7598C81.2773 10.709 81.0938 10.6543 80.8516 10.5957C80.6094 10.5332 80.3086 10.4648 79.9492 10.3906C79.5352 10.293 79.2109 10.2109 78.9766 10.1445C78.7422 10.0742 78.5547 10.0078 78.4141 9.94531C78.2734 9.87891 78.1367 9.80664 78.0039 9.72852C77.7109 9.55273 77.4824 9.31836 77.3184 9.02539C77.1543 8.73242 77.0723 8.36719 77.0723 7.92969C77.0723 7.18359 77.3516 6.61328 77.9102 6.21875C78.4727 5.82031 79.2891 5.62109 80.3594 5.62109C81.3828 5.62109 82.1504 5.78125 82.6621 6.10156C83.1777 6.42188 83.5098 6.95117 83.6582 7.68945L81.9824 7.91797C81.8965 7.5625 81.7207 7.29492 81.4551 7.11523C81.1934 6.93555 80.8164 6.8457 80.3242 6.8457C79.8008 6.8457 79.4082 6.92773 79.1465 7.0918C78.8848 7.25586 78.7539 7.50195 78.7539 7.83008C78.7539 8.04492 78.8086 8.2207 78.918 8.35742C79.0312 8.49414 79.1973 8.61133 79.416 8.70898C79.623 8.80273 80.0664 8.92188 80.7461 9.06641C81.1406 9.15234 81.4805 9.23438 81.7656 9.3125C82.0508 9.38672 82.2793 9.45898 82.4512 9.5293C82.623 9.60352 82.7754 9.68164 82.9082 9.76367C83.0449 9.8457 83.1621 9.93359 83.2598 10.0273C83.459 10.2188 83.6113 10.4473 83.7168 10.7129C83.8223 10.9746 83.875 11.2773 83.875 11.6211ZM88.873 7.08008V14H87.1445V7.08008H84.4785V5.74414H91.5449V7.08008H88.873ZM94.2109 5.74414V14H92.4824V5.74414H94.2109ZM97.3574 8.99609V14H95.8223V5.74414H98.1367L99.6133 10.3613C99.6797 10.6191 99.748 10.8789 99.8184 11.1406C99.8887 11.3984 99.957 11.6562 100.023 11.9141C100.066 11.7656 100.107 11.6191 100.146 11.4746C100.186 11.3262 100.225 11.1777 100.264 11.0293C100.307 10.8809 100.35 10.7344 100.393 10.5898L101.91 5.74414H104.213V14H102.678V8.99609C102.678 8.88281 102.682 8.65625 102.689 8.31641C102.701 7.97266 102.717 7.59961 102.736 7.19727C102.6 7.7207 102.479 8.16602 102.373 8.5332C102.271 8.90039 102.188 9.1875 102.121 9.39453L100.633 14H99.4023L97.9141 9.39453L97.2871 7.19727C97.3105 7.65039 97.3281 8.02734 97.3398 8.32812C97.3516 8.625 97.3574 8.84766 97.3574 8.99609ZM113.846 9.83398C113.846 10.6934 113.672 11.4453 113.324 12.0898C112.98 12.7305 112.494 13.2285 111.865 13.584C111.24 13.9395 110.506 14.1172 109.662 14.1172C108.799 14.1172 108.057 13.9453 107.436 13.6016C106.814 13.2539 106.338 12.7598 106.006 12.1191C105.674 11.4785 105.508 10.7168 105.508 9.83398C105.508 8.95117 105.672 8.19531 106 7.56641C106.332 6.9375 106.809 6.45703 107.43 6.125C108.055 5.78906 108.803 5.62109 109.674 5.62109C110.549 5.62109 111.297 5.79102 111.918 6.13086C112.539 6.4668 113.016 6.94922 113.348 7.57812C113.68 8.20703 113.846 8.95898 113.846 9.83398ZM112.082 9.83398C112.082 8.94336 111.871 8.24609 111.449 7.74219C111.027 7.23438 110.436 6.98047 109.674 6.98047C108.9 6.98047 108.303 7.23242 107.881 7.73633C107.459 8.23633 107.248 8.93555 107.248 9.83398C107.248 10.4355 107.346 10.9551 107.541 11.3926C107.736 11.8301 108.014 12.168 108.373 12.4062C108.736 12.6406 109.166 12.7578 109.662 12.7578C110.436 12.7578 111.031 12.5039 111.449 11.9961C111.871 11.4883 112.082 10.7676 112.082 9.83398ZM116.693 9.13086V14H115.158V5.74414H117.133L120.783 12.1543C120.713 11.5605 120.678 11.0234 120.678 10.543V5.74414H122.213V14H120.186L116.588 7.64258C116.623 7.95117 116.648 8.23047 116.664 8.48047C116.684 8.72656 116.693 8.94336 116.693 9.13086ZM125.559 5.74414V14H123.83V5.74414H125.559ZM129.127 11.8906L128.395 14H126.666L129.678 5.74414H131.717L134.717 14H133.006L132.273 11.8906H129.127ZM130.697 7.01562C130.658 7.17188 130.604 7.35938 130.533 7.57812C130.463 7.79688 130.412 7.95117 130.381 8.04102L129.514 10.5898H131.887L130.996 7.98828C130.941 7.82812 130.891 7.66602 130.844 7.50195C130.797 7.33789 130.748 7.17578 130.697 7.01562ZM142 12.6641V14H135.842V5.74414H137.57V12.6641H142ZM149.91 11.6211C149.91 12.4297 149.609 13.0488 149.008 13.4785C148.41 13.9043 147.531 14.1172 146.371 14.1172C144.281 14.1172 143.064 13.3613 142.721 11.8496L144.391 11.5742C144.504 12.0117 144.725 12.3301 145.053 12.5293C145.381 12.7246 145.836 12.8223 146.418 12.8223C147.023 12.8223 147.477 12.7305 147.777 12.5469C148.078 12.3633 148.229 12.0879 148.229 11.7207C148.229 11.4863 148.16 11.293 148.023 11.1406C147.887 10.9883 147.691 10.8613 147.438 10.7598C147.312 10.709 147.129 10.6543 146.887 10.5957C146.645 10.5332 146.344 10.4648 145.984 10.3906C145.57 10.293 145.246 10.2109 145.012 10.1445C144.777 10.0742 144.59 10.0078 144.449 9.94531C144.309 9.87891 144.172 9.80664 144.039 9.72852C143.746 9.55273 143.518 9.31836 143.354 9.02539C143.189 8.73242 143.107 8.36719 143.107 7.92969C143.107 7.18359 143.387 6.61328 143.945 6.21875C144.508 5.82031 145.324 5.62109 146.395 5.62109C147.418 5.62109 148.186 5.78125 148.697 6.10156C149.213 6.42188 149.545 6.95117 149.693 7.68945L148.018 7.91797C147.932 7.5625 147.756 7.29492 147.49 7.11523C147.229 6.93555 146.852 6.8457 146.359 6.8457C145.836 6.8457 145.443 6.92773 145.182 7.0918C144.92 7.25586 144.789 7.50195 144.789 7.83008C144.789 8.04492 144.844 8.2207 144.953 8.35742C145.066 8.49414 145.232 8.61133 145.451 8.70898C145.658 8.80273 146.102 8.92188 146.781 9.06641C147.176 9.15234 147.516 9.23438 147.801 9.3125C148.086 9.38672 148.314 9.45898 148.486 9.5293C148.658 9.60352 148.811 9.68164 148.943 9.76367C149.08 9.8457 149.197 9.93359 149.295 10.0273C149.494 10.2188 149.646 10.4473 149.752 10.7129C149.857 10.9746 149.91 11.2773 149.91 11.6211Z" fill="#C4C4C4" fill-opacity="0.8"/>
</svg>
