<svg width="47" height="1088" viewBox="0 0 47 1088" fill="none" xmlns="http://www.w3.org/2000/svg">
<path d="M5 1088L5 745.432C5 742.878 6.21956 740.477 8.2823 738.971L37.7177 717.478C39.7804 715.971 41 713.571 41 711.017L41 500.257L41 289.198C41 286.814 39.9363 284.553 38.0988 283.033L7.90122 258.057C6.06374 256.537 5 254.277 5 251.892L5 83" stroke="#8F8F8F" stroke-opacity="0.5"/>
<path d="M46.3932 365.136C46.4624 365.048 46.5 364.939 46.5 364.827V344.746C46.5 344.64 46.4667 344.537 46.4048 344.452L41.9048 338.247C41.6203 337.855 41 338.056 41 338.541V370.554C41 371.029 41.5998 371.237 41.8932 370.863L46.3932 365.136Z" fill="#BEBEC2"/>
<path d="M0.106841 110.864C0.0376252 110.952 0 111.061 0 111.173L0 131.254C0 131.36 0.0333378 131.463 0.0952476 131.548L4.59525 137.753C4.87975 138.145 5.5 137.944 5.5 137.459V105.446C5.5 104.971 4.90021 104.763 4.60684 105.137L0.106841 110.864Z" fill="#BEBEC2"/>
<path d="M0.106841 820.864C0.0376252 820.952 0 821.061 0 821.173L0 841.254C0 841.36 0.0333378 841.463 0.0952476 841.548L4.59525 847.753C4.87975 848.145 5.5 847.944 5.5 847.459V815.446C5.5 814.971 4.90021 814.763 4.60684 815.137L0.106841 820.864Z" fill="#BEBEC2"/>
</svg>
