<svg width="1917" height="44" viewBox="0 0 1917 44" fill="none" xmlns="http://www.w3.org/2000/svg">
<path d="M1917 21H1757.67L1712.14 36H0" stroke="#C4C4C4" stroke-opacity="0.8"/>
<path d="M1786.26 14.127C1786.35 14.0452 1786.47 14 1786.59 14H1810.72C1810.84 14 1810.95 14.0404 1811.04 14.1142L1818.93 20.6142C1819.29 20.9124 1819.08 21.5 1818.61 21.5H1779.31C1778.85 21.5 1778.64 20.9329 1778.98 20.627L1786.26 14.127Z" fill="#CCCCCE"/>
<path d="M1462.26 29.127C1462.35 29.0452 1462.47 29 1462.59 29H1486.72C1486.84 29 1486.95 29.0404 1487.04 29.1142L1494.93 35.6142C1495.29 35.9124 1495.08 36.5 1494.61 36.5H1455.31C1454.85 36.5 1454.64 35.9329 1454.98 35.627L1462.26 29.127Z" fill="#CCCCCE"/>
<path d="M1557.96 26.6653C1558.07 26.5737 1558.14 26.4419 1558.16 26.2834C1558.18 25.977 1557.95 25.7012 1557.64 25.6744L1551.79 25.1622L1552.3 19.3085C1552.33 19.0021 1552.1 18.7264 1551.79 18.6995C1551.49 18.6727 1551.21 18.9041 1551.18 19.2106L1550.62 25.6243C1550.59 25.9307 1550.83 26.2065 1551.13 26.2333L1557.55 26.7944C1557.7 26.8083 1557.85 26.7569 1557.96 26.6653Z" fill="#C4C4C4" fill-opacity="0.8"/>
<path d="M1551.58 25.9461L1561.25 17.8325C1561.48 17.6348 1561.51 17.2756 1561.31 17.04C1561.12 16.8045 1560.76 16.773 1560.52 16.9707L1550.85 25.0843C1550.62 25.2819 1550.59 25.6412 1550.78 25.8768C1550.98 26.1123 1551.34 26.1437 1551.58 25.9461Z" fill="#C4C4C4" fill-opacity="0.8"/>
<path opacity="0.8" d="M1574.99 20.6699L1573.28 28H1570.21L1567.02 15.6162H1569.65L1571.37 23.2012C1571.44 23.5234 1571.53 23.8955 1571.61 24.3174C1571.71 24.7393 1571.78 25.1494 1571.84 25.5479C1571.9 25.2725 1571.95 25.0059 1572 24.748C1572.05 24.4844 1572.11 24.2266 1572.16 23.9746C1572.21 23.7168 1572.27 23.4619 1572.33 23.21L1574.08 15.6162H1576.98L1578.71 22.9375C1578.77 23.1836 1578.84 23.541 1578.92 24.0098C1579.01 24.4785 1579.09 24.9912 1579.16 25.5479C1579.24 25.208 1579.31 24.9092 1579.37 24.6514C1579.43 24.3877 1579.49 24.127 1579.55 23.8691C1579.62 23.6055 1579.68 23.3066 1579.75 22.9727L1581.34 15.6162H1583.97L1580.77 28H1577.7L1576.02 20.8369C1575.92 20.415 1575.82 19.9844 1575.74 19.5449C1575.65 19.1055 1575.57 18.6543 1575.5 18.1914C1575.45 18.4434 1575.39 18.7393 1575.32 19.0791C1575.25 19.4189 1575.19 19.7354 1575.12 20.0283C1575.06 20.3213 1575.02 20.5352 1574.99 20.6699ZM1587.79 22.6914V28H1585.2V15.6162H1587.79V20.5469H1593.19V15.6162H1595.78V28H1593.19V22.6914H1587.79ZM1601.15 24.8359L1600.05 28H1597.45L1601.97 15.6162H1605.03L1609.53 28H1606.96L1605.87 24.8359H1601.15ZM1603.5 17.5234C1603.44 17.7578 1603.36 18.0391 1603.25 18.3672C1603.15 18.6953 1603.07 18.9268 1603.03 19.0615L1601.73 22.8848H1605.29L1603.95 18.9824C1603.87 18.7422 1603.79 18.499 1603.72 18.2529C1603.65 18.0068 1603.58 17.7637 1603.5 17.5234ZM1615.47 17.6201V28H1612.88V17.6201H1608.88V15.6162H1619.48V17.6201H1615.47ZM1631.66 22.9199V28H1629.08V22.9199L1624.67 15.6162H1627.38L1630.35 20.8545L1633.36 15.6162H1636.07L1631.66 22.9199ZM1649.61 21.751C1649.61 23.04 1649.35 24.168 1648.83 25.1348C1648.31 26.0957 1647.58 26.8428 1646.64 27.376C1645.7 27.9092 1644.6 28.1758 1643.33 28.1758C1642.04 28.1758 1640.92 27.918 1639.99 27.4023C1639.06 26.8809 1638.35 26.1396 1637.85 25.1787C1637.35 24.2178 1637.1 23.0752 1637.1 21.751C1637.1 20.4268 1637.35 19.293 1637.84 18.3496C1638.34 17.4062 1639.05 16.6855 1639.98 16.1875C1640.92 15.6836 1642.04 15.4316 1643.35 15.4316C1644.66 15.4316 1645.79 15.6865 1646.72 16.1963C1647.65 16.7002 1648.36 17.4238 1648.86 18.3672C1649.36 19.3105 1649.61 20.4385 1649.61 21.751ZM1646.96 21.751C1646.96 20.415 1646.65 19.3691 1646.01 18.6133C1645.38 17.8516 1644.49 17.4707 1643.35 17.4707C1642.19 17.4707 1641.29 17.8486 1640.66 18.6045C1640.03 19.3545 1639.71 20.4033 1639.71 21.751C1639.71 22.6533 1639.86 23.4326 1640.15 24.0889C1640.44 24.7451 1640.86 25.252 1641.4 25.6094C1641.94 25.9609 1642.59 26.1367 1643.33 26.1367C1644.49 26.1367 1645.39 25.7559 1646.01 24.9941C1646.65 24.2324 1646.96 23.1514 1646.96 21.751ZM1656.73 28.1758C1655.59 28.1758 1654.63 27.9912 1653.84 27.6221C1653.06 27.2471 1652.46 26.7021 1652.06 25.9873C1651.66 25.2666 1651.45 24.3906 1651.45 23.3594V15.6162H1654.05V23.1572C1654.05 24.1357 1654.28 24.8799 1654.74 25.3896C1655.21 25.8936 1655.9 26.1455 1656.8 26.1455C1657.72 26.1455 1658.44 25.8818 1658.93 25.3545C1659.43 24.8213 1659.68 24.0596 1659.68 23.0693V15.6162H1662.27V23.2275C1662.27 24.2705 1662.05 25.1611 1661.61 25.8994C1661.18 26.6377 1660.55 27.2031 1659.72 27.5957C1658.9 27.9824 1657.9 28.1758 1656.73 28.1758ZM1675.47 26.1455C1676.15 26.1455 1676.8 26.0488 1677.43 25.8555C1678.07 25.6562 1678.56 25.4043 1678.9 25.0996V23.3857H1675.88V21.4697H1681.28V26.0225C1680.62 26.6963 1679.76 27.2236 1678.71 27.6045C1677.66 27.9854 1676.56 28.1758 1675.4 28.1758C1674.06 28.1758 1672.92 27.9268 1671.99 27.4287C1671.05 26.9248 1670.34 26.1953 1669.86 25.2402C1669.37 24.2793 1669.13 23.1162 1669.13 21.751C1669.13 19.7119 1669.67 18.1504 1670.76 17.0664C1671.85 15.9766 1673.42 15.4316 1675.47 15.4316C1676.92 15.4316 1678.11 15.7012 1679.03 16.2402C1679.96 16.7734 1680.62 17.5791 1681.01 18.6572L1678.62 19.3779C1678.36 18.751 1677.96 18.2764 1677.41 17.9541C1676.86 17.6318 1676.21 17.4707 1675.47 17.4707C1674.25 17.4707 1673.32 17.8398 1672.69 18.5781C1672.06 19.3164 1671.74 20.374 1671.74 21.751C1671.74 23.1514 1672.06 24.2354 1672.71 25.0029C1673.37 25.7646 1674.29 26.1455 1675.47 26.1455ZM1693.7 25.9961V28H1683.6V15.6162H1693.34V17.6201H1686.2V20.7314H1692.81V22.7354H1686.2V25.9961H1693.7ZM1701.2 17.6201V28H1698.61V17.6201H1694.61V15.6162H1705.21V17.6201H1701.2Z" fill="#C4C4C4" fill-opacity="0.8"/>
<path d="M786.742 43.373C786.651 43.4548 786.532 43.5 786.409 43.5H762.279C762.163 43.5 762.051 43.4596 761.961 43.3858L754.075 36.8858C753.713 36.5876 753.924 36 754.393 36H793.689C794.148 36 794.365 36.5671 794.022 36.873L786.742 43.373Z" fill="#CCCCCE"/>
</svg>
