<svg width="358" height="20" viewBox="0 0 358 20" fill="none" xmlns="http://www.w3.org/2000/svg">
<path d="M0 5H189.5L202.5 19.5H357" stroke="#C4C4C4" stroke-opacity="0.6"/>
<path d="M253.522 4.98212C253.607 5.05336 253.665 5.15588 253.676 5.27916C253.697 5.51748 253.517 5.73198 253.279 5.75283L248.726 6.15115L249.124 10.704C249.145 10.9424 248.965 11.1568 248.727 11.1777C248.488 11.1986 248.274 11.0186 248.253 10.7802L247.817 5.7918C247.796 5.55348 247.976 5.33898 248.214 5.31813L253.203 4.8817C253.326 4.87092 253.437 4.91088 253.522 4.98212Z" fill="#C4C4C4" fill-opacity="0.8"/>
<path d="M248.559 5.54164L256.08 11.8522C256.263 12.0059 256.287 12.2854 256.134 12.4686C255.98 12.6518 255.7 12.6762 255.517 12.5225L247.997 6.21192C247.813 6.05819 247.789 5.77877 247.943 5.59556C248.096 5.41235 248.376 5.3879 248.559 5.54164Z" fill="#C4C4C4" fill-opacity="0.8"/>
<path opacity="0.8" d="M266.326 9.11328L265.189 14H263.139L261.012 5.74414H262.764L263.912 10.8008C263.963 11.0156 264.018 11.2637 264.076 11.5449C264.139 11.8262 264.189 12.0996 264.229 12.3652C264.268 12.1816 264.303 12.0039 264.334 11.832C264.369 11.6562 264.404 11.4844 264.439 11.3164C264.475 11.1445 264.512 10.9746 264.551 10.8066L265.717 5.74414H267.65L268.805 10.625C268.844 10.7891 268.891 11.0273 268.945 11.3398C269.004 11.6523 269.059 11.9941 269.109 12.3652C269.16 12.1387 269.205 11.9395 269.244 11.7676C269.287 11.5918 269.328 11.418 269.367 11.2461C269.41 11.0703 269.455 10.8711 269.502 10.6484L270.562 5.74414H272.314L270.182 14H268.131L267.012 9.22461C266.945 8.94336 266.883 8.65625 266.824 8.36328C266.766 8.07031 266.713 7.76953 266.666 7.46094C266.635 7.62891 266.596 7.82617 266.549 8.05273C266.502 8.2793 266.457 8.49023 266.414 8.68555C266.375 8.88086 266.346 9.02344 266.326 9.11328ZM274.863 10.4609V14H273.135V5.74414H274.863V9.03125H278.461V5.74414H280.189V14H278.461V10.4609H274.863ZM283.764 11.8906L283.031 14H281.303L284.314 5.74414H286.354L289.354 14H287.643L286.91 11.8906H283.764ZM285.334 7.01562C285.295 7.17188 285.24 7.35938 285.17 7.57812C285.1 7.79688 285.049 7.95117 285.018 8.04102L284.15 10.5898H286.523L285.633 7.98828C285.578 7.82812 285.527 7.66602 285.48 7.50195C285.434 7.33789 285.385 7.17578 285.334 7.01562ZM293.314 7.08008V14H291.586V7.08008H288.92V5.74414H295.986V7.08008H293.314ZM304.107 10.6133V14H302.385V10.6133L299.443 5.74414H301.254L303.234 9.23633L305.238 5.74414H307.049L304.107 10.6133ZM316.072 9.83398C316.072 10.6934 315.898 11.4453 315.551 12.0898C315.207 12.7305 314.721 13.2285 314.092 13.584C313.467 13.9395 312.732 14.1172 311.889 14.1172C311.025 14.1172 310.283 13.9453 309.662 13.6016C309.041 13.2539 308.564 12.7598 308.232 12.1191C307.9 11.4785 307.734 10.7168 307.734 9.83398C307.734 8.95117 307.898 8.19531 308.227 7.56641C308.559 6.9375 309.035 6.45703 309.656 6.125C310.281 5.78906 311.029 5.62109 311.9 5.62109C312.775 5.62109 313.523 5.79102 314.145 6.13086C314.766 6.4668 315.242 6.94922 315.574 7.57812C315.906 8.20703 316.072 8.95898 316.072 9.83398ZM314.309 9.83398C314.309 8.94336 314.098 8.24609 313.676 7.74219C313.254 7.23438 312.662 6.98047 311.9 6.98047C311.127 6.98047 310.529 7.23242 310.107 7.73633C309.686 8.23633 309.475 8.93555 309.475 9.83398C309.475 10.4355 309.572 10.9551 309.768 11.3926C309.963 11.8301 310.24 12.168 310.6 12.4062C310.963 12.6406 311.393 12.7578 311.889 12.7578C312.662 12.7578 313.258 12.5039 313.676 11.9961C314.098 11.4883 314.309 10.7676 314.309 9.83398ZM320.818 14.1172C320.061 14.1172 319.42 13.9941 318.896 13.748C318.373 13.498 317.977 13.1348 317.707 12.6582C317.438 12.1777 317.303 11.5938 317.303 10.9062V5.74414H319.031V10.7715C319.031 11.4238 319.186 11.9199 319.494 12.2598C319.807 12.5957 320.264 12.7637 320.865 12.7637C321.482 12.7637 321.957 12.5879 322.289 12.2363C322.621 11.8809 322.787 11.373 322.787 10.7129V5.74414H324.516V10.8184C324.516 11.5137 324.369 12.1074 324.076 12.5996C323.787 13.0918 323.367 13.4688 322.816 13.7305C322.266 13.9883 321.6 14.1172 320.818 14.1172ZM333.316 12.7637C333.766 12.7637 334.201 12.6992 334.623 12.5703C335.045 12.4375 335.371 12.2695 335.602 12.0664V10.9238H333.586V9.64648H337.184V12.6816C336.746 13.1309 336.176 13.4824 335.473 13.7363C334.773 13.9902 334.039 14.1172 333.27 14.1172C332.375 14.1172 331.615 13.9512 330.99 13.6191C330.369 13.2832 329.896 12.7969 329.572 12.1602C329.248 11.5195 329.086 10.7441 329.086 9.83398C329.086 8.47461 329.449 7.43359 330.176 6.71094C330.902 5.98438 331.947 5.62109 333.311 5.62109C334.279 5.62109 335.072 5.80078 335.689 6.16016C336.307 6.51562 336.746 7.05273 337.008 7.77148L335.414 8.25195C335.242 7.83398 334.973 7.51758 334.605 7.30273C334.238 7.08789 333.807 6.98047 333.311 6.98047C332.498 6.98047 331.881 7.22656 331.459 7.71875C331.037 8.21094 330.826 8.91602 330.826 9.83398C330.826 10.7676 331.043 11.4902 331.477 12.002C331.914 12.5098 332.527 12.7637 333.316 12.7637ZM345.469 12.6641V14H338.736V5.74414H345.229V7.08008H340.465V9.1543H344.871V10.4902H340.465V12.6641H345.469ZM350.467 7.08008V14H348.738V7.08008H346.072V5.74414H353.139V7.08008H350.467Z" fill="#C4C4C4" fill-opacity="0.8"/>
<path d="M21.6593 0.121295C21.7501 0.0430449 21.8659 0 21.9858 0H38.542C38.6551 0 38.7648 0.0383388 38.8533 0.108757L43.88 4.10876C44.2503 4.40346 44.042 5 43.5687 5H17.3458C16.8823 5 16.6682 4.42393 17.0193 4.12129L21.6593 0.121295Z" fill="#D5D4D8"/>
</svg>
