<svg width="744" height="128" viewBox="0 0 744 128" fill="none" xmlns="http://www.w3.org/2000/svg">
<path d="M41.4062 32.9531C48.3438 32.9531 54.2031 34.0469 58.9844 36.2344C63.7969 38.3906 67.4375 41.5625 69.9062 45.75C72.375 49.9375 73.6094 55.0781 73.6094 61.1719C73.6094 68.5156 72.0625 75.0312 68.9688 80.7188C65.875 86.375 61.3906 90.8438 55.5156 94.125C49.6406 97.375 43.0625 99 35.7812 99H8.6875L21.5312 32.9531H41.4062ZM24.5781 88.3125H35.3594C40.3594 88.3125 44.7969 87.2344 48.6719 85.0781C52.5156 82.9531 55.4688 79.875 57.5312 75.8438C59.625 71.8125 60.6719 67.125 60.6719 61.7812C60.6719 55.875 59.0156 51.375 55.7031 48.2812C52.4219 45.1875 47.6875 43.6406 41.5 43.6406H33.25L24.5781 88.3125ZM132.984 88.3125L130.875 99H77.0625L89.8594 32.9531H141.797L139.734 43.6406H101.625L98.3906 60.2344H133.641L131.578 70.9219H96.3281L92.9531 88.3125H132.984ZM191.422 88.3125L189.312 99H140.094L152.891 32.9531H166.719L155.984 88.3125H191.422ZM230.922 43.6406L220.141 99H206.312L217.094 43.6406H195.766L197.828 32.9531H254.359L252.297 43.6406H230.922ZM260.484 82.125L251.344 99H237.562L274.453 32.9531H290.766L301.922 99H288.234L285.656 82.125H260.484ZM280.594 43.125C280.281 44.125 279.734 45.4531 278.953 47.1094C278.172 48.7656 277.188 50.75 276 53.0625L266.062 71.7188H284.578L281.438 50.5312C281.156 48.4062 280.938 46.7344 280.781 45.5156C280.656 44.2656 280.594 43.4688 280.594 43.125ZM352.094 57.4219L344.031 99H331.75L344.594 32.9531H363.109L367.234 69.8906C367.422 72.0469 367.609 74.2031 367.797 76.3594C368.016 78.5156 368.219 80.6719 368.406 82.8281C368.969 81.5781 369.5 80.3906 370 79.2656C370.531 78.1094 371.047 77.0312 371.547 76.0312L393.297 32.9531H411.719L398.875 99H386.594L394.656 57.5625C395.062 55.5312 395.547 53.2656 396.109 50.7656C396.703 48.2344 397.375 45.4688 398.125 42.4688C396.219 46.625 394.703 49.9219 393.578 52.3594C392.453 54.7656 391.594 56.5938 391 57.8438C390.406 59.0938 389.922 60.0625 389.547 60.75L370.234 99H360.391L355.984 60.6094C355.484 56.0469 355.078 52.2656 354.766 49.2656C354.484 46.2344 354.266 43.9688 354.109 42.4688C353.672 46.2812 353.281 49.4375 352.938 51.9375C352.625 54.4062 352.344 56.2344 352.094 57.4219ZM452.531 31.9688C458.656 31.9688 463.922 33.0781 468.328 35.2969C472.734 37.4844 476.125 40.6094 478.5 44.6719C480.906 48.7031 482.109 53.5156 482.109 59.1094C482.109 66.8281 480.469 73.8594 477.188 80.2031C473.875 86.5781 469.266 91.4688 463.359 94.875C457.453 98.25 450.703 99.9375 443.109 99.9375C437.109 99.9375 431.875 98.8125 427.406 96.5625C422.969 94.3125 419.578 91.0938 417.234 86.9062C414.891 82.6875 413.719 77.7656 413.719 72.1406C413.719 64.7656 415.375 57.9062 418.688 51.5625C421.969 45.2188 426.531 40.375 432.375 37.0312C438.219 33.6562 444.938 31.9688 452.531 31.9688ZM451.875 42.8906C446.812 42.8906 442.5 44.0625 438.938 46.4062C436.562 47.9688 434.547 50.0938 432.891 52.7812C431.234 55.4375 429.969 58.4062 429.094 61.6875C428.219 64.9688 427.781 68.3281 427.781 71.7656C427.781 77.5156 429.188 81.8438 432 84.75C434.812 87.625 438.734 89.0625 443.766 89.0625C448.797 89.0625 453.094 87.8906 456.656 85.5469C459.031 83.9844 461.047 81.8906 462.703 79.2656C464.391 76.6406 465.672 73.6875 466.547 70.4062C467.422 67.125 467.859 63.7344 467.859 60.2344C467.859 54.7344 466.484 50.4688 463.734 47.4375C461.016 44.4062 457.062 42.8906 451.875 42.8906ZM524.703 43.6406L513.922 99H500.094L510.875 43.6406H489.547L491.609 32.9531H548.141L546.078 43.6406H524.703ZM582.156 31.9688C588.281 31.9688 593.547 33.0781 597.953 35.2969C602.359 37.4844 605.75 40.6094 608.125 44.6719C610.531 48.7031 611.734 53.5156 611.734 59.1094C611.734 66.8281 610.094 73.8594 606.812 80.2031C603.5 86.5781 598.891 91.4688 592.984 94.875C587.078 98.25 580.328 99.9375 572.734 99.9375C566.734 99.9375 561.5 98.8125 557.031 96.5625C552.594 94.3125 549.203 91.0938 546.859 86.9062C544.516 82.6875 543.344 77.7656 543.344 72.1406C543.344 64.7656 545 57.9062 548.312 51.5625C551.594 45.2188 556.156 40.375 562 37.0312C567.844 33.6562 574.562 31.9688 582.156 31.9688ZM581.5 42.8906C576.438 42.8906 572.125 44.0625 568.562 46.4062C566.188 47.9688 564.172 50.0938 562.516 52.7812C560.859 55.4375 559.594 58.4062 558.719 61.6875C557.844 64.9688 557.406 68.3281 557.406 71.7656C557.406 77.5156 558.812 81.8438 561.625 84.75C564.438 87.625 568.359 89.0625 573.391 89.0625C578.422 89.0625 582.719 87.8906 586.281 85.5469C588.656 83.9844 590.672 81.8906 592.328 79.2656C594.016 76.6406 595.297 73.6875 596.172 70.4062C597.047 67.125 597.484 63.7344 597.484 60.2344C597.484 54.7344 596.109 50.4688 593.359 47.4375C590.641 44.4062 586.688 42.8906 581.5 42.8906ZM632.719 73.9688L627.891 99H614.062L626.906 32.9531H657.422C662.422 32.9531 666.688 33.7188 670.219 35.25C673.75 36.7812 676.438 38.9688 678.281 41.8125C680.125 44.6562 681.047 48 681.047 51.8438C681.047 57 679.344 61.375 675.938 64.9688C672.562 68.5625 667.969 70.7969 662.156 71.6719L675 99H659.719L648.938 73.9688H632.719ZM653.25 63.1875C657.781 63.1875 661.203 62.2812 663.516 60.4688C665.859 58.625 667.031 56.0156 667.031 52.6406C667.031 49.7344 666.031 47.5156 664.031 45.9844C662.062 44.4531 659.281 43.6875 655.688 43.6875H638.625L634.828 63.1875H653.25ZM708.875 99.9375C700.531 99.9375 694.172 98.4688 689.797 95.5312C685.422 92.5625 682.797 88.0156 681.922 81.8906L695.469 79.5938C696.125 83.0625 697.578 85.5938 699.828 87.1875C702.109 88.7812 705.438 89.5781 709.812 89.5781C715.219 89.5781 719.266 88.8125 721.953 87.2812C724.641 85.7188 725.984 83.375 725.984 80.25C725.984 79 725.75 77.875 725.281 76.875C724.812 75.875 724.109 75.0156 723.172 74.2969C722.234 73.5781 720.828 72.8594 718.953 72.1406C717.109 71.4219 714.797 70.7188 712.016 70.0312C706.297 68.5 702.047 66.9062 699.266 65.25C696.516 63.5938 694.406 61.5781 692.938 59.2031C691.469 56.7969 690.734 53.8594 690.734 50.3906C690.734 46.7031 691.844 43.4844 694.062 40.7344C696.312 37.9531 699.453 35.7969 703.484 34.2656C707.516 32.7344 712.219 31.9688 717.594 31.9688C725.031 31.9688 731 33.3281 735.5 36.0469C740 38.7344 742.766 42.6719 743.797 47.8594L730.297 51C729.609 48.1875 728.109 45.9531 725.797 44.2969C723.516 42.6094 720.531 41.7656 716.844 41.7656C712.969 41.7656 709.922 42.5 707.703 43.9688C705.484 45.4062 704.375 47.3906 704.375 49.9219C704.375 51.3906 704.781 52.6406 705.594 53.6719C706.406 54.7031 707.594 55.5938 709.156 56.3438C709.938 56.75 711.094 57.2031 712.625 57.7031C714.188 58.2031 716.125 58.7656 718.438 59.3906C723.406 60.7656 727.078 62.0625 729.453 63.2812C731.828 64.4688 733.734 65.8125 735.172 67.3125C736.578 68.8125 737.656 70.5312 738.406 72.4688C739.156 74.4062 739.531 76.6406 739.531 79.1719C739.531 85.9219 736.938 91.0781 731.75 94.6406C726.562 98.1719 718.938 99.9375 708.875 99.9375Z" fill="#F8F7FC" fill-opacity="0.04"/>
<path d="M37.4062 32.9531C44.3438 32.9531 50.2031 34.0469 54.9844 36.2344C59.7969 38.3906 63.4375 41.5625 65.9062 45.75C68.375 49.9375 69.6094 55.0781 69.6094 61.1719C69.6094 68.5156 68.0625 75.0312 64.9688 80.7188C61.875 86.375 57.3906 90.8438 51.5156 94.125C45.6406 97.375 39.0625 99 31.7812 99H4.6875L17.5312 32.9531H37.4062ZM20.5781 88.3125H31.3594C36.3594 88.3125 40.7969 87.2344 44.6719 85.0781C48.5156 82.9531 51.4688 79.875 53.5312 75.8438C55.625 71.8125 56.6719 67.125 56.6719 61.7812C56.6719 55.875 55.0156 51.375 51.7031 48.2812C48.4219 45.1875 43.6875 43.6406 37.5 43.6406H29.25L20.5781 88.3125ZM128.984 88.3125L126.875 99H73.0625L85.8594 32.9531H137.797L135.734 43.6406H97.625L94.3906 60.2344H129.641L127.578 70.9219H92.3281L88.9531 88.3125H128.984ZM187.422 88.3125L185.312 99H136.094L148.891 32.9531H162.719L151.984 88.3125H187.422ZM226.922 43.6406L216.141 99H202.312L213.094 43.6406H191.766L193.828 32.9531H250.359L248.297 43.6406H226.922ZM256.484 82.125L247.344 99H233.562L270.453 32.9531H286.766L297.922 99H284.234L281.656 82.125H256.484ZM276.594 43.125C276.281 44.125 275.734 45.4531 274.953 47.1094C274.172 48.7656 273.188 50.75 272 53.0625L262.062 71.7188H280.578L277.438 50.5312C277.156 48.4062 276.938 46.7344 276.781 45.5156C276.656 44.2656 276.594 43.4688 276.594 43.125ZM348.094 57.4219L340.031 99H327.75L340.594 32.9531H359.109L363.234 69.8906C363.422 72.0469 363.609 74.2031 363.797 76.3594C364.016 78.5156 364.219 80.6719 364.406 82.8281C364.969 81.5781 365.5 80.3906 366 79.2656C366.531 78.1094 367.047 77.0312 367.547 76.0312L389.297 32.9531H407.719L394.875 99H382.594L390.656 57.5625C391.062 55.5312 391.547 53.2656 392.109 50.7656C392.703 48.2344 393.375 45.4688 394.125 42.4688C392.219 46.625 390.703 49.9219 389.578 52.3594C388.453 54.7656 387.594 56.5938 387 57.8438C386.406 59.0938 385.922 60.0625 385.547 60.75L366.234 99H356.391L351.984 60.6094C351.484 56.0469 351.078 52.2656 350.766 49.2656C350.484 46.2344 350.266 43.9688 350.109 42.4688C349.672 46.2812 349.281 49.4375 348.938 51.9375C348.625 54.4062 348.344 56.2344 348.094 57.4219ZM448.531 31.9688C454.656 31.9688 459.922 33.0781 464.328 35.2969C468.734 37.4844 472.125 40.6094 474.5 44.6719C476.906 48.7031 478.109 53.5156 478.109 59.1094C478.109 66.8281 476.469 73.8594 473.188 80.2031C469.875 86.5781 465.266 91.4688 459.359 94.875C453.453 98.25 446.703 99.9375 439.109 99.9375C433.109 99.9375 427.875 98.8125 423.406 96.5625C418.969 94.3125 415.578 91.0938 413.234 86.9062C410.891 82.6875 409.719 77.7656 409.719 72.1406C409.719 64.7656 411.375 57.9062 414.688 51.5625C417.969 45.2188 422.531 40.375 428.375 37.0312C434.219 33.6562 440.938 31.9688 448.531 31.9688ZM447.875 42.8906C442.812 42.8906 438.5 44.0625 434.938 46.4062C432.562 47.9688 430.547 50.0938 428.891 52.7812C427.234 55.4375 425.969 58.4062 425.094 61.6875C424.219 64.9688 423.781 68.3281 423.781 71.7656C423.781 77.5156 425.188 81.8438 428 84.75C430.812 87.625 434.734 89.0625 439.766 89.0625C444.797 89.0625 449.094 87.8906 452.656 85.5469C455.031 83.9844 457.047 81.8906 458.703 79.2656C460.391 76.6406 461.672 73.6875 462.547 70.4062C463.422 67.125 463.859 63.7344 463.859 60.2344C463.859 54.7344 462.484 50.4688 459.734 47.4375C457.016 44.4062 453.062 42.8906 447.875 42.8906ZM520.703 43.6406L509.922 99H496.094L506.875 43.6406H485.547L487.609 32.9531H544.141L542.078 43.6406H520.703ZM578.156 31.9688C584.281 31.9688 589.547 33.0781 593.953 35.2969C598.359 37.4844 601.75 40.6094 604.125 44.6719C606.531 48.7031 607.734 53.5156 607.734 59.1094C607.734 66.8281 606.094 73.8594 602.812 80.2031C599.5 86.5781 594.891 91.4688 588.984 94.875C583.078 98.25 576.328 99.9375 568.734 99.9375C562.734 99.9375 557.5 98.8125 553.031 96.5625C548.594 94.3125 545.203 91.0938 542.859 86.9062C540.516 82.6875 539.344 77.7656 539.344 72.1406C539.344 64.7656 541 57.9062 544.312 51.5625C547.594 45.2188 552.156 40.375 558 37.0312C563.844 33.6562 570.562 31.9688 578.156 31.9688ZM577.5 42.8906C572.438 42.8906 568.125 44.0625 564.562 46.4062C562.188 47.9688 560.172 50.0938 558.516 52.7812C556.859 55.4375 555.594 58.4062 554.719 61.6875C553.844 64.9688 553.406 68.3281 553.406 71.7656C553.406 77.5156 554.812 81.8438 557.625 84.75C560.438 87.625 564.359 89.0625 569.391 89.0625C574.422 89.0625 578.719 87.8906 582.281 85.5469C584.656 83.9844 586.672 81.8906 588.328 79.2656C590.016 76.6406 591.297 73.6875 592.172 70.4062C593.047 67.125 593.484 63.7344 593.484 60.2344C593.484 54.7344 592.109 50.4688 589.359 47.4375C586.641 44.4062 582.688 42.8906 577.5 42.8906ZM628.719 73.9688L623.891 99H610.062L622.906 32.9531H653.422C658.422 32.9531 662.688 33.7188 666.219 35.25C669.75 36.7812 672.438 38.9688 674.281 41.8125C676.125 44.6562 677.047 48 677.047 51.8438C677.047 57 675.344 61.375 671.938 64.9688C668.562 68.5625 663.969 70.7969 658.156 71.6719L671 99H655.719L644.938 73.9688H628.719ZM649.25 63.1875C653.781 63.1875 657.203 62.2812 659.516 60.4688C661.859 58.625 663.031 56.0156 663.031 52.6406C663.031 49.7344 662.031 47.5156 660.031 45.9844C658.062 44.4531 655.281 43.6875 651.688 43.6875H634.625L630.828 63.1875H649.25ZM704.875 99.9375C696.531 99.9375 690.172 98.4688 685.797 95.5312C681.422 92.5625 678.797 88.0156 677.922 81.8906L691.469 79.5938C692.125 83.0625 693.578 85.5938 695.828 87.1875C698.109 88.7812 701.438 89.5781 705.812 89.5781C711.219 89.5781 715.266 88.8125 717.953 87.2812C720.641 85.7188 721.984 83.375 721.984 80.25C721.984 79 721.75 77.875 721.281 76.875C720.812 75.875 720.109 75.0156 719.172 74.2969C718.234 73.5781 716.828 72.8594 714.953 72.1406C713.109 71.4219 710.797 70.7188 708.016 70.0312C702.297 68.5 698.047 66.9062 695.266 65.25C692.516 63.5938 690.406 61.5781 688.938 59.2031C687.469 56.7969 686.734 53.8594 686.734 50.3906C686.734 46.7031 687.844 43.4844 690.062 40.7344C692.312 37.9531 695.453 35.7969 699.484 34.2656C703.516 32.7344 708.219 31.9688 713.594 31.9688C721.031 31.9688 727 33.3281 731.5 36.0469C736 38.7344 738.766 42.6719 739.797 47.8594L726.297 51C725.609 48.1875 724.109 45.9531 721.797 44.2969C719.516 42.6094 716.531 41.7656 712.844 41.7656C708.969 41.7656 705.922 42.5 703.703 43.9688C701.484 45.4062 700.375 47.3906 700.375 49.9219C700.375 51.3906 700.781 52.6406 701.594 53.6719C702.406 54.7031 703.594 55.5938 705.156 56.3438C705.938 56.75 707.094 57.2031 708.625 57.7031C710.188 58.2031 712.125 58.7656 714.438 59.3906C719.406 60.7656 723.078 62.0625 725.453 63.2812C727.828 64.4688 729.734 65.8125 731.172 67.3125C732.578 68.8125 733.656 70.5312 734.406 72.4688C735.156 74.4062 735.531 76.6406 735.531 79.1719C735.531 85.9219 732.938 91.0781 727.75 94.6406C722.562 98.1719 714.938 99.9375 704.875 99.9375Z" fill="#F8F7FC" fill-opacity="0.02"/>
</svg>
