<svg width="91" height="36" viewBox="0 0 91 36" fill="none" xmlns="http://www.w3.org/2000/svg">
<path d="M16.385 0L2.33031 0C1.45156 0 1.00009 1.05207 1.60552 1.68897L16.149 16.9883C16.511 17.3692 16.5165 17.9652 16.1617 18.3527L1.53434 34.3246C0.946835 34.9661 1.40192 36 2.27181 36H16.3741C16.6414 36 16.8976 35.893 17.0854 35.7029L34.2015 18.3807C34.5915 17.986 34.5856 17.3492 34.1883 16.9618L17.0831 0.284005C16.8963 0.101914 16.6458 0 16.385 0Z" fill="#484B57"/>
<path opacity="0.5" d="M44.4305 0L30.3758 0C29.497 0 29.0456 1.05207 29.651 1.68897L44.1944 16.9883C44.5565 17.3692 44.562 17.9652 44.2071 18.3527L29.5798 34.3246C28.9923 34.9661 29.4474 36 30.3173 36H44.4196C44.6869 36 44.943 35.893 45.1309 35.7029L62.247 18.3807C62.637 17.986 62.6311 17.3492 62.2338 16.9618L45.1286 0.284005C44.9418 0.101914 44.6913 0 44.4305 0Z" fill="#484B57"/>
<path opacity="0.3" d="M72.4759 0L58.4212 0C57.5424 0 57.091 1.05207 57.6964 1.68897L72.2399 16.9883C72.6019 17.3692 72.6074 17.9652 72.2525 18.3527L57.6252 34.3246C57.0377 34.9661 57.4928 36 58.3627 36H72.465C72.7323 36 72.9884 35.893 73.1763 35.7029L90.2924 18.3807C90.6824 17.986 90.6765 17.3492 90.2792 16.9618L73.174 0.284005C72.9872 0.101914 72.7367 0 72.4759 0Z" fill="#484B57"/>
</svg>
