<svg width="935" height="631" viewBox="0 0 935 631" fill="none" xmlns="http://www.w3.org/2000/svg">
<path d="M566.491 130H744.864C748.493 130 750.247 134.444 747.596 136.922L568.067 304.759C566.397 306.32 566.372 308.96 568.013 310.552L747.92 485.129C750.498 487.631 748.727 492 745.134 492H566.533C565.545 492 564.593 491.635 563.858 490.974L363.369 310.657C361.58 309.048 361.606 306.236 363.424 304.66L563.871 130.977C564.599 130.347 565.529 130 566.491 130Z" fill="white" fill-opacity="0.3"/>
<path d="M809.023 198H924.868C928.497 198 930.251 202.443 927.601 204.921L810.596 314.369C808.928 315.93 808.903 318.568 810.542 320.16L927.925 434.13C930.502 436.632 928.73 441 925.138 441H809.066C808.078 441 807.124 440.634 806.39 439.973L673.366 320.265C671.578 318.656 671.604 315.845 673.422 314.27L806.403 198.978C807.13 198.347 808.061 198 809.023 198Z" fill="white" fill-opacity="0.3"/>
<path d="M261.865 0L548.604 0C552.13 0 553.931 4.23108 551.487 6.77262L262.868 306.9C261.399 308.428 261.377 310.836 262.817 312.391L551.775 624.281C554.148 626.842 552.332 631 548.841 631H261.909C260.848 631 259.83 630.578 259.08 629.828L-58.1201 312.502C-59.702 310.92 -59.6781 308.347 -58.0669 306.794L259.089 1.11992C259.835 0.401443 260.83 0 261.865 0Z" fill="white" fill-opacity="0.3"/>
</svg>
