<svg width="624" height="660" viewBox="0 0 624 660" fill="none" xmlns="http://www.w3.org/2000/svg">
<path opacity="0.81" d="M460.134 0.208984H621.514C622.324 0.208984 622.798 1.12243 622.331 1.78492L395.743 323.397C395.506 323.735 395.5 324.184 395.729 324.528L618.316 658.445C618.759 659.11 618.282 660 617.483 660H460.145C459.821 660 459.518 659.843 459.33 659.58L221.004 324.548C220.754 324.196 220.758 323.722 221.015 323.374L459.329 0.614991C459.518 0.359658 459.816 0.208984 460.134 0.208984Z" fill="#E5E5ED"/>
<path opacity="0.81" d="M198.05 58.2539H330.607C331.418 58.2539 331.892 59.1674 331.425 59.8299L144.969 324.48C144.731 324.817 144.726 325.267 144.955 325.61L328.129 600.402C328.572 601.067 328.095 601.957 327.297 601.957H198.061C197.737 601.957 197.434 601.8 197.246 601.537L0.979401 325.631C0.72879 325.278 0.732971 324.805 0.989807 324.457L197.245 58.6599C197.434 58.4046 197.732 58.2539 198.05 58.2539Z" fill="#DBDDE4" fill-opacity="0.45"/>
</svg>
