<svg width="860" height="631" viewBox="0 0 860 631" fill="none" xmlns="http://www.w3.org/2000/svg">
<path d="M200.255 108H-9.87315C-13.5008 108 -15.2551 112.441 -12.6066 114.92L198.686 312.693C200.353 314.253 200.378 316.891 198.74 318.482L-12.93 524.131C-15.5059 526.634 -13.7341 531 -10.1426 531H200.213C201.201 531 202.155 530.634 202.889 529.972L437.637 318.587C439.423 316.979 439.397 314.169 437.582 312.594L202.876 108.979C202.149 108.347 201.218 108 200.255 108Z" fill="white" fill-opacity="0.3"/>
<path d="M-27.0234 190H-142.868C-146.497 190 -148.251 194.443 -145.601 196.921L-28.5961 306.369C-26.9276 307.93 -26.903 310.568 -28.5422 312.16L-145.925 426.13C-148.502 428.632 -146.73 433 -143.138 433H-27.0657C-26.0776 433 -25.1245 432.634 -24.39 431.973L108.634 312.265C110.422 310.656 110.396 307.845 108.578 306.27L-24.4031 190.978C-25.1305 190.347 -26.0608 190 -27.0234 190Z" fill="white" fill-opacity="0.3"/>
<path d="M537.135 0L250.396 0C246.87 0 245.069 4.23108 247.513 6.77262L536.132 306.9C537.601 308.428 537.623 310.836 536.183 312.391L247.225 624.281C244.852 626.842 246.668 631 250.159 631H537.091C538.152 631 539.17 630.578 539.92 629.828L857.12 312.502C858.702 310.92 858.678 308.347 857.067 306.794L539.911 1.11992C539.165 0.401443 538.17 0 537.135 0Z" fill="white" fill-opacity="0.3"/>
</svg>
