<svg width="455" height="116" viewBox="0 0 455 116" fill="none" xmlns="http://www.w3.org/2000/svg">
<path d="M423.447 1.5H449.072C449.883 1.5 450.356 2.41348 449.89 3.07597L412.328 56.3869C412.09 56.7246 412.084 57.1738 412.313 57.5176L449.263 112.945C449.706 113.61 449.23 114.5 448.431 114.5H423.459C423.135 114.5 422.831 114.343 422.644 114.08L382.42 57.5378C382.17 57.1855 382.174 56.712 382.431 56.3642L422.643 1.90598C422.832 1.65066 423.13 1.5 423.447 1.5Z" fill="white" fill-opacity="0.5"/>
<path d="M369.447 1.5H395.072C395.883 1.5 396.356 2.41348 395.89 3.07597L358.328 56.3869C358.09 56.7246 358.084 57.1738 358.313 57.5176L395.263 112.945C395.706 113.61 395.23 114.5 394.431 114.5H369.459C369.135 114.5 368.831 114.343 368.644 114.08L328.42 57.5378C328.17 57.1855 328.174 56.712 328.431 56.3642L368.643 1.90598C368.832 1.65066 369.13 1.5 369.447 1.5Z" fill="white" fill-opacity="0.46"/>
<path d="M315.447 1.5H341.072C341.883 1.5 342.356 2.41348 341.89 3.07597L304.328 56.3869C304.09 56.7246 304.084 57.1738 304.313 57.5176L341.263 112.945C341.706 113.61 341.23 114.5 340.431 114.5H315.459C315.135 114.5 314.831 114.343 314.644 114.08L274.42 57.5378C274.17 57.1855 274.174 56.712 274.431 56.3642L314.643 1.90598C314.832 1.65066 315.13 1.5 315.447 1.5Z" fill="white" fill-opacity="0.42"/>
<path d="M261.447 1.5H287.072C287.883 1.5 288.356 2.41348 287.89 3.07597L250.328 56.3869C250.09 56.7246 250.084 57.1738 250.313 57.5176L287.263 112.945C287.706 113.61 287.23 114.5 286.431 114.5H261.459C261.135 114.5 260.831 114.343 260.644 114.08L220.42 57.5378C220.17 57.1855 220.174 56.712 220.431 56.3642L260.643 1.90598C260.832 1.65066 261.13 1.5 261.447 1.5Z" fill="white" fill-opacity="0.38"/>
<path d="M207.447 1.5H233.072C233.883 1.5 234.356 2.41348 233.89 3.07597L196.328 56.3869C196.09 56.7246 196.084 57.1738 196.313 57.5176L233.263 112.945C233.706 113.61 233.23 114.5 232.431 114.5H207.459C207.135 114.5 206.831 114.343 206.644 114.08L166.42 57.5378C166.17 57.1855 166.174 56.712 166.431 56.3642L206.643 1.90598C206.832 1.65066 207.13 1.5 207.447 1.5Z" fill="white" fill-opacity="0.3"/>
<path d="M152.633 0H179.069C179.88 0 180.354 0.914491 179.886 1.57688L141.197 56.3581C140.958 56.6962 140.952 57.1464 141.182 57.4905L179.24 114.444C179.684 115.109 179.208 116 178.408 116H152.645C152.321 116 152.018 115.844 151.83 115.581L110.422 57.5108C110.17 57.1581 110.174 56.6835 110.432 56.3353L151.83 0.405073C152.018 0.150287 152.316 0 152.633 0Z" fill="white" fill-opacity="0.25"/>
<path d="M97.4474 1.5H123.072C123.883 1.5 124.356 2.41348 123.89 3.07597L86.3279 56.3869C86.0899 56.7246 86.0841 57.1738 86.3133 57.5176L123.263 112.945C123.706 113.61 123.23 114.5 122.431 114.5H97.4586C97.135 114.5 96.8313 114.343 96.6437 114.08L56.4202 57.5378C56.1695 57.1855 56.1737 56.712 56.4306 56.3642L96.643 1.90598C96.8315 1.65066 97.13 1.5 97.4474 1.5Z" fill="white" fill-opacity="0.2"/>
<path d="M43.4474 1.5H69.0721C69.8826 1.5 70.3564 2.41348 69.8896 3.07597L32.3279 56.3869C32.0899 56.7246 32.0841 57.1738 32.3133 57.5176L69.2632 112.945C69.7062 113.61 69.2298 114.5 68.4311 114.5H43.4586C43.135 114.5 42.8313 114.343 42.6437 114.08L2.42016 57.5378C2.16951 57.1855 2.17371 56.712 2.43055 56.3641L42.643 1.90598C42.8315 1.65066 43.1301 1.5 43.4474 1.5Z" fill="white" fill-opacity="0.18"/>
</svg>
