<svg width="375" height="412" viewBox="0 0 375 412" fill="none" xmlns="http://www.w3.org/2000/svg">
<path opacity="0.07" d="M210.878 0L397.325 0C399.08 0 399.976 2.10557 398.76 3.37091L211.376 198.354C210.645 199.114 210.634 200.313 211.351 201.086L398.904 403.656C400.084 404.931 399.18 407 397.443 407H210.9C210.372 407 209.865 406.79 209.491 406.416L4.43222 201.142C3.64532 200.354 3.65726 199.074 4.45868 198.301L209.496 0.557943C209.867 0.200011 210.363 0 210.878 0Z" fill="#EAE9F0" fill-opacity="0.8"/>
<path opacity="0.07" d="M365.388 111H451.955C453.762 111 454.635 113.212 453.315 114.446L366.172 195.933C365.341 196.71 365.328 198.024 366.145 198.816L453.476 283.58C454.76 284.826 453.878 287 452.09 287H365.409C364.917 287 364.443 286.818 364.077 286.489L266.676 198.868C265.786 198.068 265.799 196.668 266.704 195.883L364.084 111.486C364.446 111.173 364.909 111 365.388 111Z" fill="#E6E5EC" fill-opacity="0.8"/>
</svg>
