<svg width="822" height="631" viewBox="0 0 822 631" fill="none" xmlns="http://www.w3.org/2000/svg">
<path d="M194.509 130H16.1358C12.507 130 10.7533 134.444 13.4042 136.922L192.933 304.759C194.603 306.32 194.628 308.96 192.987 310.552L13.0804 485.129C10.5021 487.631 12.2733 492 15.866 492H194.467C195.455 492 196.407 491.635 197.142 490.974L397.631 310.657C399.42 309.048 399.394 306.236 397.576 304.66L197.129 130.977C196.401 130.347 195.471 130 194.509 130Z" fill="white" fill-opacity="0.3"/>
<path d="M-48.0234 198H-163.868C-167.497 198 -169.251 202.443 -166.601 204.921L-49.5961 314.369C-47.9276 315.93 -47.903 318.568 -49.5422 320.16L-166.925 434.13C-169.502 436.632 -167.73 441 -164.138 441H-48.0657C-47.0776 441 -46.1245 440.634 -45.39 439.973L87.6339 320.265C89.4216 318.656 89.3956 315.845 87.5784 314.27L-45.4031 198.978C-46.1305 198.347 -47.0608 198 -48.0234 198Z" fill="white" fill-opacity="0.3"/>
<path d="M499.135 0L212.396 0C208.87 0 207.069 4.23108 209.513 6.77262L498.132 306.9C499.601 308.428 499.623 310.836 498.183 312.391L209.225 624.281C206.852 626.842 208.668 631 212.159 631H499.091C500.152 631 501.17 630.578 501.92 629.828L819.12 312.502C820.702 310.92 820.678 308.347 819.067 306.794L501.911 1.11992C501.165 0.401443 500.17 0 499.135 0Z" fill="white" fill-opacity="0.3"/>
</svg>
