<svg width="24" height="24" viewBox="0 0 24 24" fill="none" xmlns="http://www.w3.org/2000/svg">
<path d="M9.39108 5.11287C9.24553 5.235 9.14497 5.41075 9.12648 5.62208C9.09074 6.03064 9.39928 6.39834 9.80784 6.43408L17.6128 7.11692L16.9299 14.9219C16.8942 15.3304 17.2027 15.6981 17.6113 15.7339C18.0198 15.7696 18.3875 15.4611 18.4233 15.0525L19.1715 6.5009C19.2072 6.09233 18.8987 5.72463 18.4901 5.68889L9.93849 4.94072C9.72717 4.92223 9.53662 4.99074 9.39108 5.11287Z" fill="#F8F7FC"/>
<path d="M17.8989 6.07197L5.00641 16.8901C4.69233 17.1536 4.65042 17.6326 4.91397 17.9467C5.17751 18.2608 5.65651 18.3027 5.97059 18.0391L18.8631 7.22103C19.1772 6.95749 19.2191 6.47849 18.9556 6.16441C18.692 5.85033 18.213 5.80843 17.8989 6.07197Z" fill="#F8F7FC"/>
</svg>
