<svg width="32" height="32" viewBox="0 0 32 32" fill="none" xmlns="http://www.w3.org/2000/svg">
<path d="M12.5214 25.1829C12.3273 25.0201 12.1933 24.7857 12.1686 24.504C12.1209 23.9592 12.5323 23.469 13.0771 23.4213L23.4837 22.5108L22.5732 12.1043C22.5255 11.5595 22.9369 11.0693 23.4817 11.0216C24.0264 10.9739 24.5167 11.3853 24.5643 11.9301L25.5619 23.3322C25.6096 23.877 25.1982 24.3672 24.6534 24.4149L13.2513 25.4125C12.9695 25.4371 12.7155 25.3458 12.5214 25.1829Z" fill="#F8F7FC"/>
<path d="M23.8652 23.9042L6.67517 9.48005C6.2564 9.12866 6.20052 8.48999 6.55191 8.07122C6.90331 7.65245 7.54198 7.59657 7.96075 7.94796L25.1508 22.3721C25.5696 22.7235 25.6254 23.3622 25.274 23.7809C24.9226 24.1997 24.284 24.2556 23.8652 23.9042Z" fill="#F8F7FC"/>
</svg>
