<svg width="475" height="164" viewBox="0 0 475 164" fill="none" xmlns="http://www.w3.org/2000/svg">
<path d="M441.003 37H467.666C470.614 37 472.247 40.415 470.398 42.7101L441.147 79.0004C440.126 80.2669 440.11 82.0691 441.107 83.3539L470.605 121.34C472.394 123.645 470.752 127 467.834 127H441.042C440.004 127 439.02 126.54 438.353 125.745L402.923 83.4571C401.815 82.1348 401.833 80.2034 402.965 78.9017L438.356 38.2061C439.022 37.4399 439.988 37 441.003 37Z" fill="white" fill-opacity="0.15"/>
<path d="M361.245 29H393.727C396.664 29 398.301 32.3935 396.473 34.6923L361.338 78.8688C360.336 80.1287 360.319 81.9088 361.299 83.1866L396.677 129.358C398.445 131.666 396.8 135 393.892 135H361.284C360.238 135 359.247 134.533 358.58 133.727L316.883 83.29C315.795 81.974 315.812 80.0657 316.924 78.7698L358.583 30.2237C359.249 29.4469 360.222 29 361.245 29Z" fill="white" fill-opacity="0.2"/>
<path d="M266.102 17.5H307.712C310.652 17.5 312.288 20.8987 310.455 23.1966L266.207 78.6503C265.201 79.9118 265.184 81.6972 266.168 82.9767L310.659 140.853C312.433 143.161 310.788 146.5 307.878 146.5H266.142C265.098 146.5 264.108 146.035 263.441 145.231L211.893 83.0801C210.8 81.7625 210.817 79.8487 211.934 78.5514L263.444 18.7194C264.11 17.9452 265.081 17.5 266.102 17.5Z" fill="white" fill-opacity="0.3"/>
<path d="M155.793 12H202.63C205.584 12 207.216 15.4275 205.354 17.7204L155.966 78.5245C154.934 79.7948 154.917 81.6097 155.926 82.8986L205.563 146.329C207.365 148.632 205.724 152 202.8 152H155.832C154.798 152 153.818 151.544 153.151 150.755L95.9469 83.0017C94.8276 81.6759 94.8455 79.7309 95.9891 78.426L153.154 13.1961C153.82 12.4359 154.782 12 155.793 12Z" fill="white" fill-opacity="0.35"/>
<path d="M34.5063 5H86.6522C89.6024 5 91.2353 8.41984 89.3806 10.7141L34.6613 78.4002C33.6362 79.6682 33.6198 81.4753 34.6217 82.7617L89.5884 153.336C91.383 155.64 89.7411 159 86.8205 159H34.5455C33.5093 159 32.5261 158.542 31.8595 157.749L-31.0676 82.8649C-32.1799 81.5412 -32.162 79.6046 -31.0256 78.3016L31.8624 6.20224C32.5286 5.43838 33.4927 5 34.5063 5Z" fill="white" fill-opacity="0.39"/>
</svg>
