<svg width="719" height="111" viewBox="0 0 719 111" fill="none" xmlns="http://www.w3.org/2000/svg">
<path d="M-36 40.8342C-36 27.1866 -29.0418 14.481 -17.5427 7.13086L-16.2376 6.29669C-9.8048 2.18492 -2.32961 6.11961e-09 5.30505 1.7636e-08L264.548 4.08688e-07C269.062 4.15497e-07 273.543 0.764082 277.802 2.25987L293.525 7.7819C297.784 9.27769 302.266 10.0418 306.78 10.0418L679 10.0418C701.091 10.0418 719 27.9504 719 50.0418V71C719 93.0914 701.091 111 679 111H323.457H4.00004C-18.0914 111 -36 93.0914 -36 71V62.6677V40.8342Z" fill="#2A0EFF"/>
</svg>
