<svg width="354" height="707" viewBox="0 0 354 707" fill="none" xmlns="http://www.w3.org/2000/svg">
<path d="M31.768 707C29.2252 707 26.7481 706.192 24.6941 704.693L4.92607 690.267C1.83043 688.008 0 684.406 0 680.573L0 430.796C0 426.756 2.03283 422.987 5.40881 420.768L25.4771 407.577C27.0407 406.549 28.3423 405.17 29.2779 403.55L258.83 5.99945C260.974 2.28699 264.935 0 269.222 0H342C348.627 0 354 5.37256 354 12L354 374.697L349.588 695.165C349.498 701.728 344.152 707 337.589 707L31.768 707Z" fill="#2A0EFF"/>
</svg>
