<svg width="742" height="128" viewBox="0 0 742 128" fill="none" xmlns="http://www.w3.org/2000/svg">
<path d="M37.4062 32.9531C44.3438 32.9531 50.2031 34.0469 54.9844 36.2344C59.7969 38.3906 63.4375 41.5625 65.9062 45.75C68.375 49.9375 69.6094 55.0781 69.6094 61.1719C69.6094 68.5156 68.0625 75.0312 64.9688 80.7188C61.875 86.375 57.3906 90.8438 51.5156 94.125C45.6406 97.375 39.0625 99 31.7812 99H4.6875L17.5312 32.9531H37.4062ZM20.5781 88.3125H31.3594C36.3594 88.3125 40.7969 87.2344 44.6719 85.0781C48.5156 82.9531 51.4688 79.875 53.5312 75.8438C55.625 71.8125 56.6719 67.125 56.6719 61.7812C56.6719 55.875 55.0156 51.375 51.7031 48.2812C48.4219 45.1875 43.6875 43.6406 37.5 43.6406H29.25L20.5781 88.3125ZM128.984 88.3125L126.875 99H73.0625L85.8594 32.9531H137.797L135.734 43.6406H97.625L94.3906 60.2344H129.641L127.578 70.9219H92.3281L88.9531 88.3125H128.984ZM187.422 88.3125L185.312 99H136.094L148.891 32.9531H162.719L151.984 88.3125H187.422ZM226.922 43.6406L216.141 99H202.312L213.094 43.6406H191.766L193.828 32.9531H250.359L248.297 43.6406H226.922ZM256.484 82.125L247.344 99H233.562L270.453 32.9531H286.766L297.922 99H284.234L281.656 82.125H256.484ZM276.594 43.125C276.281 44.125 275.734 45.4531 274.953 47.1094C274.172 48.7656 273.188 50.75 272 53.0625L262.062 71.7188H280.578L277.438 50.5312C277.156 48.4062 276.938 46.7344 276.781 45.5156C276.656 44.2656 276.594 43.4688 276.594 43.125ZM348.094 57.4219L340.031 99H327.75L340.594 32.9531H359.109L363.234 69.8906C363.422 72.0469 363.609 74.2031 363.797 76.3594C364.016 78.5156 364.219 80.6719 364.406 82.8281C364.969 81.5781 365.5 80.3906 366 79.2656C366.531 78.1094 367.047 77.0312 367.547 76.0312L389.297 32.9531H407.719L394.875 99H382.594L390.656 57.5625C391.062 55.5312 391.547 53.2656 392.109 50.7656C392.703 48.2344 393.375 45.4688 394.125 42.4688C392.219 46.625 390.703 49.9219 389.578 52.3594C388.453 54.7656 387.594 56.5938 387 57.8438C386.406 59.0938 385.922 60.0625 385.547 60.75L366.234 99H356.391L351.984 60.6094C351.484 56.0469 351.078 52.2656 350.766 49.2656C350.484 46.2344 350.266 43.9688 350.109 42.4688C349.672 46.2812 349.281 49.4375 348.938 51.9375C348.625 54.4062 348.344 56.2344 348.094 57.4219ZM448.531 31.9688C454.656 31.9688 459.922 33.0781 464.328 35.2969C468.734 37.4844 472.125 40.6094 474.5 44.6719C476.906 48.7031 478.109 53.5156 478.109 59.1094C478.109 66.8281 476.469 73.8594 473.188 80.2031C469.875 86.5781 465.266 91.4688 459.359 94.875C453.453 98.25 446.703 99.9375 439.109 99.9375C433.109 99.9375 427.875 98.8125 423.406 96.5625C418.969 94.3125 415.578 91.0938 413.234 86.9062C410.891 82.6875 409.719 77.7656 409.719 72.1406C409.719 64.7656 411.375 57.9062 414.688 51.5625C417.969 45.2188 422.531 40.375 428.375 37.0312C434.219 33.6562 440.938 31.9688 448.531 31.9688ZM447.875 42.8906C442.812 42.8906 438.5 44.0625 434.938 46.4062C432.562 47.9688 430.547 50.0938 428.891 52.7812C427.234 55.4375 425.969 58.4062 425.094 61.6875C424.219 64.9688 423.781 68.3281 423.781 71.7656C423.781 77.5156 425.188 81.8438 428 84.75C430.812 87.625 434.734 89.0625 439.766 89.0625C444.797 89.0625 449.094 87.8906 452.656 85.5469C455.031 83.9844 457.047 81.8906 458.703 79.2656C460.391 76.6406 461.672 73.6875 462.547 70.4062C463.422 67.125 463.859 63.7344 463.859 60.2344C463.859 54.7344 462.484 50.4688 459.734 47.4375C457.016 44.4062 453.062 42.8906 447.875 42.8906ZM520.703 43.6406L509.922 99H496.094L506.875 43.6406H485.547L487.609 32.9531H544.141L542.078 43.6406H520.703ZM578.156 31.9688C584.281 31.9688 589.547 33.0781 593.953 35.2969C598.359 37.4844 601.75 40.6094 604.125 44.6719C606.531 48.7031 607.734 53.5156 607.734 59.1094C607.734 66.8281 606.094 73.8594 602.812 80.2031C599.5 86.5781 594.891 91.4688 588.984 94.875C583.078 98.25 576.328 99.9375 568.734 99.9375C562.734 99.9375 557.5 98.8125 553.031 96.5625C548.594 94.3125 545.203 91.0938 542.859 86.9062C540.516 82.6875 539.344 77.7656 539.344 72.1406C539.344 64.7656 541 57.9062 544.312 51.5625C547.594 45.2188 552.156 40.375 558 37.0312C563.844 33.6562 570.562 31.9688 578.156 31.9688ZM577.5 42.8906C572.438 42.8906 568.125 44.0625 564.562 46.4062C562.188 47.9688 560.172 50.0938 558.516 52.7812C556.859 55.4375 555.594 58.4062 554.719 61.6875C553.844 64.9688 553.406 68.3281 553.406 71.7656C553.406 77.5156 554.812 81.8438 557.625 84.75C560.438 87.625 564.359 89.0625 569.391 89.0625C574.422 89.0625 578.719 87.8906 582.281 85.5469C584.656 83.9844 586.672 81.8906 588.328 79.2656C590.016 76.6406 591.297 73.6875 592.172 70.4062C593.047 67.125 593.484 63.7344 593.484 60.2344C593.484 54.7344 592.109 50.4688 589.359 47.4375C586.641 44.4062 582.688 42.8906 577.5 42.8906ZM628.719 73.9688L623.891 99H610.062L622.906 32.9531H653.422C658.422 32.9531 662.688 33.7188 666.219 35.25C669.75 36.7812 672.438 38.9688 674.281 41.8125C676.125 44.6562 677.047 48 677.047 51.8438C677.047 57 675.344 61.375 671.938 64.9688C668.562 68.5625 663.969 70.7969 658.156 71.6719L671 99H655.719L644.938 73.9688H628.719ZM649.25 63.1875C653.781 63.1875 657.203 62.2812 659.516 60.4688C661.859 58.625 663.031 56.0156 663.031 52.6406C663.031 49.7344 662.031 47.5156 660.031 45.9844C658.062 44.4531 655.281 43.6875 651.688 43.6875H634.625L630.828 63.1875H649.25ZM704.875 99.9375C696.531 99.9375 690.172 98.4688 685.797 95.5312C681.422 92.5625 678.797 88.0156 677.922 81.8906L691.469 79.5938C692.125 83.0625 693.578 85.5938 695.828 87.1875C698.109 88.7812 701.438 89.5781 705.812 89.5781C711.219 89.5781 715.266 88.8125 717.953 87.2812C720.641 85.7188 721.984 83.375 721.984 80.25C721.984 79 721.75 77.875 721.281 76.875C720.812 75.875 720.109 75.0156 719.172 74.2969C718.234 73.5781 716.828 72.8594 714.953 72.1406C713.109 71.4219 710.797 70.7188 708.016 70.0312C702.297 68.5 698.047 66.9062 695.266 65.25C692.516 63.5938 690.406 61.5781 688.938 59.2031C687.469 56.7969 686.734 53.8594 686.734 50.3906C686.734 46.7031 687.844 43.4844 690.062 40.7344C692.312 37.9531 695.453 35.7969 699.484 34.2656C703.516 32.7344 708.219 31.9688 713.594 31.9688C721.031 31.9688 727 33.3281 731.5 36.0469C736 38.7344 738.766 42.6719 739.797 47.8594L726.297 51C725.609 48.1875 724.109 45.9531 721.797 44.2969C719.516 42.6094 716.531 41.7656 712.844 41.7656C708.969 41.7656 705.922 42.5 703.703 43.9688C701.484 45.4062 700.375 47.3906 700.375 49.9219C700.375 51.3906 700.781 52.6406 701.594 53.6719C702.406 54.7031 703.594 55.5938 705.156 56.3438C705.938 56.75 707.094 57.2031 708.625 57.7031C710.188 58.2031 712.125 58.7656 714.438 59.3906C719.406 60.7656 723.078 62.0625 725.453 63.2812C727.828 64.4688 729.734 65.8125 731.172 67.3125C732.578 68.8125 733.656 70.5312 734.406 72.4688C735.156 74.4062 735.531 76.6406 735.531 79.1719C735.531 85.9219 732.938 91.0781 727.75 94.6406C722.562 98.1719 714.938 99.9375 704.875 99.9375Z" fill="#F8F7FC" fill-opacity="0.5"/>
<path d="M34.4062 29.9531C41.3438 29.9531 47.2031 31.0469 51.9844 33.2344C56.7969 35.3906 60.4375 38.5625 62.9062 42.75C65.375 46.9375 66.6094 52.0781 66.6094 58.1719C66.6094 65.5156 65.0625 72.0312 61.9688 77.7188C58.875 83.375 54.3906 87.8438 48.5156 91.125C42.6406 94.375 36.0625 96 28.7812 96H1.6875L14.5312 29.9531H34.4062ZM17.5781 85.3125H28.3594C33.3594 85.3125 37.7969 84.2344 41.6719 82.0781C45.5156 79.9531 48.4688 76.875 50.5312 72.8438C52.625 68.8125 53.6719 64.125 53.6719 58.7812C53.6719 52.875 52.0156 48.375 48.7031 45.2812C45.4219 42.1875 40.6875 40.6406 34.5 40.6406H26.25L17.5781 85.3125ZM125.984 85.3125L123.875 96H70.0625L82.8594 29.9531H134.797L132.734 40.6406H94.625L91.3906 57.2344H126.641L124.578 67.9219H89.3281L85.9531 85.3125H125.984ZM184.422 85.3125L182.312 96H133.094L145.891 29.9531H159.719L148.984 85.3125H184.422ZM223.922 40.6406L213.141 96H199.312L210.094 40.6406H188.766L190.828 29.9531H247.359L245.297 40.6406H223.922ZM253.484 79.125L244.344 96H230.562L267.453 29.9531H283.766L294.922 96H281.234L278.656 79.125H253.484ZM273.594 40.125C273.281 41.125 272.734 42.4531 271.953 44.1094C271.172 45.7656 270.188 47.75 269 50.0625L259.062 68.7188H277.578L274.438 47.5312C274.156 45.4062 273.938 43.7344 273.781 42.5156C273.656 41.2656 273.594 40.4688 273.594 40.125ZM345.094 54.4219L337.031 96H324.75L337.594 29.9531H356.109L360.234 66.8906C360.422 69.0469 360.609 71.2031 360.797 73.3594C361.016 75.5156 361.219 77.6719 361.406 79.8281C361.969 78.5781 362.5 77.3906 363 76.2656C363.531 75.1094 364.047 74.0312 364.547 73.0312L386.297 29.9531H404.719L391.875 96H379.594L387.656 54.5625C388.062 52.5312 388.547 50.2656 389.109 47.7656C389.703 45.2344 390.375 42.4688 391.125 39.4688C389.219 43.625 387.703 46.9219 386.578 49.3594C385.453 51.7656 384.594 53.5938 384 54.8438C383.406 56.0938 382.922 57.0625 382.547 57.75L363.234 96H353.391L348.984 57.6094C348.484 53.0469 348.078 49.2656 347.766 46.2656C347.484 43.2344 347.266 40.9688 347.109 39.4688C346.672 43.2812 346.281 46.4375 345.938 48.9375C345.625 51.4062 345.344 53.2344 345.094 54.4219ZM445.531 28.9688C451.656 28.9688 456.922 30.0781 461.328 32.2969C465.734 34.4844 469.125 37.6094 471.5 41.6719C473.906 45.7031 475.109 50.5156 475.109 56.1094C475.109 63.8281 473.469 70.8594 470.188 77.2031C466.875 83.5781 462.266 88.4688 456.359 91.875C450.453 95.25 443.703 96.9375 436.109 96.9375C430.109 96.9375 424.875 95.8125 420.406 93.5625C415.969 91.3125 412.578 88.0938 410.234 83.9062C407.891 79.6875 406.719 74.7656 406.719 69.1406C406.719 61.7656 408.375 54.9062 411.688 48.5625C414.969 42.2188 419.531 37.375 425.375 34.0312C431.219 30.6562 437.938 28.9688 445.531 28.9688ZM444.875 39.8906C439.812 39.8906 435.5 41.0625 431.938 43.4062C429.562 44.9688 427.547 47.0938 425.891 49.7812C424.234 52.4375 422.969 55.4062 422.094 58.6875C421.219 61.9688 420.781 65.3281 420.781 68.7656C420.781 74.5156 422.188 78.8438 425 81.75C427.812 84.625 431.734 86.0625 436.766 86.0625C441.797 86.0625 446.094 84.8906 449.656 82.5469C452.031 80.9844 454.047 78.8906 455.703 76.2656C457.391 73.6406 458.672 70.6875 459.547 67.4062C460.422 64.125 460.859 60.7344 460.859 57.2344C460.859 51.7344 459.484 47.4688 456.734 44.4375C454.016 41.4062 450.062 39.8906 444.875 39.8906ZM517.703 40.6406L506.922 96H493.094L503.875 40.6406H482.547L484.609 29.9531H541.141L539.078 40.6406H517.703ZM575.156 28.9688C581.281 28.9688 586.547 30.0781 590.953 32.2969C595.359 34.4844 598.75 37.6094 601.125 41.6719C603.531 45.7031 604.734 50.5156 604.734 56.1094C604.734 63.8281 603.094 70.8594 599.812 77.2031C596.5 83.5781 591.891 88.4688 585.984 91.875C580.078 95.25 573.328 96.9375 565.734 96.9375C559.734 96.9375 554.5 95.8125 550.031 93.5625C545.594 91.3125 542.203 88.0938 539.859 83.9062C537.516 79.6875 536.344 74.7656 536.344 69.1406C536.344 61.7656 538 54.9062 541.312 48.5625C544.594 42.2188 549.156 37.375 555 34.0312C560.844 30.6562 567.562 28.9688 575.156 28.9688ZM574.5 39.8906C569.438 39.8906 565.125 41.0625 561.562 43.4062C559.188 44.9688 557.172 47.0938 555.516 49.7812C553.859 52.4375 552.594 55.4062 551.719 58.6875C550.844 61.9688 550.406 65.3281 550.406 68.7656C550.406 74.5156 551.812 78.8438 554.625 81.75C557.438 84.625 561.359 86.0625 566.391 86.0625C571.422 86.0625 575.719 84.8906 579.281 82.5469C581.656 80.9844 583.672 78.8906 585.328 76.2656C587.016 73.6406 588.297 70.6875 589.172 67.4062C590.047 64.125 590.484 60.7344 590.484 57.2344C590.484 51.7344 589.109 47.4688 586.359 44.4375C583.641 41.4062 579.688 39.8906 574.5 39.8906ZM625.719 70.9688L620.891 96H607.062L619.906 29.9531H650.422C655.422 29.9531 659.688 30.7187 663.219 32.25C666.75 33.7812 669.438 35.9688 671.281 38.8125C673.125 41.6562 674.047 45 674.047 48.8438C674.047 54 672.344 58.375 668.938 61.9688C665.562 65.5625 660.969 67.7969 655.156 68.6719L668 96H652.719L641.938 70.9688H625.719ZM646.25 60.1875C650.781 60.1875 654.203 59.2812 656.516 57.4688C658.859 55.625 660.031 53.0156 660.031 49.6406C660.031 46.7344 659.031 44.5156 657.031 42.9844C655.062 41.4531 652.281 40.6875 648.688 40.6875H631.625L627.828 60.1875H646.25ZM701.875 96.9375C693.531 96.9375 687.172 95.4688 682.797 92.5312C678.422 89.5625 675.797 85.0156 674.922 78.8906L688.469 76.5938C689.125 80.0625 690.578 82.5938 692.828 84.1875C695.109 85.7812 698.438 86.5781 702.812 86.5781C708.219 86.5781 712.266 85.8125 714.953 84.2812C717.641 82.7188 718.984 80.375 718.984 77.25C718.984 76 718.75 74.875 718.281 73.875C717.812 72.875 717.109 72.0156 716.172 71.2969C715.234 70.5781 713.828 69.8594 711.953 69.1406C710.109 68.4219 707.797 67.7188 705.016 67.0312C699.297 65.5 695.047 63.9062 692.266 62.25C689.516 60.5938 687.406 58.5781 685.938 56.2031C684.469 53.7969 683.734 50.8594 683.734 47.3906C683.734 43.7031 684.844 40.4844 687.062 37.7344C689.312 34.9531 692.453 32.7969 696.484 31.2656C700.516 29.7344 705.219 28.9688 710.594 28.9688C718.031 28.9688 724 30.3281 728.5 33.0469C733 35.7344 735.766 39.6719 736.797 44.8594L723.297 48C722.609 45.1875 721.109 42.9531 718.797 41.2969C716.516 39.6094 713.531 38.7656 709.844 38.7656C705.969 38.7656 702.922 39.5 700.703 40.9688C698.484 42.4062 697.375 44.3906 697.375 46.9219C697.375 48.3906 697.781 49.6406 698.594 50.6719C699.406 51.7031 700.594 52.5938 702.156 53.3438C702.938 53.75 704.094 54.2031 705.625 54.7031C707.188 55.2031 709.125 55.7656 711.438 56.3906C716.406 57.7656 720.078 59.0625 722.453 60.2812C724.828 61.4688 726.734 62.8125 728.172 64.3125C729.578 65.8125 730.656 67.5312 731.406 69.4688C732.156 71.4062 732.531 73.6406 732.531 76.1719C732.531 82.9219 729.938 88.0781 724.75 91.6406C719.562 95.1719 711.938 96.9375 701.875 96.9375Z" fill="#F8F7FC" fill-opacity="0.3"/>
</svg>
