<svg width="82" height="34" viewBox="0 0 82 34" fill="none" xmlns="http://www.w3.org/2000/svg">
<path opacity="0.8" d="M13.5417 2.5H2.32529C1.4473 2.5 0.995511 3.55054 1.59943 4.18784L13.3097 16.5454C13.6703 16.9259 13.6758 17.5203 13.3223 17.9074L1.52849 30.8258C0.942489 31.4676 1.39787 32.5 2.26701 32.5H13.5308C13.7986 32.5 14.0553 32.3926 14.2432 32.2018L28.2958 17.9355C28.6843 17.541 28.6784 16.9059 28.2826 16.5188L14.2409 2.7851C14.0541 2.60234 13.8031 2.5 13.5417 2.5Z" fill="#484B57"/>
<path opacity="0.4" d="M38.5417 2.5H27.3253C26.4473 2.5 25.9955 3.55054 26.5994 4.18784L38.3097 16.5454C38.6703 16.9259 38.6758 17.5203 38.3223 17.9074L26.5285 30.8258C25.9425 31.4676 26.3979 32.5 27.267 32.5H38.5308C38.7986 32.5 39.0553 32.3926 39.2432 32.2018L53.2958 17.9355C53.6843 17.541 53.6784 16.9059 53.2826 16.5188L39.2409 2.7851C39.0541 2.60234 38.8031 2.5 38.5417 2.5Z" fill="#484B57"/>
<path opacity="0.2" d="M63.4545 0.5H49.4823C48.582 0.5 48.1402 1.59662 48.7891 2.22074L63.1 15.9851C63.5038 16.3735 63.5098 17.0177 63.1133 17.4136L48.7106 31.7923C48.0798 32.422 48.5258 33.5 49.4171 33.5H63.4439C63.6957 33.5 63.9382 33.405 64.123 33.234L81.1918 17.4403C81.625 17.0395 81.6187 16.3526 81.1781 15.9599L64.12 0.753538C63.9368 0.590238 63.6999 0.5 63.4545 0.5Z" fill="#484B57"/>
</svg>
